<svg width="351" height="108" viewBox="0 0 351 108" fill="none" xmlns="http://www.w3.org/2000/svg">
<path d="M227.119 22.2969C227.119 21.5938 227.236 20.8906 227.587 20.1875L236.728 3.54688C237.666 1.67188 239.541 0.5 241.65 0.5H287.47C289.58 0.5 291.455 1.67188 292.392 3.54688L301.533 20.1875C301.884 20.8906 302.119 21.5938 302.119 22.2969C302.119 24.7578 300.009 26.75 297.548 26.75H294.619V57.6875C294.619 59.3281 293.33 60.5 291.806 60.5H288.056C286.416 60.5 285.244 59.3281 285.244 57.6875V30.5C285.244 30.0312 285.595 29.5625 286.181 29.5625C286.65 29.5625 287.119 30.0312 287.119 30.5V57.6875C287.119 58.2734 287.47 58.625 288.056 58.625H291.806C292.275 58.625 292.744 58.2734 292.744 57.6875V26.75H236.376V54.875C236.376 56.9844 238.134 58.625 240.126 58.625H266.494C268.486 58.625 270.244 56.9844 270.244 54.875V30.5C270.244 30.0312 270.595 29.5625 271.181 29.5625C271.65 29.5625 272.119 30.0312 272.119 30.5V54.875C272.119 58.0391 269.541 60.5 266.494 60.5H240.126C237.08 60.5 234.501 58.0391 234.501 54.875V26.75H231.572C229.111 26.75 227.119 24.7578 227.119 22.2969ZM297.548 24.875C299.072 24.875 300.244 23.7031 300.244 22.2969C300.244 21.8281 300.126 21.4766 299.892 21.125L290.751 4.36719C290.048 3.19531 288.876 2.375 287.47 2.375H241.65C240.244 2.375 239.072 3.19531 238.369 4.36719L229.228 21.125C228.994 21.4766 228.994 21.8281 228.994 22.2969C228.994 23.7031 230.048 24.875 231.572 24.875H297.548ZM242.939 29.5625C243.525 29.5625 243.876 30.0312 243.876 30.5V42.6875C243.876 43.2734 244.345 43.625 244.814 43.625H261.689C262.275 43.625 262.626 43.2734 262.626 42.6875V30.5C262.626 30.0312 263.095 29.5625 263.564 29.5625C264.15 29.5625 264.501 30.0312 264.501 30.5V42.6875C264.501 44.3281 263.33 45.5 261.689 45.5H244.814C243.291 45.5 242.001 44.3281 242.001 42.6875V30.5C242.001 30.0312 242.47 29.5625 242.939 29.5625Z" fill="#518FCC"/>
<path d="M227.587 20.1875L226.711 19.7061L226.702 19.723L226.693 19.7403L227.587 20.1875ZM236.728 3.54688L237.605 4.02832L237.614 4.01138L237.622 3.99409L236.728 3.54688ZM292.392 3.54688L291.498 3.99409L291.506 4.01138L291.516 4.02832L292.392 3.54688ZM301.533 20.1875L302.427 19.7403L302.419 19.723L302.409 19.7061L301.533 20.1875ZM294.619 26.75V25.75H293.619V26.75H294.619ZM292.744 26.75H293.744V25.75H292.744V26.75ZM236.376 26.75V25.75H235.376V26.75H236.376ZM234.501 26.75H235.501V25.75H234.501V26.75ZM299.892 21.125L299.014 21.6039L299.035 21.6428L299.06 21.6797L299.892 21.125ZM290.751 4.36719L291.629 3.88834L291.62 3.8703L291.609 3.85269L290.751 4.36719ZM238.369 4.36719L237.511 3.85269L237.501 3.8703L237.491 3.88834L238.369 4.36719ZM229.228 21.125L230.06 21.6797L230.085 21.6428L230.106 21.6039L229.228 21.125ZM228.119 22.2969C228.119 21.7108 228.215 21.1684 228.482 20.6347L226.693 19.7403C226.257 20.6128 226.119 21.4767 226.119 22.2969H228.119ZM228.464 20.6689L237.605 4.02832L235.852 3.06543L226.711 19.7061L228.464 20.6689ZM237.622 3.99409C238.392 2.45518 239.922 1.5 241.65 1.5V-0.5C239.159 -0.5 236.939 0.888572 235.834 3.09966L237.622 3.99409ZM241.65 1.5H287.47V-0.5H241.65V1.5ZM287.47 1.5C289.198 1.5 290.728 2.45518 291.498 3.99409L293.287 3.09966C292.181 0.888572 289.961 -0.5 287.47 -0.5V1.5ZM291.516 4.02832L300.656 20.6689L302.409 19.7061L293.269 3.06543L291.516 4.02832ZM300.638 20.6347C300.956 21.2696 301.119 21.8123 301.119 22.2969H303.119C303.119 21.3752 302.813 20.5116 302.427 19.7403L300.638 20.6347ZM301.119 22.2969C301.119 24.1722 299.491 25.75 297.548 25.75V27.75C300.528 27.75 303.119 25.3435 303.119 22.2969H301.119ZM297.548 25.75H294.619V27.75H297.548V25.75ZM293.619 26.75V57.6875H295.619V26.75H293.619ZM293.619 57.6875C293.619 58.7487 292.805 59.5 291.806 59.5V61.5C293.854 61.5 295.619 59.9075 295.619 57.6875H293.619ZM291.806 59.5H288.056V61.5H291.806V59.5ZM288.056 59.5C286.968 59.5 286.244 58.7758 286.244 57.6875H284.244C284.244 59.8804 285.863 61.5 288.056 61.5V59.5ZM286.244 57.6875V30.5H284.244V57.6875H286.244ZM286.244 30.5C286.244 30.507 286.243 30.511 286.241 30.5137C286.24 30.5166 286.237 30.5229 286.23 30.5312C286.221 30.5403 286.209 30.5501 286.194 30.5569C286.177 30.5641 286.17 30.5625 286.181 30.5625V28.5625C284.963 28.5625 284.244 29.5627 284.244 30.5H286.244ZM286.181 30.5625C286.132 30.5625 286.105 30.5506 286.103 30.5492C286.1 30.548 286.107 30.5515 286.119 30.5626C286.13 30.5737 286.133 30.5814 286.132 30.5786C286.131 30.5759 286.119 30.5493 286.119 30.5H288.119C288.119 29.9404 287.849 29.4645 287.533 29.1484C287.217 28.8322 286.741 28.5625 286.181 28.5625V30.5625ZM286.119 30.5V57.6875H288.119V30.5H286.119ZM286.119 57.6875C286.119 58.181 286.271 58.6931 286.661 59.0831C287.051 59.473 287.563 59.625 288.056 59.625V57.625C288.009 57.625 287.995 57.6179 288.005 57.6216C288.018 57.6261 288.046 57.6397 288.075 57.6689C288.104 57.698 288.118 57.7259 288.122 57.7382C288.126 57.7483 288.119 57.7348 288.119 57.6875H286.119ZM288.056 59.625H291.806V57.625H288.056V59.625ZM291.806 59.625C292.744 59.625 293.744 58.9058 293.744 57.6875H291.744C291.744 57.6982 291.742 57.6913 291.749 57.675C291.756 57.6598 291.766 57.6472 291.775 57.6388C291.783 57.6312 291.79 57.6283 291.792 57.6272C291.795 57.6261 291.799 57.625 291.806 57.625V59.625ZM293.744 57.6875V26.75H291.744V57.6875H293.744ZM292.744 25.75H236.376V27.75H292.744V25.75ZM235.376 26.75V54.875H237.376V26.75H235.376ZM235.376 54.875C235.376 57.5568 237.602 59.625 240.126 59.625V57.625C238.666 57.625 237.376 56.4119 237.376 54.875H235.376ZM240.126 59.625H266.494V57.625H240.126V59.625ZM266.494 59.625C269.018 59.625 271.244 57.5568 271.244 54.875H269.244C269.244 56.4119 267.954 57.625 266.494 57.625V59.625ZM271.244 54.875V30.5H269.244V54.875H271.244ZM271.244 30.5C271.244 30.507 271.243 30.511 271.241 30.5137C271.24 30.5166 271.237 30.5229 271.23 30.5312C271.221 30.5403 271.209 30.5501 271.194 30.5569C271.177 30.5641 271.17 30.5625 271.181 30.5625V28.5625C269.963 28.5625 269.244 29.5627 269.244 30.5H271.244ZM271.181 30.5625C271.132 30.5625 271.105 30.5506 271.103 30.5492C271.1 30.548 271.107 30.5515 271.119 30.5626C271.13 30.5737 271.133 30.5814 271.132 30.5786C271.131 30.5759 271.119 30.5493 271.119 30.5H273.119C273.119 29.9404 272.849 29.4645 272.533 29.1484C272.217 28.8322 271.741 28.5625 271.181 28.5625V30.5625ZM271.119 30.5V54.875H273.119V30.5H271.119ZM271.119 54.875C271.119 57.4733 269.002 59.5 266.494 59.5V61.5C270.079 61.5 273.119 58.6049 273.119 54.875H271.119ZM266.494 59.5H240.126V61.5H266.494V59.5ZM240.126 59.5C237.618 59.5 235.501 57.4733 235.501 54.875H233.501C233.501 58.6049 236.541 61.5 240.126 61.5V59.5ZM235.501 54.875V26.75H233.501V54.875H235.501ZM234.501 25.75H231.572V27.75H234.501V25.75ZM231.572 25.75C229.663 25.75 228.119 24.2055 228.119 22.2969H226.119C226.119 25.3101 228.559 27.75 231.572 27.75V25.75ZM297.548 25.875C299.595 25.875 301.244 24.2842 301.244 22.2969H299.244C299.244 23.1221 298.549 23.875 297.548 23.875V25.875ZM301.244 22.2969C301.244 21.6245 301.065 21.0809 300.724 20.5703L299.06 21.6797C299.188 21.8722 299.244 22.0318 299.244 22.2969H301.244ZM300.77 20.6461L291.629 3.88834L289.874 4.84604L299.014 21.6039L300.77 20.6461ZM291.609 3.85269C290.765 2.44551 289.298 1.375 287.47 1.375V3.375C288.455 3.375 289.332 3.94512 289.894 4.88168L291.609 3.85269ZM287.47 1.375H241.65V3.375H287.47V1.375ZM241.65 1.375C239.822 1.375 238.355 2.44551 237.511 3.85269L239.226 4.88168C239.788 3.94512 240.666 3.375 241.65 3.375V1.375ZM237.491 3.88834L228.35 20.6461L230.106 21.6039L239.247 4.84604L237.491 3.88834ZM228.396 20.5703C227.969 21.2112 227.994 21.8729 227.994 22.2969H229.994C229.994 21.7834 230.019 21.7419 230.06 21.6797L228.396 20.5703ZM227.994 22.2969C227.994 24.2252 229.466 25.875 231.572 25.875V23.875C230.63 23.875 229.994 23.181 229.994 22.2969H227.994ZM231.572 25.875H297.548V23.875H231.572V25.875ZM242.939 30.5625C242.95 30.5625 242.943 30.5641 242.927 30.5569C242.911 30.5501 242.899 30.5403 242.89 30.5312C242.883 30.5229 242.88 30.5166 242.879 30.5137C242.878 30.511 242.876 30.507 242.876 30.5H244.876C244.876 29.5627 244.157 28.5625 242.939 28.5625V30.5625ZM242.876 30.5V42.6875H244.876V30.5H242.876ZM242.876 42.6875C242.876 43.9058 243.877 44.625 244.814 44.625V42.625C244.821 42.625 244.825 42.6261 244.828 42.6272C244.831 42.6283 244.837 42.6312 244.845 42.6388C244.854 42.6472 244.864 42.6598 244.871 42.675C244.878 42.6913 244.876 42.6982 244.876 42.6875H242.876ZM244.814 44.625H261.689V42.625H244.814V44.625ZM261.689 44.625C262.182 44.625 262.695 44.473 263.085 44.0831C263.475 43.6931 263.626 43.181 263.626 42.6875H261.626C261.626 42.7348 261.619 42.7483 261.623 42.7382C261.628 42.7259 261.641 42.698 261.67 42.6689C261.699 42.6397 261.727 42.6261 261.74 42.6216C261.75 42.6179 261.736 42.625 261.689 42.625V44.625ZM263.626 42.6875V30.5H261.626V42.6875H263.626ZM263.626 30.5C263.626 30.5493 263.615 30.5759 263.613 30.5786C263.612 30.5814 263.615 30.5737 263.627 30.5626C263.638 30.5515 263.645 30.548 263.643 30.5492C263.64 30.5506 263.613 30.5625 263.564 30.5625V28.5625C263.004 28.5625 262.528 28.8322 262.212 29.1484C261.896 29.4645 261.626 29.9404 261.626 30.5H263.626ZM263.564 30.5625C263.575 30.5625 263.568 30.5641 263.552 30.5569C263.536 30.5501 263.524 30.5403 263.515 30.5312C263.508 30.5229 263.505 30.5166 263.504 30.5137C263.503 30.511 263.501 30.507 263.501 30.5H265.501C265.501 29.5627 264.782 28.5625 263.564 28.5625V30.5625ZM263.501 30.5V42.6875H265.501V30.5H263.501ZM263.501 42.6875C263.501 43.7758 262.777 44.5 261.689 44.5V46.5C263.882 46.5 265.501 44.8804 265.501 42.6875H263.501ZM261.689 44.5H244.814V46.5H261.689V44.5ZM244.814 44.5C243.815 44.5 243.001 43.7487 243.001 42.6875H241.001C241.001 44.9075 242.766 46.5 244.814 46.5V44.5ZM243.001 42.6875V30.5H241.001V42.6875H243.001ZM243.001 30.5C243.001 30.5493 242.99 30.5759 242.988 30.5786C242.987 30.5814 242.99 30.5737 243.002 30.5626C243.013 30.5515 243.02 30.548 243.018 30.5492C243.015 30.5506 242.988 30.5625 242.939 30.5625V28.5625C242.379 28.5625 241.903 28.8322 241.587 29.1484C241.271 29.4645 241.001 29.9404 241.001 30.5H243.001Z" fill="#518FCC"/>
<path d="M142.965 0.5H116.715C113.55 0.5 111.09 3.07812 111.09 6.125V54.875C111.09 58.0391 113.55 60.5 116.715 60.5H142.965C146.011 60.5 148.59 58.0391 148.59 54.875V6.125C148.59 3.07812 146.011 0.5 142.965 0.5ZM146.715 54.875C146.715 56.9844 144.957 58.625 142.965 58.625H116.715C114.605 58.625 112.965 56.9844 112.965 54.875V6.125C112.965 4.13281 114.605 2.375 116.715 2.375H142.965C144.957 2.375 146.715 4.13281 146.715 6.125V54.875ZM129.84 47.375C127.73 47.375 126.09 49.1328 126.09 51.125C126.09 53.2344 127.73 54.875 129.84 54.875C131.832 54.875 133.59 53.2344 133.59 51.125C133.59 49.1328 131.832 47.375 129.84 47.375ZM129.84 53C128.785 53 127.965 52.1797 127.965 51.125C127.965 50.1875 128.785 49.25 129.84 49.25C130.777 49.25 131.715 50.1875 131.715 51.125C131.715 52.1797 130.777 53 129.84 53Z" fill="#518FCC"/>
<path d="M142.965 -0.5H116.715V1.5H142.965V-0.5ZM116.715 -0.5C112.985 -0.5 110.09 2.53945 110.09 6.125H112.09C112.09 3.6168 114.116 1.5 116.715 1.5V-0.5ZM110.09 6.125V54.875H112.09V6.125H110.09ZM110.09 54.875C110.09 58.5913 112.998 61.5 116.715 61.5V59.5C114.103 59.5 112.09 57.4868 112.09 54.875H110.09ZM116.715 61.5H142.965V59.5H116.715V61.5ZM142.965 61.5C146.55 61.5 149.59 58.6049 149.59 54.875H147.59C147.59 57.4733 145.473 59.5 142.965 59.5V61.5ZM149.59 54.875V6.125H147.59V54.875H149.59ZM149.59 6.125C149.59 2.52584 146.564 -0.5 142.965 -0.5V1.5C145.459 1.5 147.59 3.63041 147.59 6.125H149.59ZM145.715 54.875C145.715 56.4119 144.425 57.625 142.965 57.625V59.625C145.489 59.625 147.715 57.5568 147.715 54.875H145.715ZM142.965 57.625H116.715V59.625H142.965V57.625ZM116.715 57.625C115.157 57.625 113.965 56.4321 113.965 54.875H111.965C111.965 57.5367 114.053 59.625 116.715 59.625V57.625ZM113.965 54.875V6.125H111.965V54.875H113.965ZM113.965 6.125C113.965 4.66471 115.178 3.375 116.715 3.375V1.375C114.033 1.375 111.965 3.60091 111.965 6.125H113.965ZM116.715 3.375H142.965V1.375H116.715V3.375ZM142.965 3.375C144.404 3.375 145.715 4.6851 145.715 6.125H147.715C147.715 3.58053 145.509 1.375 142.965 1.375V3.375ZM145.715 6.125V54.875H147.715V6.125H145.715ZM129.84 46.375C127.158 46.375 125.09 48.6009 125.09 51.125H127.09C127.09 49.6647 128.303 48.375 129.84 48.375V46.375ZM125.09 51.125C125.09 53.7867 127.178 55.875 129.84 55.875V53.875C128.282 53.875 127.09 52.6821 127.09 51.125H125.09ZM129.84 55.875C132.364 55.875 134.59 53.8068 134.59 51.125H132.59C132.59 52.6619 131.3 53.875 129.84 53.875V55.875ZM134.59 51.125C134.59 48.5805 132.384 46.375 129.84 46.375V48.375C131.279 48.375 132.59 49.6851 132.59 51.125H134.59ZM129.84 52C129.337 52 128.965 51.6274 128.965 51.125H126.965C126.965 52.732 128.233 54 129.84 54V52ZM128.965 51.125C128.965 50.6992 129.377 50.25 129.84 50.25V48.25C128.193 48.25 126.965 49.6758 126.965 51.125H128.965ZM129.84 50.25C129.983 50.25 130.21 50.3318 130.422 50.543C130.633 50.7543 130.715 50.9815 130.715 51.125H132.715C132.715 50.331 132.328 49.6207 131.836 49.1288C131.344 48.6369 130.634 48.25 129.84 48.25V50.25ZM130.715 51.125C130.715 51.5877 130.265 52 129.84 52V54C131.289 54 132.715 52.7717 132.715 51.125H130.715Z" fill="#518FCC"/>
<path d="M28.7026 41.75C29.1714 41.75 29.6401 41.2812 29.6401 40.8125V9.875C29.6401 7.76562 31.2808 6.125 33.3901 6.125H82.1401C84.1323 6.125 85.8901 7.76562 85.8901 9.875V40.8125C85.8901 41.2812 86.2417 41.75 86.8276 41.75C87.2964 41.75 87.7651 41.2812 87.7651 40.8125V9.875C87.7651 6.71094 85.187 4.25 82.1401 4.25H33.3901C30.2261 4.25 27.7651 6.71094 27.7651 9.875V40.6953C27.7651 41.3984 28.1167 41.75 28.7026 41.75ZM93.3901 45.5H22.1401C21.0855 45.5 20.2651 46.3203 20.2651 47.375V49.25C20.2651 53.3516 23.5464 56.75 27.7651 56.75H87.7651C91.8667 56.75 95.2651 53.3516 95.2651 49.25V47.375C95.2651 46.4375 94.3276 45.5 93.3901 45.5ZM93.3901 49.25C93.3901 52.2969 90.812 54.875 87.7651 54.875H27.7651C24.6011 54.875 22.1401 52.2969 22.1401 49.25V47.375H93.3901V49.25Z" fill="#518FCC"/>
<path d="M22.1401 47.375V46.375H21.1401V47.375H22.1401ZM93.3902 47.375H94.3902V46.375H93.3902V47.375ZM28.7026 42.75C29.2623 42.75 29.7382 42.4803 30.0543 42.1641C30.3704 41.848 30.6401 41.3721 30.6401 40.8125H28.6401C28.6401 40.7632 28.6521 40.7366 28.6534 40.7339C28.6547 40.7311 28.6512 40.7388 28.6401 40.7499C28.629 40.761 28.6213 40.7645 28.624 40.7633C28.6268 40.7619 28.6534 40.75 28.7026 40.75V42.75ZM30.6401 40.8125V9.875H28.6401V40.8125H30.6401ZM30.6401 9.875C30.6401 8.31791 31.8331 7.125 33.3901 7.125V5.125C30.7285 5.125 28.6401 7.21334 28.6401 9.875H30.6401ZM33.3901 7.125H82.1402V5.125H33.3901V7.125ZM82.1402 7.125C83.6004 7.125 84.8902 8.33807 84.8902 9.875H86.8902C86.8902 7.19317 84.6642 5.125 82.1402 5.125V7.125ZM84.8902 9.875V40.8125H86.8902V9.875H84.8902ZM84.8902 40.8125C84.8902 41.7498 85.6093 42.75 86.8277 42.75V40.75C86.8169 40.75 86.8239 40.7484 86.8401 40.7556C86.8554 40.7624 86.8679 40.7722 86.8763 40.7813C86.884 40.7896 86.8869 40.796 86.888 40.7988C86.889 40.8015 86.8902 40.8055 86.8902 40.8125H84.8902ZM86.8277 42.75C87.3873 42.75 87.8632 42.4803 88.1793 42.1641C88.4954 41.848 88.7652 41.3721 88.7652 40.8125H86.7652C86.7652 40.7632 86.7771 40.7366 86.7784 40.7339C86.7797 40.7311 86.7762 40.7388 86.7651 40.7499C86.754 40.761 86.7463 40.7645 86.749 40.7633C86.7518 40.7619 86.7784 40.75 86.8277 40.75V42.75ZM88.7652 40.8125V9.875H86.7652V40.8125H88.7652ZM88.7652 9.875C88.7652 6.14514 85.7257 3.25 82.1402 3.25V5.25C84.6484 5.25 86.7652 7.27674 86.7652 9.875H88.7652ZM82.1402 3.25H33.3901V5.25H82.1402V3.25ZM33.3901 3.25C29.6738 3.25 26.7651 6.15865 26.7651 9.875H28.7651C28.7651 7.26322 30.7784 5.25 33.3901 5.25V3.25ZM26.7651 9.875V40.6953H28.7651V9.875H26.7651ZM26.7651 40.6953C26.7651 41.2017 26.8919 41.7419 27.277 42.1621C27.6743 42.5955 28.207 42.75 28.7026 42.75V40.75C28.6548 40.75 28.6469 40.7427 28.665 40.7496C28.6743 40.7531 28.6885 40.7597 28.705 40.7708C28.7217 40.782 28.7376 40.7956 28.7513 40.8106C28.7804 40.8423 28.7855 40.864 28.7818 40.8524C28.7772 40.8381 28.7651 40.79 28.7651 40.6953H26.7651ZM93.3902 44.5H22.1401V46.5H93.3902V44.5ZM22.1401 44.5C20.5332 44.5 19.2651 45.768 19.2651 47.375H21.2651C21.2651 46.8726 21.6377 46.5 22.1401 46.5V44.5ZM19.2651 47.375V49.25H21.2651V47.375H19.2651ZM19.2651 49.25C19.2651 53.8936 22.9839 57.75 27.7651 57.75V55.75C24.1088 55.75 21.2651 52.8095 21.2651 49.25H19.2651ZM27.7651 57.75H87.7652V55.75H27.7651V57.75ZM87.7652 57.75C92.419 57.75 96.2652 53.9038 96.2652 49.25H94.2652C94.2652 52.7993 91.3144 55.75 87.7652 55.75V57.75ZM96.2652 49.25V47.375H94.2652V49.25H96.2652ZM96.2652 47.375C96.2652 46.581 95.8782 45.8707 95.3863 45.3788C94.8944 44.8869 94.1841 44.5 93.3902 44.5V46.5C93.5337 46.5 93.7609 46.5818 93.9721 46.793C94.1833 47.0043 94.2652 47.2315 94.2652 47.375H96.2652ZM92.3902 49.25C92.3902 51.7446 90.2597 53.875 87.7652 53.875V55.875C91.3643 55.875 94.3902 52.8492 94.3902 49.25H92.3902ZM87.7652 53.875H27.7651V55.875H87.7652V53.875ZM27.7651 53.875C25.1669 53.875 23.1401 51.7582 23.1401 49.25H21.1401C21.1401 52.8355 24.0353 55.875 27.7651 55.875V53.875ZM23.1401 49.25V47.375H21.1401V49.25H23.1401ZM22.1401 48.375H93.3902V46.375H22.1401V48.375ZM92.3902 47.375V49.25H94.3902V47.375H92.3902Z" fill="#518FCC"/>
<path d="M38.5558 75.508H37.1878C37.2358 75.796 37.2718 76.12 37.2958 76.6C37.3078 76.888 37.3198 77.248 37.3318 77.644H33.1438C32.7598 77.644 32.2798 77.608 31.9438 77.56V78.832C32.3398 78.808 32.7478 78.796 33.1678 78.796H36.8278C35.8678 80.212 33.8038 82.072 31.4158 83.212L32.2798 84.196C34.3198 83.116 36.3478 81.304 37.3798 79.9C37.4038 81.364 37.4158 82.864 37.4158 83.764C37.4158 84.088 37.2958 84.244 36.9718 84.244C36.5398 84.244 35.8798 84.196 35.3278 84.112L35.4238 85.348C36.0598 85.384 36.7558 85.42 37.4158 85.42C38.2198 85.42 38.6278 85.036 38.6278 84.34C38.6158 82.792 38.5678 80.572 38.5318 78.796H40.2838C40.5838 78.796 41.0158 78.808 41.3398 78.82V77.56C41.0878 77.596 40.5718 77.644 40.2238 77.644H38.5078C38.5078 77.236 38.4958 76.888 38.4958 76.6C38.4838 76.252 38.5078 75.856 38.5558 75.508ZM44.4821 76.06L43.6061 76.996C44.4941 77.596 45.9821 78.904 46.6061 79.54L47.5541 78.568C46.8821 77.872 45.3221 76.624 44.4821 76.06ZM43.2461 84.088L44.0501 85.324C45.9101 84.988 47.4341 84.28 48.6461 83.536C50.5181 82.384 51.9941 80.752 52.8581 79.192L52.1261 77.884C51.3941 79.42 49.8941 81.22 47.9621 82.408C46.8101 83.116 45.2501 83.788 43.2461 84.088ZM55.4635 75.952V77.188C55.7995 77.164 56.2315 77.152 56.6155 77.152H61.2715C61.6795 77.152 62.1595 77.164 62.4595 77.188V75.952C62.1595 75.988 61.6675 76.012 61.2835 76.012H56.6155C56.2195 76.012 55.7755 75.988 55.4635 75.952ZM63.4075 79.252L62.5555 78.724C62.3995 78.784 62.1115 78.832 61.7875 78.832H55.6435C55.2955 78.832 54.8395 78.796 54.3715 78.748V79.996C54.8275 79.96 55.3555 79.948 55.6435 79.948H61.7515C61.5355 80.74 61.1035 81.64 60.4195 82.348C59.4355 83.368 57.9715 84.148 56.2195 84.508L57.1555 85.588C58.6915 85.156 60.2155 84.4 61.4515 83.032C62.3395 82.048 62.8795 80.836 63.2155 79.672C63.2395 79.564 63.3355 79.384 63.4075 79.252ZM65.0559 80.524L65.6439 81.712C67.2279 81.232 68.8119 80.536 70.0719 79.852V84.028C70.0719 84.52 70.0359 85.18 69.9999 85.444H71.4879C71.4279 85.18 71.4039 84.52 71.4039 84.028V79.048C72.5919 78.268 73.7199 77.344 74.6319 76.42L73.6239 75.46C72.8079 76.432 71.5359 77.548 70.2879 78.316C68.9559 79.144 67.1559 79.96 65.0559 80.524ZM77.8876 76.06L77.0116 76.996C77.8996 77.596 79.3876 78.904 80.0116 79.54L80.9596 78.568C80.2876 77.872 78.7276 76.624 77.8876 76.06ZM76.6516 84.088L77.4556 85.324C79.3156 84.988 80.8396 84.28 82.0516 83.536C83.9236 82.384 85.3996 80.752 86.2636 79.192L85.5316 77.884C84.7996 79.42 83.2996 81.22 81.3676 82.408C80.2156 83.116 78.6556 83.788 76.6516 84.088ZM90.531 75.652L89.8469 76.684C90.591 77.104 91.8749 77.956 92.4869 78.4L93.195 77.368C92.631 76.96 91.275 76.072 90.531 75.652ZM88.5509 84.208L89.2589 85.444C90.3509 85.24 92.031 84.664 93.243 83.956C95.187 82.828 96.855 81.292 97.935 79.66L97.203 78.388C96.231 80.092 94.611 81.7 92.607 82.84C91.3469 83.536 89.8829 83.98 88.5509 84.208ZM88.7069 78.376L88.0229 79.408C88.7909 79.816 90.063 80.632 90.699 81.088L91.395 80.02C90.831 79.624 89.4629 78.772 88.7069 78.376ZM99.7669 78.328V79.492C100.019 79.48 100.739 79.456 101.111 79.456H105.347V81.208H101.231C100.811 81.208 100.331 81.184 100.055 81.172V82.312C100.319 82.288 100.811 82.288 101.243 82.288H105.347V84.184H100.643C100.223 84.184 99.8389 84.16 99.6349 84.136V85.324C99.8389 85.312 100.283 85.288 100.643 85.288H105.347C105.347 85.48 105.347 85.66 105.335 85.768H106.535C106.523 85.576 106.511 85.24 106.511 85.048V79.06C106.511 78.82 106.511 78.508 106.523 78.364C106.355 78.364 105.983 78.376 105.707 78.376H101.111C100.739 78.376 100.043 78.364 99.7669 78.328ZM112.819 77.992L111.691 78.364C111.967 78.94 112.507 80.44 112.651 81.004L113.779 80.596C113.623 80.068 113.035 78.496 112.819 77.992ZM117.199 78.76L115.879 78.34C115.711 79.852 115.111 81.412 114.283 82.444C113.287 83.68 111.703 84.592 110.347 84.976L111.343 85.996C112.699 85.48 114.187 84.508 115.291 83.092C116.131 82.024 116.647 80.752 116.971 79.468C117.019 79.276 117.091 79.06 117.199 78.76ZM110.023 78.616L108.895 79.024C109.159 79.492 109.783 81.124 109.987 81.76L111.127 81.34C110.899 80.68 110.299 79.168 110.023 78.616ZM127.218 76.3C127.218 75.892 127.554 75.544 127.962 75.544C128.37 75.544 128.718 75.892 128.718 76.3C128.718 76.708 128.37 77.044 127.962 77.044C127.554 77.044 127.218 76.708 127.218 76.3ZM126.582 76.3C126.582 76.408 126.594 76.516 126.618 76.624C126.426 76.648 126.246 76.648 126.102 76.648H120.282C119.886 76.648 119.322 76.6 118.986 76.564V77.908C119.298 77.884 119.778 77.86 120.282 77.86H126.186C126.018 78.952 125.502 80.488 124.686 81.544C123.69 82.792 122.334 83.824 119.994 84.4L121.026 85.528C123.198 84.844 124.698 83.692 125.79 82.276C126.762 80.992 127.314 79.096 127.59 77.872C127.602 77.8 127.626 77.716 127.638 77.644C127.746 77.668 127.854 77.68 127.962 77.68C128.73 77.68 129.354 77.068 129.354 76.3C129.354 75.544 128.73 74.92 127.962 74.92C127.194 74.92 126.582 75.544 126.582 76.3ZM130.39 76.96L130.51 78.268C131.854 77.98 134.65 77.692 135.862 77.572C134.89 78.208 133.822 79.66 133.822 81.472C133.822 84.112 136.282 85.372 138.634 85.492L139.066 84.208C137.086 84.124 135.046 83.392 135.046 81.208C135.046 79.792 136.102 78.076 137.698 77.596C138.322 77.44 139.366 77.428 140.038 77.428V76.216C139.21 76.24 138.01 76.312 136.726 76.42C134.518 76.612 132.382 76.816 131.506 76.9C131.266 76.924 130.846 76.948 130.39 76.96ZM138.31 78.76L137.59 79.072C137.95 79.588 138.262 80.14 138.55 80.752L139.294 80.416C139.042 79.912 138.598 79.18 138.31 78.76ZM139.642 78.244L138.922 78.568C139.306 79.084 139.618 79.612 139.93 80.224L140.662 79.876C140.398 79.372 139.93 78.652 139.642 78.244ZM69.8403 95.576V96.812C70.8003 96.896 71.8323 96.944 73.0563 96.944C74.1843 96.944 75.5643 96.872 76.3923 96.8V95.552C75.5043 95.648 74.2203 95.72 73.0563 95.72C71.8203 95.72 70.7163 95.672 69.8403 95.576ZM70.5483 100.52L69.3123 100.4C69.2043 100.868 69.0723 101.444 69.0723 102.092C69.0723 103.664 70.4643 104.528 73.0443 104.528C74.7363 104.528 76.2243 104.348 77.1603 104.108L77.1483 102.788C76.1763 103.076 74.6403 103.256 73.0083 103.256C71.1603 103.256 70.3203 102.668 70.3203 101.816C70.3203 101.384 70.4163 100.976 70.5483 100.52ZM76.7163 94.28L75.9363 94.604C76.2723 95.06 76.6563 95.78 76.8963 96.272L77.6883 95.924C77.4483 95.456 77.0163 94.712 76.7163 94.28ZM78.0843 93.776L77.3163 94.1C77.6523 94.544 78.0363 95.24 78.3003 95.756L79.0803 95.408C78.8523 94.976 78.3963 94.22 78.0843 93.776ZM83.2157 95.252C82.7237 94.82 81.7277 94.292 80.9357 94.004L80.3357 94.82C81.1277 95.168 82.0877 95.732 82.5557 96.152L83.2157 95.252ZM82.4957 98.324C81.9797 97.94 80.9597 97.472 80.1677 97.208L79.5917 98.06C80.3957 98.36 81.4037 98.888 81.8957 99.272L82.4957 98.324ZM82.3277 100.244C81.6317 101.612 80.7197 103.136 80.0717 104.048L81.0197 104.792C81.7277 103.664 82.5197 102.236 83.1437 100.988L82.3277 100.244ZM87.3677 103.508V100.928H89.9717V99.86H87.3677V97.568H90.4037V96.512H87.5717L88.2197 95.732C87.6197 95.144 86.3957 94.376 85.4237 93.908L84.7037 94.76C85.5917 95.228 86.6597 95.936 87.2597 96.512H83.3117V97.568H86.2157V99.86H83.7437V100.928H86.2157V103.508H82.9037V104.576H90.6677V103.508H87.3677ZM100.064 96.98C99.4997 98.516 98.7317 99.788 97.7237 100.82C96.6797 99.752 95.8877 98.456 95.3357 96.98H100.064ZM103.16 96.98V95.9H98.2997V93.932H97.1597V95.9H92.3717V96.98H94.1117C94.7717 98.816 95.6477 100.376 96.8117 101.648C95.5757 102.644 94.0397 103.376 92.1917 103.88C92.4197 104.156 92.7797 104.684 92.8997 104.972C94.7837 104.372 96.3557 103.568 97.6637 102.476C98.9597 103.604 100.544 104.432 102.512 104.948C102.692 104.624 103.052 104.108 103.316 103.844C101.432 103.412 99.8597 102.656 98.5997 101.612C99.7757 100.388 100.688 98.864 101.372 96.98H103.16Z" fill="#555555"/>
<path d="M208.546 77.02L207.622 76.42C207.358 76.492 207.058 76.504 206.854 76.504H201.034C200.638 76.504 200.074 76.456 199.738 76.408V77.752C200.038 77.728 200.518 77.704 201.034 77.704H206.926C206.77 78.808 206.254 80.344 205.426 81.388C204.442 82.648 203.086 83.668 200.734 84.244L201.766 85.372C203.95 84.688 205.45 83.548 206.542 82.12C207.514 80.848 208.066 78.94 208.33 77.716C208.39 77.476 208.45 77.212 208.546 77.02ZM219.026 78.976L218.33 78.34C218.162 78.376 217.754 78.4 217.538 78.4H211.766C211.382 78.4 210.938 78.364 210.578 78.316V79.552C210.986 79.516 211.382 79.504 211.766 79.504H217.262C216.95 80.056 216.122 81.028 215.342 81.52L216.314 82.18C217.298 81.484 218.354 79.972 218.726 79.36C218.798 79.264 218.93 79.072 219.026 78.976ZM214.958 80.212H213.638C213.686 80.464 213.722 80.728 213.722 80.992C213.722 82.54 213.482 83.74 211.982 84.76C211.658 84.976 211.37 85.108 211.082 85.216L212.114 86.044C214.778 84.58 214.91 82.636 214.958 80.212ZM222.507 75.772L222.063 76.9C223.743 77.116 226.995 77.836 228.423 78.364L228.915 77.188C227.403 76.66 224.079 75.976 222.507 75.772ZM221.967 78.976L221.523 80.116C223.263 80.38 226.251 81.064 227.643 81.592L228.111 80.428C226.611 79.888 223.635 79.252 221.967 78.976ZM221.331 82.444L220.851 83.62C222.783 83.908 226.455 84.724 228.051 85.408L228.579 84.232C226.935 83.596 223.359 82.756 221.331 82.444ZM239.01 75.808H237.582C237.618 76.12 237.654 76.48 237.654 76.912V78.976C237.654 81.076 237.498 82.012 236.658 82.972C235.914 83.788 234.918 84.244 233.778 84.532L234.774 85.576C235.65 85.288 236.862 84.736 237.642 83.824C238.53 82.816 238.962 81.796 238.962 79.048V76.912C238.962 76.48 238.986 76.12 239.01 75.808ZM233.442 75.904H232.062C232.098 76.156 232.11 76.576 232.11 76.792V80.812C232.11 81.16 232.074 81.58 232.062 81.784H233.442C233.418 81.544 233.394 81.124 233.394 80.812V76.792C233.394 76.456 233.418 76.156 233.442 75.904ZM251.723 76.888L250.967 76.18C250.775 76.228 250.235 76.264 249.971 76.264H243.263C242.783 76.264 242.291 76.216 241.847 76.156V77.488C242.363 77.452 242.783 77.416 243.263 77.416H249.839C249.491 78.1 248.447 79.288 247.391 79.9L248.387 80.704C249.671 79.792 250.811 78.268 251.327 77.392C251.423 77.248 251.615 77.02 251.723 76.888ZM246.875 78.484H245.507C245.567 78.832 245.579 79.12 245.579 79.444C245.579 81.436 245.303 82.948 243.587 84.052C243.203 84.328 242.783 84.52 242.435 84.64L243.539 85.54C246.695 83.92 246.875 81.616 246.875 78.484ZM255.659 75.652L254.975 76.684C255.719 77.104 257.003 77.956 257.615 78.4L258.323 77.368C257.759 76.96 256.403 76.072 255.659 75.652ZM253.679 84.208L254.387 85.444C255.479 85.24 257.159 84.664 258.371 83.956C260.315 82.828 261.983 81.292 263.063 79.66L262.331 78.388C261.359 80.092 259.739 81.7 257.735 82.84C256.475 83.536 255.011 83.98 253.679 84.208ZM253.835 78.376L253.151 79.408C253.919 79.816 255.191 80.632 255.827 81.088L256.523 80.02C255.959 79.624 254.591 78.772 253.835 78.376ZM264.895 78.328V79.492C265.147 79.48 265.867 79.456 266.239 79.456H270.475V81.208H266.359C265.939 81.208 265.459 81.184 265.183 81.172V82.312C265.447 82.288 265.939 82.288 266.371 82.288H270.475V84.184H265.771C265.351 84.184 264.967 84.16 264.763 84.136V85.324C264.967 85.312 265.411 85.288 265.771 85.288H270.475C270.475 85.48 270.475 85.66 270.463 85.768H271.663C271.651 85.576 271.639 85.24 271.639 85.048V79.06C271.639 78.82 271.639 78.508 271.651 78.364C271.483 78.364 271.111 78.376 270.835 78.376H266.239C265.867 78.376 265.171 78.364 264.895 78.328ZM277.948 77.992L276.82 78.364C277.096 78.94 277.636 80.44 277.78 81.004L278.908 80.596C278.752 80.068 278.164 78.496 277.948 77.992ZM282.328 78.76L281.008 78.34C280.84 79.852 280.24 81.412 279.412 82.444C278.416 83.68 276.832 84.592 275.476 84.976L276.472 85.996C277.828 85.48 279.316 84.508 280.42 83.092C281.26 82.024 281.776 80.752 282.1 79.468C282.148 79.276 282.22 79.06 282.328 78.76ZM275.152 78.616L274.024 79.024C274.288 79.492 274.912 81.124 275.116 81.76L276.256 81.34C276.028 80.68 275.428 79.168 275.152 78.616ZM292.346 76.3C292.346 75.892 292.682 75.544 293.09 75.544C293.498 75.544 293.846 75.892 293.846 76.3C293.846 76.708 293.498 77.044 293.09 77.044C292.682 77.044 292.346 76.708 292.346 76.3ZM291.71 76.3C291.71 76.408 291.722 76.516 291.746 76.624C291.554 76.648 291.374 76.648 291.23 76.648H285.41C285.014 76.648 284.45 76.6 284.114 76.564V77.908C284.426 77.884 284.906 77.86 285.41 77.86H291.314C291.146 78.952 290.63 80.488 289.814 81.544C288.818 82.792 287.462 83.824 285.122 84.4L286.154 85.528C288.326 84.844 289.826 83.692 290.918 82.276C291.89 80.992 292.442 79.096 292.718 77.872C292.73 77.8 292.754 77.716 292.766 77.644C292.874 77.668 292.982 77.68 293.09 77.68C293.858 77.68 294.482 77.068 294.482 76.3C294.482 75.544 293.858 74.92 293.09 74.92C292.322 74.92 291.71 75.544 291.71 76.3ZM295.518 76.96L295.638 78.268C296.982 77.98 299.778 77.692 300.99 77.572C300.018 78.208 298.951 79.66 298.951 81.472C298.951 84.112 301.411 85.372 303.763 85.492L304.195 84.208C302.214 84.124 300.175 83.392 300.175 81.208C300.175 79.792 301.23 78.076 302.826 77.596C303.451 77.44 304.494 77.428 305.167 77.428V76.216C304.339 76.24 303.139 76.312 301.855 76.42C299.647 76.612 297.51 76.816 296.634 76.9C296.394 76.924 295.974 76.948 295.518 76.96ZM303.438 78.76L302.718 79.072C303.079 79.588 303.39 80.14 303.679 80.752L304.423 80.416C304.171 79.912 303.727 79.18 303.438 78.76ZM304.77 78.244L304.05 78.568C304.434 79.084 304.747 79.612 305.059 80.224L305.791 79.876C305.527 79.372 305.059 78.652 304.77 78.244ZM316.518 74.872C314.43 75.316 310.806 75.616 307.722 75.736C307.83 75.976 307.95 76.408 307.962 76.684C311.082 76.576 314.778 76.288 317.298 75.784L316.518 74.872ZM308.646 79.336H316.77V80.836H317.862V78.352H315.978C316.314 77.872 316.662 77.272 316.974 76.732L315.81 76.42C315.582 77.008 315.198 77.788 314.85 78.352H312.462L313.47 78.1C313.398 77.656 313.134 76.972 312.87 76.444L311.874 76.66C312.126 77.2 312.354 77.908 312.414 78.352H309.822L310.47 78.148C310.338 77.74 310.026 77.104 309.702 76.648L308.73 76.924C308.994 77.356 309.27 77.932 309.414 78.352H307.602V80.836H308.646V79.336ZM314.742 81.52C314.238 82.24 313.566 82.816 312.75 83.284C311.886 82.804 311.178 82.216 310.65 81.52H314.742ZM315.666 80.452L315.462 80.488H309.162V81.52H309.678L309.462 81.616C310.038 82.48 310.77 83.224 311.646 83.824C310.386 84.352 308.922 84.688 307.338 84.88C307.578 85.12 307.878 85.6 307.986 85.888C309.69 85.612 311.322 85.18 312.726 84.484C314.058 85.168 315.63 85.624 317.406 85.876C317.562 85.552 317.85 85.072 318.09 84.82C316.506 84.652 315.09 84.316 313.866 83.824C314.946 83.08 315.846 82.132 316.422 80.908L315.666 80.452ZM325.014 76.684H325.506V77.608H329.31C329.058 79.18 328.614 80.56 328.014 81.7C327.414 80.512 326.994 79.132 326.718 77.644L325.638 77.86C326.022 79.744 326.562 81.412 327.342 82.792C326.682 83.704 325.902 84.412 325.014 84.88V76.684ZM321.882 83.128V81.544H323.934V82.84L321.882 83.128ZM323.934 76.684V78.076H321.882V76.684H323.934ZM321.882 79.072H323.934V80.536H321.882V79.072ZM329.814 76.48L329.622 76.516H325.818V75.652H319.938V76.684H320.814V83.272C320.394 83.32 320.022 83.38 319.686 83.416L319.89 84.532C321.006 84.352 322.482 84.112 323.934 83.872V85.924H325.014V84.94C325.254 85.156 325.554 85.54 325.71 85.804C326.574 85.288 327.354 84.64 328.002 83.812C328.626 84.64 329.37 85.312 330.258 85.828C330.414 85.552 330.774 85.132 331.026 84.916C330.09 84.424 329.322 83.704 328.698 82.816C329.622 81.268 330.258 79.252 330.534 76.672L329.814 76.48Z" fill="#555555"/>
<path d="M174.943 28.5C174.115 28.5 173.443 29.1716 173.443 30C173.443 30.8284 174.115 31.5 174.943 31.5V28.5ZM201.006 31.0607C201.592 30.4749 201.592 29.5251 201.006 28.9393L191.46 19.3934C190.875 18.8076 189.925 18.8076 189.339 19.3934C188.753 19.9792 188.753 20.9289 189.339 21.5147L197.824 30L189.339 38.4853C188.753 39.0711 188.753 40.0208 189.339 40.6066C189.925 41.1924 190.875 41.1924 191.46 40.6066L201.006 31.0607ZM174.943 31.5L199.946 31.5V28.5L174.943 28.5V31.5Z" fill="#518FCC"/>
</svg>
