<svg width="41" height="66" viewBox="0 0 41 66" fill="none" xmlns="http://www.w3.org/2000/svg">
<g clip-path="url(#clip0_5997_96909)">
<path d="M9.12833 34.05C9.12833 34.05 7.15088 36.468 6.17746 37.8515C5.05099 39.4542 4.12654 40.8007 2.89599 41.7302C1.87053 42.5053 1.51239 43.2805 1.51239 43.2805C0.434891 45.9702 3.2572 47.573 3.2572 47.573C5.51321 48.8669 8.99977 47.6255 8.99977 47.6255L9.10078 47.9745C5.87135 49.0615 5.15506 52.023 5.15506 52.023C1.82156 51.2479 0.385914 53.7802 0.385914 53.7802C-1.30686 57.3995 3.15312 61.7445 3.15312 61.7445C8.08757 66.8431 11.4088 65.4688 11.4088 65.4688C13.7689 64.9037 18.0728 60.6235 18.0728 60.6235C18.8411 61.6581 20.3931 62.4826 20.3931 62.4826C19.9309 64.7061 21.6114 65.6263 21.6114 65.6263C25.4041 67.2291 29.8151 63.1435 29.8151 63.1435C33.6598 60.4537 32.7874 56.9363 32.7874 56.9363C32.5823 54.9722 30.2252 52.1774 30.2252 52.1774L30.8926 52.4368C32.1231 52.6962 32.5333 51.4548 32.5333 51.4548C35.1903 51.4641 34.6362 49.7471 34.6362 49.7471C36.4668 48.379 35.3036 46.9554 35.3036 46.9554C35.4566 46.4891 34.8934 45.7139 34.8934 45.7139C39.1483 45.7664 40.8196 43.1724 40.9941 41.267C41.1747 39.3122 38.9126 38.4815 38.9126 38.4815C36.8096 37.7588 32.4292 34.3372 30.9446 33.0432C29.4569 31.7493 26.9958 30.6654 26.9958 30.6654C28.9947 29.7358 29.763 28.4419 29.763 28.4419C30.7885 28.0281 31.1466 26.5272 31.1466 26.5272C32.7353 25.5977 32.2731 23.9919 32.2731 23.9919C33.2986 23.0623 32.8884 21.9228 32.8884 21.9228C33.1455 21.6634 33.0935 21.0427 33.0935 21.0427C33.7087 21.0427 34.5811 20.1626 34.5811 20.1626C36.479 19.9556 36.7851 18.5073 36.7851 18.5073C38.0157 17.8866 37.7585 16.5432 37.7585 16.5432L38.0677 16.6451C38.9891 15.5087 38.3248 13.9554 38.3248 13.9554L38.7871 13.801C38.8881 12.6645 38.0708 11.2162 38.0708 11.2162L38.4289 10.8024C38.2759 9.30152 36.8402 8.7858 36.8402 8.7858C36.9933 8.52639 36.9412 8.21758 36.9412 8.21758C36.378 6.92364 34.3271 6.82173 34.3271 6.82173C34.3791 6.61483 34.275 6.35542 34.275 6.35542C32.4812 5.32089 30.8926 6.09602 30.8926 6.09602C29.561 5.37339 28.1743 6.76923 28.1743 6.76923C27.507 6.50983 26.8917 7.13055 26.8917 7.13055C26.4295 6.56233 25.251 6.45733 25.251 6.45733C24.5837 6.19793 23.8674 6.25042 23.8674 6.25042L23.5092 6.19793C23.5092 6.19793 23.6623 4.69708 22.5358 4.07637C22.5358 4.07637 22.5358 1.28467 20.69 1.43908C20.69 1.43908 19.9217 -0.216167 17.4085 0.50646C17.4085 0.50646 16.3831 -0.321164 14.6413 0.145147C14.6413 0.145147 14.1791 0.352053 14.026 0.611458C14.026 0.611458 11.9231 1.07777 11.8221 2.47361C11.8221 2.47361 10.3344 3.04183 10.4385 4.69708C10.4385 4.69708 9.77116 5.73161 10.2854 7.17996C10.2854 7.17996 8.69672 7.59377 8.02941 9.71533C8.02941 9.71533 6.03053 9.66283 5.97849 12.8714C5.97849 12.8714 4.23674 13.906 5.00507 16.4907C5.00507 16.4907 4.33776 18.041 5.15812 19.9031C5.15812 19.9031 4.59489 21.1446 5.41525 22.6454C5.41525 22.6454 5.82544 23.3186 6.23562 23.68C6.23562 23.68 4.91018 26.2339 6.90906 28.9236C6.90906 28.9236 7.90084 30.1064 9.34567 30.4708C9.34567 30.4708 8.83447 30.897 8.84978 31.7493C8.86202 32.3175 8.95385 32.4225 8.84978 32.7313C8.68448 33.2316 8.9814 33.7937 9.13446 34.05H9.12833Z" fill="white"/>
<path d="M3.49906 42.0143C5.39692 40.4702 8.92328 35.0258 10.8854 32.8579C12.8476 30.6901 15.474 29.8686 17.1637 32.2156C18.9697 34.7232 17.4361 38.4846 15.2352 41.5789C13.5088 44.0062 11.8435 45.5008 10.3344 46.2883C6.80501 48.135 3.34906 47.0388 2.44299 45.7263C1.53691 44.4138 1.53385 43.6109 3.50212 42.0112L3.49906 42.0143Z" fill="white"/>
<path d="M2.26528 45.9116C3.17136 47.224 5.95693 48.6909 10.4353 46.4767C11.9628 45.7201 13.5025 44.0123 15.2289 41.5851C17.4298 38.4907 19.0706 35.9368 17.2645 33.4262C15.5748 31.0792 12.8443 30.6932 10.8822 32.861C8.92005 35.0289 5.3937 40.4733 3.49583 42.0174C1.53062 43.6171 1.3592 44.5991 2.26528 45.9146V45.9116ZM5.55287 41.2083C6.78342 39.7785 8.76087 36.6409 11.0781 33.8739C12.3638 32.336 15.1555 31.1039 16.2238 32.6325C17.7941 34.8838 16.6401 38.6204 14.6841 41.3658C13.1505 43.5213 12.0944 44.3459 10.821 45.1673C7.29768 47.4371 4.42028 46.5693 3.52032 45.507C2.11835 43.8518 4.08356 42.9161 5.55287 41.2083Z" fill="#518FCC"/>
<path d="M29.7293 45.3125L29.7476 45.9023C29.3926 46.1246 28.5385 45.4514 27.6477 46.5446C27.5559 46.6558 27.0723 45.9919 27.0723 45.9919C27.8314 44.8585 29.4905 45.2353 29.7293 45.3125V45.3125Z" fill="#518FCC"/>
<path d="M29.9068 50.5839C29.9068 50.5839 29.1874 51.5567 29.0895 51.427C28.9272 51.2108 28.0916 50.8866 28.0977 49.3456C28.0977 49.2004 28.8844 48.6878 28.8844 48.6878C28.817 49.7069 29.567 50.6333 29.9068 50.5839V50.5839Z" fill="#518FCC"/>
<path d="M33.9537 49.5988C33.9537 49.5988 34.2873 50.1485 34.2383 50.3029C34.1128 50.7106 33.2435 51.4147 31.9089 50.655C31.7834 50.5839 32.0068 49.9015 32.0068 49.9015C32.2762 49.8953 32.87 50.2134 33.9506 49.5988H33.9537Z" fill="#518FCC"/>
<path d="M34.5322 47.5545C34.5322 47.5545 35.0342 47.5267 35.0985 47.678C35.4108 48.4006 34.4955 49.4629 33.5435 49.6019C33.3996 49.6235 32.9099 48.9596 33.0752 48.9071C33.617 48.7341 34.4863 47.925 34.5322 47.5545Z" fill="#518FCC"/>
<path d="M33.2954 45.7726C33.2954 45.7726 33.6321 45.3773 33.7699 45.4669C34.9453 46.2389 34.7188 47.187 34.2046 47.6965C34.1005 47.7984 33.6597 47.7521 33.6566 47.5761C33.6413 46.9584 33.6291 46.1802 33.2954 45.7695V45.7726Z" fill="#518FCC"/>
<path d="M33.1854 46.0258C33.1854 46.0258 32.9221 46.384 32.6528 46.1802C32.0314 45.7108 31.5753 45.4792 30.8957 44.9759C30.7794 44.8894 31.2722 44.4509 31.2722 44.4509C32.1416 44.8307 32.7813 44.6022 33.1854 46.0289V46.0258Z" fill="#518FCC"/>
<path d="M31.0243 45.2291C31.1314 45.4792 31.0488 45.6491 30.8835 45.788C30.8835 45.788 30.1457 45.7448 29.004 46.0783C28.8662 46.1185 28.707 45.2538 28.707 45.2538C29.0897 44.7535 30.2437 44.5991 31.0273 45.2291H31.0243Z" fill="#518FCC"/>
<path d="M32.1599 50.8341C32.1599 50.8341 32.0527 51.5629 31.9241 51.6648C31.6854 51.8563 30.6967 52.1435 29.9069 51.1306C29.8181 51.0163 30.2559 50.1763 30.2559 50.1763C30.6416 50.621 31.9517 50.9731 32.1599 50.8341Z" fill="#518FCC"/>
<path d="M16.187 54.089C16.2023 55.4262 16.2452 56.5904 17.0931 58.2642C17.941 59.938 21.0939 62.217 21.0939 62.217C21.0939 62.217 20.6256 63.8105 21.6816 64.9222C22.5051 65.79 25.3029 65.5553 27.7701 63.8507C32.7229 60.4321 32.3556 58.4062 31.7924 56.3989C31.5689 55.6084 30.3567 53.4868 29.5149 52.4276C27.0599 49.3394 24.458 48.7527 24.458 48.7527" fill="white"/>
<path d="M16.1871 54.089C16.2024 55.4262 16.5208 55.911 17.1728 57.6682C18.5534 61.3894 21.091 62.217 21.091 62.217C21.091 62.217 20.6226 63.8105 21.6787 64.9222C22.5021 65.79 25.3 65.5553 27.7672 63.8507C32.72 60.4321 32.3527 58.4062 31.7894 56.3989C31.566 55.6084 30.3538 53.4868 29.512 52.4276C27.057 49.3394 24.4551 48.7527 24.4551 48.7527L24.6877 49.5401C24.6877 49.5401 26.5397 50.13 28.7528 52.9742C29.512 53.95 30.4426 55.9882 30.6048 56.7232C31.1344 59.1165 30.1671 60.4321 28.0549 62.0533C25.8816 63.724 23.9225 64.8358 22.6582 64.0112C22.0185 63.5943 21.8991 63.0014 21.9236 62.4301C21.9267 62.3436 22.4562 62.4795 22.4562 62.4795C22.4593 62.3961 22.594 62.1028 22.6062 62.0348C22.646 61.8186 21.7828 61.4481 21.7828 61.4481C21.7828 61.4481 19.6951 60.1387 18.838 57.906C18.2228 56.3001 17.1912 55.7195 17.182 54.4843L16.1841 54.0859L16.1871 54.089Z" fill="#518FCC"/>
<path d="M28.6487 44.4262C27.3936 43.4688 25.107 30.514 24.4826 30.7395C20.7419 32.0921 15.2136 32.299 14.4361 31.4467C10.8883 34.1889 7.2671 43.3762 10.7322 50.4512C13.2944 55.6825 20.2828 59.8886 27.2283 54.0489C29.8027 51.8841 31.7557 46.7979 28.6487 44.4231V44.4262Z" fill="white"/>
<path d="M14.4332 31.4467C10.8854 34.1889 7.26417 43.3762 10.7293 50.4511C13.2914 55.6825 20.7329 59.9133 27.6785 54.0736C30.2528 51.9088 32.2793 47.2055 28.5937 43.9351C27.4121 42.8852 25.1072 30.514 24.4827 30.7395L23.9991 31.8358C24.5562 31.6165 27.1213 43.5213 27.556 44.0494C30.7242 47.8849 28.2386 52.0879 26.5428 53.4497C19.1411 59.3821 15.275 54.1075 11.9201 49.6946C8.46411 45.1488 11.8497 34.9394 15.0148 32.2835L14.4363 31.4467H14.4332Z" fill="#518FCC"/>
<path d="M20.6807 37.6878C19.0216 35.8874 18.4308 35.0814 17.9625 34.541C19.2634 34.7695 19.9614 34.7232 19.9614 34.7232C19.9614 34.7232 20.2399 33.6887 20.3256 33.3768C20.5185 32.6881 20.6777 31.7894 20.4726 31.74C18.691 31.3108 16.9248 31.5331 16.0156 31.8574C15.6208 31.808 14.6412 31.8666 14.0902 31.9716C14.0902 31.9593 14.0841 31.95 14.078 31.9469C12.4464 31.1286 10.3251 30.5789 10.0802 30.6283C9.49862 30.7426 9.68535 32.4719 9.60882 32.7869C9.43434 33.4787 9.60882 33.9944 10.0894 34.1982C10.4261 34.3403 11.1087 34.2878 11.822 34.1797C11.3995 34.5472 10.6067 35.4983 9.98227 36.1993C9.31496 36.9497 8.45173 38.395 8.37215 38.7069C8.19767 39.3987 10.6557 41.863 10.7231 41.6623C11.9199 38.08 13.074 34.7757 13.677 33.8276C13.7168 33.8184 13.7596 33.8122 13.7964 33.806C13.8423 33.8492 13.8882 33.877 13.9402 33.8894C14.6504 34.0253 15.1371 34.1179 15.434 33.911L15.4493 33.9172C15.5014 34.7355 16.0095 36.5421 16.585 37.4068C17.1421 38.2437 17.889 40.1707 18.9941 41.0323C18.9941 41.0323 20.8277 37.8453 20.6838 37.6909L20.6807 37.6878Z" fill="white"/>
<path d="M17.1453 34.7325C17.1453 34.7325 16.328 34.5101 15.5015 34.1673C15.1862 34.2661 15.6178 36.7521 16.1871 37.9658C16.9463 39.5809 17.8891 40.1676 18.9911 41.0323C18.9911 41.0323 21.3053 38.2468 21.1247 38.1387C19.4196 37.1474 17.7207 35.5508 17.1453 34.7355V34.7325Z" fill="#518FCC"/>
<path d="M16.325 32.58C16.3128 32.6232 16.325 32.58 16.1873 32.8579C17.173 32.546 18.0852 32.5924 18.2015 32.6541C18.3515 32.7344 18.1096 32.9938 18.0943 33.0834C18.0699 33.2223 16.1506 32.9876 16.1383 33.1173C16.1108 33.4262 15.6271 33.8894 15.7649 33.9326C18.7372 34.8869 19.9647 34.717 19.9647 34.717C19.9647 34.717 20.2432 33.6825 20.3289 33.3706C20.5218 32.6819 20.6932 32.0303 20.4912 31.9716C19.3892 31.6412 18.9208 31.774 18.2413 32.0674C17.2495 32.4935 16.3679 32.4287 16.3312 32.58H16.325Z" fill="#518FCC"/>
<path d="M13.5025 34.1457C12.8229 34.2723 11.7975 34.5842 11.522 34.5317C11.2159 34.6553 10.7292 35.3563 9.97921 36.1962C9.3119 36.9467 8.45173 37.9441 8.37215 38.2591C8.19767 38.9509 10.6557 41.4152 10.723 41.2145C12.0454 37.2524 12.9699 34.7325 13.5025 34.1426V34.1457Z" fill="#518FCC"/>
<path d="M13.475 33.769C13.6158 33.7473 13.1933 33.1668 13.2148 32.9352C13.227 32.8054 12.1311 32.756 11.9842 32.7653C11.7148 32.7807 11.7363 32.3947 11.7975 32.333C11.9475 32.1755 12.5383 32.3299 13.1933 32.6449C13.1933 32.6449 13.2025 32.4441 13.2637 32.16C12.1832 31.8389 11.8465 31.6721 11.3781 31.3077C11.0047 31.0174 10.6067 30.6098 10.6067 30.6098C10.4506 30.6098 10.2792 30.6098 10.0863 30.6252C9.49556 30.6684 9.69147 32.4688 9.61494 32.7838C9.44046 33.4756 9.61494 33.9913 10.0955 34.1951C10.8394 34.507 12.7832 33.8739 13.4811 33.769H13.475Z" fill="#518FCC"/>
<path d="M13.5513 32.2959C13.2758 32.4966 13.4778 33.7967 13.94 33.8863C14.8002 34.0531 15.3328 34.1519 15.5961 33.7381C15.7002 33.5744 15.7185 33.2748 16.0185 32.5862C14.0411 32.5955 14.1604 32.3515 13.5513 32.299V32.2959Z" fill="#518FCC"/>
<path d="M5.56201 20.6134C5.56201 20.0915 6.20178 20.2027 6.32116 20.2799C6.47727 20.3787 6.25075 21.4843 7.66191 23.4576C7.77823 23.6213 7.45681 23.9147 7.27315 23.7973C6.62114 23.3804 5.56201 22.2007 5.56201 20.6134Z" fill="#518FCC"/>
<path d="M7.1387 23.5379C7.1387 23.5379 7.54276 23.3804 7.66214 23.4576C7.81825 23.5564 7.10502 24.8164 7.76315 27.0028C8.10293 28.1269 9.29063 29.4054 10.5151 29.7698C10.7201 29.8316 10.4936 30.1712 10.3742 30.1465C8.37843 29.7513 6.76831 28.5376 6.42853 26.3605C6.1714 24.7237 6.92136 24.0444 7.13563 23.541L7.1387 23.5379Z" fill="#518FCC"/>
<path d="M19.1474 31.3942C19.1474 31.3942 19.1138 30.8445 19.2332 30.9217C19.3893 31.0205 22.5544 30.934 24.2166 30.3874C25.8512 29.8501 27.6083 28.55 28.1286 27.9941C28.2756 27.8397 28.9184 28.3987 28.851 28.5036C28.4868 29.075 25.8298 31.144 23.9992 31.5022C22.383 31.8172 20.3933 31.8389 19.1474 31.3972V31.3942Z" fill="#518FCC"/>
<path d="M10.7446 30.3627C10.7446 30.3627 11.1303 30.0446 11.2497 30.1187C11.4058 30.2176 14.776 32.5769 19.3493 30.6252C19.5452 30.5418 19.7778 31.107 19.6707 31.1656C13.9526 34.1642 10.4722 30.2485 10.7477 30.3627H10.7446Z" fill="#518FCC"/>
<path d="M5.45809 17.1392C5.50401 17.0312 6.35805 17.2844 6.47743 17.3585C6.63354 17.4573 6.31519 19.4986 6.84169 20.4467C6.93965 20.6227 6.32437 20.6721 6.16826 20.5208C5.90807 20.2675 5.15504 17.8526 5.46115 17.1362L5.45809 17.1392Z" fill="#518FCC"/>
<path d="M29.95 26.0517C30.0877 25.9498 30.605 26.3852 30.5377 26.5087C29.6163 28.1794 28.4164 27.9632 28.049 27.8582C28.049 27.8582 27.7919 27.3641 27.9786 27.253C28.3184 27.0553 29.0959 26.6909 29.95 26.0486V26.0517Z" fill="#518FCC"/>
<path d="M6.12857 13.5292C6.12857 13.5292 7.10199 13.8411 7.01322 13.9523C6.40712 14.715 6.33672 16.3888 6.58161 17.0065C6.6367 17.1485 6.03061 17.0775 5.89593 16.8829C5.04189 15.8546 5.39085 14.048 6.12857 13.5292Z" fill="#518FCC"/>
<path d="M7.79365 10.2094C7.79365 10.2094 8.51606 10.3206 8.37832 10.5831C8.27118 10.79 7.75386 11.7566 7.34367 13.628C7.28551 13.8905 6.63044 13.5014 6.69167 13.3408C6.20496 12.4947 6.84778 10.5244 7.79059 10.2125L7.79365 10.2094Z" fill="#518FCC"/>
<path d="M31.4131 22.2532C31.612 22.1019 32.4202 22.3428 32.411 22.4169C32.2273 23.9517 30.8315 24.1524 30.4396 24.1463C30.1886 24.1432 30.0142 23.7325 30.0142 23.7325C30.3601 23.6151 31.3518 22.7689 31.4131 22.2532V22.2532Z" fill="#518FCC"/>
<path d="M31.5659 19.9556C31.5659 19.9556 32.423 19.8383 32.4659 19.9742C32.7904 21.0365 31.9118 21.9969 31.0486 22.3737C30.9323 22.4231 30.3936 22.0154 30.3936 22.0154C30.5282 21.7838 31.4649 21.404 31.5659 19.9556Z" fill="#518FCC"/>
<path d="M31.0151 24.1555C31.159 24.0876 31.9395 24.4273 31.912 24.5477C31.8048 25.0171 30.9814 26.0918 29.5152 25.9745C29.3897 25.9652 29.1846 25.3939 29.1846 25.3939C29.4233 25.2302 30.1855 25.0418 31.012 24.1555H31.0151Z" fill="#518FCC"/>
<path d="M10.8363 7.70494C10.8363 7.70494 11.522 8.08478 11.1852 8.35345C10.1781 9.16255 9.38839 10.4256 9.1282 10.8209C8.9629 11.0741 8.5221 11.034 8.51904 10.8209C8.51904 10.5182 8.56496 8.34419 10.8363 7.70494V7.70494Z" fill="#518FCC"/>
<path d="M11.8313 8.71477C11.7211 8.88153 11.265 8.50786 11.4456 8.18978C11.8803 7.42701 11.9079 6.47277 14.0751 6.3585C14.2037 6.35233 14.3781 6.88658 14.2343 6.92981C12.6027 7.40848 11.6966 8.78888 11.8313 8.71477V8.71477Z" fill="#518FCC"/>
<path d="M12.174 6.89893C12.2474 7.01319 11.3413 7.93037 11.0995 7.55671C10.3067 6.33071 10.6587 5.41662 10.9495 4.95339C11.0842 4.73722 11.7515 5.04913 11.7025 5.22515C11.3291 6.61482 12.1801 7.00084 12.174 6.90202V6.89893Z" fill="#518FCC"/>
<path d="M12.1128 5.45059C12.2689 5.54632 11.4118 5.54941 11.271 5.35795C10.7353 4.62914 11.2006 3.28271 11.923 2.96154C12.0883 2.88743 12.624 3.10668 12.5383 3.22712C12.0179 3.94357 12.1128 5.4475 12.1128 5.4475V5.45059Z" fill="#518FCC"/>
<path d="M12.9946 3.13448C12.9855 3.17153 12.3396 2.81949 12.2998 2.62184C12.1559 1.91774 13.7262 0.88939 14.464 1.3032C14.5191 1.33408 15.1098 1.93319 14.8405 1.98877C13.6222 2.24509 13.0253 3.00786 12.9946 3.13448V3.13448Z" fill="#518FCC"/>
<path d="M14.6964 1.53481C14.4147 1.53481 14.6076 0.809095 14.6535 0.787478C16.1167 0.077203 17.4024 0.978944 17.4881 1.44834C17.5401 1.72319 17.3258 2.08141 17.283 2.06289C15.7004 1.37423 15.8626 1.52863 14.6994 1.53172L14.6964 1.53481Z" fill="#518FCC"/>
<path d="M17.9533 1.57496C17.8033 1.53172 17.5186 0.877034 17.6778 0.836888C18.4308 0.648511 20.1266 0.806006 20.5674 2.27906C20.6134 2.43037 19.9307 2.73301 19.8175 2.53228C19.291 1.57496 17.9563 1.57496 17.9533 1.57496V1.57496Z" fill="#518FCC"/>
<path d="M20.5613 2.12465C20.4389 1.99494 20.9838 1.86524 21.0327 1.88686C22.1929 2.41493 21.9786 3.99298 21.9143 4.25547C21.8439 4.53958 21.2654 4.5087 21.2776 4.26782C21.2929 3.95283 21.1889 2.78242 20.5644 2.12465H20.5613Z" fill="#518FCC"/>
<path d="M21.5747 4.61678C21.5349 4.51487 21.9144 4.29253 22.1563 4.43149C23.5643 5.2375 22.9521 7.15525 22.4593 7.02245C21.9542 6.88658 21.3818 7.65861 21.4155 7.62773C21.9328 7.08113 22.1501 6.0991 21.5747 4.61987V4.61678Z" fill="#518FCC"/>
<path d="M27.6878 7.32201C27.8928 7.17995 28.4438 7.68641 28.1959 7.89949C27.4918 8.51095 26.7633 9.31078 26.6592 9.7215C26.6041 9.94076 26.0501 9.23049 26.0562 9.18416C26.2858 7.80067 27.6847 7.32201 27.6878 7.32201V7.32201Z" fill="#518FCC"/>
<path d="M30.1611 6.40174C30.1886 6.4388 30.7335 6.82482 30.5774 6.91129C29.855 7.30657 28.7652 8.33492 28.6275 8.56654C28.5142 8.76109 28.0061 8.35654 28.0489 8.16508C28.2969 7.05334 29.004 6.46659 30.1611 6.40174V6.40174Z" fill="#518FCC"/>
<path d="M33.6657 6.79393C33.779 6.92672 33.528 7.43936 33.3137 7.40539C32.3464 7.24789 32.178 7.30657 30.6995 7.49186C30.4792 7.51965 30.3873 7.02554 30.4945 6.92364C31.572 5.92307 33.2402 6.29983 33.6688 6.79393H33.6657Z" fill="#518FCC"/>
<path d="M36.4115 8.51095C36.4054 8.55727 36.0503 9.06682 35.8452 8.98961C35.2085 8.74256 34.4249 8.32875 33.0749 8.24537C32.8515 8.23301 32.827 7.59376 32.8668 7.57215C33.9963 6.93599 36.5615 7.50112 36.4115 8.51095Z" fill="#518FCC"/>
<path d="M37.8873 10.8054C37.8995 10.8518 37.3455 11.1328 37.3455 11.1328L35.1323 9.50225L35.3864 9.0699C35.4384 8.99888 37.3547 8.8877 37.8904 10.8054H37.8873Z" fill="#518FCC"/>
<path d="M38.1444 13.5199C38.1229 13.5632 37.6485 13.7145 37.5291 13.6898C37.4128 13.6651 37.425 12.6429 36.4577 11.5867C36.3414 11.4601 37.2352 11.2718 37.2352 11.2718C37.4219 11.21 38.579 12.7263 38.1444 13.523V13.5199Z" fill="#518FCC"/>
<path d="M37.8658 16.0646C37.7923 16.1696 37.3179 15.9688 37.3179 15.9688C37.4158 15.098 36.7608 14.329 36.3965 13.6126L37.0118 13.381C37.3117 13.2914 38.6709 14.8911 37.8658 16.0646V16.0646Z" fill="#518FCC"/>
<path d="M36.2557 18.1614C36.1332 18.1985 35.9251 17.8866 36.0475 17.7198C36.773 16.7347 36.4455 15.5303 36.4638 15.3666C36.4853 15.203 37.0362 15.413 37.0362 15.413C37.1587 15.5766 38.1229 17.5932 36.2526 18.1614H36.2557Z" fill="#518FCC"/>
<path d="M33.2433 19.5295C33.1209 19.5017 33.1025 19.0508 33.1025 19.0508C34.0331 18.9613 34.9361 18.6154 35.5116 17.8495C35.7687 17.726 36.0442 17.8588 36.2371 18.1367C36.3014 18.3313 35.5606 20.0699 33.2433 19.5264V19.5295Z" fill="#518FCC"/>
<path d="M30.7091 19.8259C30.6112 19.7426 30.4948 19.1898 30.5102 19.0817C31.5234 19.3905 32.2795 19.5604 33.8069 19.301L34.0549 19.7704C33.9416 20.0699 32.2182 21.1075 30.7091 19.8259V19.8259Z" fill="#518FCC"/>
<path d="M14.5618 7.64318C14.5618 7.64318 14.2833 7.23245 14.3537 7.07804C14.6353 6.45115 15.8169 5.29927 17.4637 6.02498C17.6566 6.11145 17.5341 6.59938 17.476 6.60247C15.8842 6.68894 15.1281 7.13363 14.5649 7.64318H14.5618Z" fill="#518FCC"/>
<path d="M17.2312 7.26333C17.2312 7.26333 17.1087 6.86187 17.2312 6.79084C17.9628 6.35542 19.1413 6.29983 20.0565 7.05025C20.2127 7.17686 19.3984 7.84081 19.2974 7.64626C18.8015 6.68585 17.0965 7.33436 17.2312 7.26333Z" fill="#518FCC"/>
<path d="M20.892 8.12184C20.892 8.12184 20.5614 7.89023 20.6165 7.75744C20.7359 7.47024 22.3981 6.411 23.8705 6.75996C24.5929 6.92981 24.3602 7.79141 24.149 7.73582C22.6613 7.34671 20.7574 8.19596 20.892 8.12493V8.12184Z" fill="#518FCC"/>
<path d="M17.6716 9.23976C17.494 9.48372 17.0441 9.19343 17.3196 8.69624C17.4083 8.53257 18.0389 6.5685 20.6867 6.92982C21.2255 7.00393 20.9041 7.54436 20.6867 7.55671C19.1072 7.64318 17.7451 9.13785 17.6716 9.23976Z" fill="#518FCC"/>
<path d="M23.7421 8.08478C23.4696 8.14654 23.5492 7.28804 23.687 7.25098C24.1339 7.13054 25.9491 6.68276 26.9256 8.03537C27.0449 8.19904 26.5491 8.60668 26.3654 8.48933C25.7134 8.07243 24.5869 7.8964 23.7451 8.08478H23.7421Z" fill="#518FCC"/>
<path d="M28.4683 12.3001C28.4622 12.4051 28.8785 12.9517 29.4203 14.2734C29.6438 14.82 30.1244 16.2375 30.2591 16.1881C30.3937 16.1387 33.5467 14.9961 32.6712 12.7788C31.7957 10.5615 28.4928 11.9481 28.4683 12.3032V12.3001Z" fill="#518FCC"/>
<path d="M18.7005 20.2892C18.8076 19.863 19.2209 19.4337 19.6004 19.3998C22.1411 19.1589 22.0095 22.6207 20.9932 23.5595C20.9351 23.612 20.6994 23.5719 20.6994 23.5719C21.1616 23.1642 21.8565 20.7493 20.3229 20.3046C19.3158 20.0143 18.9944 20.1162 18.9637 20.2459C18.9331 20.3756 18.6362 20.5455 18.7005 20.2892V20.2892Z" fill="#518FCC"/>
<path d="M19.8116 19.6901C19.1229 19.6901 18.5015 19.8414 18.5719 21.4935C18.6178 22.5343 18.8321 23.2692 19.3524 23.3341C20.182 23.4391 20.5799 23.3125 20.7544 21.8919C20.9044 20.6783 20.1881 19.6901 19.8116 19.6901V19.6901Z" fill="#518FCC"/>
<path d="M18.9756 20.7462C18.8225 20.774 18.2899 20.3231 18.3358 19.9773C18.3511 19.8537 18.6358 20.2861 19.0796 20.3324C19.2725 20.3509 18.9756 20.7462 18.9756 20.7462V20.7462Z" fill="#518FCC"/>
<path d="M19.092 20.3139C18.939 20.2799 18.5655 19.5449 18.7369 19.2454C18.7982 19.1373 18.9512 19.7611 19.343 19.9711C19.5145 20.0637 19.092 20.317 19.092 20.317V20.3139Z" fill="#518FCC"/>
<path d="M19.5208 19.8846C19.3738 19.8352 19.083 19.0632 19.2881 18.7821C19.3616 18.6833 19.4412 19.3195 19.8085 19.5727C19.9677 19.6839 19.5208 19.8877 19.5208 19.8877V19.8846Z" fill="#518FCC"/>
<path d="M19.2483 20.3046C19.0432 20.3262 18.884 20.7956 19.086 20.9068C19.233 20.9871 19.2758 20.7122 19.3799 20.6814C19.5391 20.635 19.5115 20.2737 19.2483 20.3015V20.3046Z" fill="white"/>
<path d="M8.22832 20.2892C8.33546 19.863 8.7487 19.4337 9.12828 19.3998C11.669 19.1589 11.5373 22.6207 10.5211 23.5595C10.4629 23.612 10.2272 23.5719 10.2272 23.5719C10.6894 23.1642 11.3843 20.7493 9.85069 20.3046C8.8436 20.0143 8.52218 20.1162 8.49157 20.2459C8.46096 20.3756 8.16404 20.5455 8.22832 20.2892V20.2892Z" fill="#518FCC"/>
<path d="M9.33943 19.6901C8.65069 19.6901 8.02929 19.8414 8.0997 21.4935C8.14561 22.5343 8.35989 23.2692 8.88027 23.3341C9.70982 23.4391 10.1078 23.3125 10.2822 21.8919C10.4322 20.6783 9.71594 19.6901 9.33943 19.6901V19.6901Z" fill="#518FCC"/>
<path d="M8.50389 20.7462C8.35083 20.774 7.81821 20.3231 7.86412 19.9773C7.87943 19.8537 8.16411 20.2861 8.60796 20.3324C8.80081 20.3509 8.50389 20.7462 8.50389 20.7462V20.7462Z" fill="#518FCC"/>
<path d="M8.62034 20.3139C8.46729 20.2799 8.09384 19.5449 8.26526 19.2454C8.32648 19.1373 8.47954 19.7611 8.87135 19.9711C9.04277 20.0637 8.62034 20.317 8.62034 20.317V20.3139Z" fill="#518FCC"/>
<path d="M9.04568 19.8846C8.89875 19.8352 8.60795 19.0632 8.81304 18.7821C8.88651 18.6833 8.96609 19.3195 9.33342 19.5727C9.4926 19.6839 9.04568 19.8877 9.04568 19.8877V19.8846Z" fill="#518FCC"/>
<path d="M8.77609 20.3046C8.571 20.3262 8.41182 20.7956 8.61385 20.9068C8.76079 20.9871 8.80364 20.7122 8.90772 20.6814C9.06689 20.635 9.03934 20.2737 8.77609 20.3015V20.3046Z" fill="white"/>
<path d="M14.5952 24.3192C14.635 23.8992 14.0748 23.2847 13.08 23.2847C11.88 23.2847 11.8157 24.0629 11.9933 24.4489C12.1218 24.7299 12.3943 25.0449 13.1136 24.9492C14.3197 24.7855 14.5646 24.662 14.5983 24.3192H14.5952Z" fill="#518FCC"/>
<path d="M12.8262 23.7294C12.4497 23.6676 12.3242 23.7386 12.3242 23.9517C12.3242 24.2296 12.6242 24.0907 12.8201 24.1154C13.1446 24.1555 13.1476 23.7819 12.8262 23.7294Z" fill="white"/>
<path d="M20.9471 14.187C20.9471 14.187 20.8706 14.5112 20.9165 14.6039C20.9165 14.6039 21.893 14.9343 21.942 14.8972C21.9879 14.8571 22.1073 14.5112 22.0675 14.4248C22.0277 14.3383 21.1094 14.0418 20.9502 14.187H20.9471Z" fill="#518FCC"/>
<path d="M8.65674 13.7299C8.65674 13.7299 8.67817 14.0634 8.74857 14.1376C8.74857 14.1376 9.79546 14.1623 9.83219 14.1098C9.86586 14.0573 9.87811 13.6898 9.81382 13.6218C9.74954 13.5539 8.76694 13.5415 8.65674 13.7299Z" fill="#518FCC"/>
<path d="M12.6912 26.6291C12.5229 26.413 12.4004 26.9565 12.4892 27.0491C12.578 27.1418 13.3831 28.1084 14.9962 28.1084C16.8359 28.1084 17.9043 26.7033 17.9961 26.5025C18.2563 26.7619 18.5685 26.2833 18.3328 26.0856C18.2042 25.9775 17.3716 25.2765 17.2829 25.4371C17.191 25.5977 17.0349 25.7614 17.1788 25.8509C17.4849 26.0455 16.4992 27.2838 15.3299 27.3765C14.1606 27.4691 12.9882 27.0121 12.6912 26.6291V26.6291Z" fill="#518FCC"/>
<path d="M11.6383 47.8787C10.3312 48.098 9.19554 48.3203 7.68949 49.4228C6.18038 50.5253 5.59878 52.7395 5.59878 52.7395C5.59878 52.7395 2.32037 51.6586 0.826565 54.6078C-0.00604649 56.2507 2.302 58.959 4.76923 61.2041C7.58235 63.7673 8.43945 65.0025 10.3771 64.9161C12.4403 64.8234 13.8912 62.8593 16.187 61.062C18.4736 59.2709 19.4899 57.7763 19.845 56.8714C19.2175 56.2044 19.9338 56.0191 19.9338 56.0191L11.6352 47.8818L11.6383 47.8787Z" fill="white"/>
<path d="M19.4901 56.3279C18.9146 56.6954 18.2228 58.5236 15.3056 60.7409C13.1567 62.3745 11.9353 63.5881 10.016 63.6746C8.21306 63.7549 7.69268 62.9273 5.07853 60.5741C2.78578 58.5112 1.23076 56.7541 1.89195 55.1915C2.82864 52.9711 5.79175 53.598 6.21418 53.7647C6.63661 53.9315 6.84476 53.9933 7.2274 54.1353C7.40188 54.2002 7.70493 54.0025 7.43249 53.669C7.14475 53.317 6.89374 53.1625 6.51723 52.9587C6.89068 52.023 7.70186 51.078 8.64774 50.3461C10.365 49.0152 11.6874 48.7558 11.917 48.7558C12.1465 48.7558 12.4802 47.8818 11.6353 47.8818C10.7905 47.8818 9.44668 48.064 7.68656 49.4259C6.20806 50.5685 5.59585 52.7426 5.59585 52.7426C5.59585 52.7426 2.31744 51.6617 0.823635 54.6109C-0.00897618 56.2538 2.29907 58.9621 4.7663 61.2072C7.57942 63.7703 8.43652 65.0056 10.3742 64.9191C12.4373 64.8265 13.8883 63.3133 16.1841 61.5129C19.285 59.0856 19.9768 56.856 19.9768 56.856C19.9768 56.856 20.0625 55.9604 19.487 56.3279H19.4901Z" fill="#518FCC"/>
<path d="M2.32651 59.5025C0.560277 57.452 -0.17438 54.1508 3.58462 54.7468C5.35698 55.0278 9.85063 58.187 11.3567 64.0822C11.4791 64.5578 10.2516 64.9222 9.82614 64.9222C8.27724 64.9222 5.11515 62.742 2.32651 59.5025V59.5025Z" fill="#518FCC"/>
<path d="M37.8321 38.676C35.5761 37.7465 30.6508 33.5497 28.156 32.0396C25.6613 30.5295 22.9124 30.5017 21.9604 33.2409C20.9442 36.1654 23.4818 39.3276 26.4694 41.6561C28.8142 43.4843 30.8314 44.4324 32.5028 44.7535C36.4087 45.5039 39.4085 43.4534 39.9044 41.934C40.4003 40.4147 40.1738 39.6457 37.8351 38.6791L37.8321 38.676Z" fill="white"/>
<path d="M37.8321 38.676C35.5761 37.7465 30.6508 33.5497 28.156 32.0396C25.6613 30.5295 22.9124 30.5017 21.9604 33.2409C20.9442 36.1654 23.4818 39.3276 26.4694 41.6561C28.8142 43.4843 30.7733 44.6732 32.4507 44.9573C37.3699 45.785 39.6228 43.5769 40.1187 42.0545C40.6146 40.5351 40.1707 39.6426 37.8321 38.676V38.676ZM38.8024 42.0298C38.2423 43.3083 35.7291 44.9697 31.7099 43.8147C30.2559 43.3978 29.0101 42.9099 26.9316 41.2886C24.2807 39.2195 22.1135 35.9739 22.9767 33.3644C23.5644 31.5918 26.7418 31.8296 28.4132 32.9321C31.4161 34.9147 34.0241 37.2894 35.6067 38.3024C37.5015 39.516 39.6749 40.0379 38.8024 42.0267V42.0298Z" fill="#518FCC"/>
</g>
<defs>
<clipPath id="clip0_5997_96909">
<rect width="41" height="66" fill="white"/>
</clipPath>
</defs>
</svg>
