<svg width="40" height="40" viewBox="0 0 40 40" fill="none" xmlns="http://www.w3.org/2000/svg">
<path d="M33.5731 31.0086L38 6.17313L37.0249 6L36.0498 11.3095C35.2516 11.1236 34.5546 10.6458 34.0997 9.97252C33.7797 9.45299 33.3294 9.0235 32.7923 8.72545C32.2552 8.4274 31.6493 8.27082 31.033 8.27082C30.4168 8.27082 29.8109 8.4274 29.2738 8.72545C28.7367 9.0235 28.2864 9.45299 27.9664 9.97252C27.7364 10.3835 27.3989 10.7262 26.989 10.9648C26.5791 11.2035 26.1119 11.3293 25.636 11.3293C25.16 11.3293 24.6928 11.2035 24.2829 10.9648C23.8731 10.7262 23.5355 10.3835 23.3055 9.97252C22.9855 9.45299 22.5353 9.0235 21.9982 8.72545C21.461 8.4274 20.8552 8.27082 20.2389 8.27082C19.6226 8.27082 19.0167 8.4274 18.4796 8.72545C17.9425 9.0235 17.4923 9.45299 17.1723 9.97252C16.9422 10.3835 16.6047 10.7262 16.1949 10.9648C15.785 11.2035 15.3178 11.3293 14.8418 11.3293C14.3659 11.3293 13.8986 11.2035 13.4888 10.9648C13.0789 10.7262 12.7414 10.3835 12.5114 9.97252C12.1926 9.45286 11.7434 9.02308 11.207 8.72481C10.6707 8.42653 10.0653 8.26982 9.44962 8.26982C8.8339 8.26982 8.22859 8.42653 7.69222 8.72481C7.15586 9.02308 6.7066 9.45286 6.38787 9.97252C6.13976 10.3657 5.79938 10.6942 5.39545 10.9303C4.99153 11.1663 4.53593 11.303 4.06717 11.3287V12.1848L2.97508 6L2 6.17313L6.37812 30.999L33.5731 31.0086ZM7.10943 10.6073C7.33582 10.1934 7.67151 9.84766 8.08093 9.60666C8.49034 9.36566 8.95823 9.23841 9.435 9.23841C9.91176 9.23841 10.3796 9.36566 10.7891 9.60666C11.1985 9.84766 11.5342 10.1934 11.7606 10.6073C12.0811 11.1247 12.531 11.5522 13.0671 11.8488C13.6033 12.1454 14.2076 12.3011 14.8223 12.3011C15.437 12.3011 16.0414 12.1454 16.5775 11.8488C17.1136 11.5522 17.5635 11.1247 17.8841 10.6073C18.132 10.2111 18.4734 9.8799 18.8792 9.64206C19.285 9.40421 19.7432 9.26679 20.2145 9.24149C20.6859 9.26679 21.144 9.40421 21.5498 9.64206C21.9556 9.8799 22.297 10.2111 22.545 10.6073C22.8668 11.1246 23.3176 11.5518 23.8545 11.8482C24.3914 12.1446 24.9964 12.3002 25.6116 12.3002C26.2268 12.3002 26.8318 12.1446 27.3687 11.8482C27.9055 11.5518 28.3564 11.1246 28.6782 10.6073C28.9075 10.194 29.2453 9.84909 29.6561 9.60883C30.067 9.36856 30.5359 9.24179 31.0135 9.24179C31.4912 9.24179 31.96 9.36856 32.3709 9.60883C32.7818 9.84909 33.1196 10.194 33.3489 10.6073C33.9446 11.4621 34.8536 12.0553 35.8841 12.2617L32.7541 30.0467H7.18743L4.05742 12.3002C4.66469 12.2722 5.25691 12.1045 5.78682 11.8106C6.31672 11.5167 6.76965 11.1046 7.10943 10.6073Z" fill="#555555"/>
<path d="M16.1192 24.7949C15.7942 24.8304 15.4656 24.7796 15.1673 24.6477C14.8689 24.5158 14.6118 24.3076 14.4225 24.0446C14.1975 23.6336 14.0771 23.1748 14.0715 22.7077H12.8039C12.7784 23.5248 13.0518 24.3237 13.5742 24.9584C13.8857 25.294 14.2707 25.5551 14.6999 25.7217C15.129 25.8884 15.5911 25.9563 16.0509 25.9203C16.9931 25.9834 17.9223 25.6756 18.6349 25.0642C18.9372 24.7806 19.1746 24.4364 19.331 24.0549C19.4874 23.6733 19.5592 23.2631 19.5417 22.8519C19.5567 22.3384 19.4065 21.8333 19.1127 21.4091C18.8218 21.0171 18.4009 20.738 17.9231 20.6204C18.2164 20.5026 18.4796 20.3219 18.6934 20.0914C19.0259 19.6916 19.1962 19.1843 19.1712 18.6678C19.1923 18.3147 19.1303 17.9616 18.9898 17.6362C18.8494 17.3108 18.6345 17.0219 18.3619 16.7922C17.7002 16.3225 16.8935 16.0947 16.0802 16.1477C15.563 16.1008 15.0431 16.2008 14.5818 16.436C14.1204 16.6712 13.737 17.0318 13.4767 17.4751C13.1734 18.0261 13.0253 18.6472 13.0477 19.2738H14.247C14.2417 18.8441 14.3386 18.4191 14.5298 18.033C14.7053 17.7581 14.9556 17.5375 15.2522 17.3963C15.5488 17.2551 15.8796 17.1991 16.2069 17.2346C16.6365 17.2244 17.0565 17.3602 17.3965 17.6194C17.567 17.7465 17.7033 17.913 17.7934 18.1041C17.8835 18.2953 17.9247 18.5054 17.9133 18.7159C17.9366 18.9881 17.8753 19.2609 17.7377 19.4979C17.6002 19.735 17.3927 19.9252 17.143 20.0433C16.7939 20.1972 16.4135 20.2696 16.0314 20.2549H15.4366V21.3129H15.9339C16.522 21.2784 17.1077 21.412 17.6208 21.6977C17.8353 21.8548 18.0047 22.0641 18.1124 22.3053C18.2201 22.5464 18.2624 22.811 18.2351 23.0732C18.2428 23.3195 18.1952 23.5646 18.0957 23.7907C17.9963 24.0168 17.8474 24.2185 17.6598 24.3813C17.2151 24.7009 16.6668 24.8481 16.1192 24.7949Z" fill="#555555"/>
<path d="M23.8613 25.8818C24.4575 25.9019 25.0452 25.7374 25.5418 25.4114C26.0384 25.0854 26.4192 24.6142 26.6306 24.0639C27.0531 23.0491 27.2525 21.9573 27.2156 20.8609C27.2704 19.7511 27.0495 18.645 26.5721 17.6386C26.3197 17.1543 25.93 16.7527 25.4504 16.4829C24.9709 16.2131 24.4222 16.0866 23.8711 16.1189C23.215 16.1091 22.5747 16.3172 22.053 16.7097C21.5313 17.1022 21.1585 17.6564 20.9946 18.2831C20.6912 19.1786 20.5461 20.1189 20.5655 21.0629C20.5141 22.2168 20.759 23.3649 21.2774 24.4006C21.5193 24.8654 21.8914 25.252 22.3494 25.5146C22.8074 25.7771 23.3321 25.9046 23.8613 25.8818ZM22.3695 18.1869C22.5037 17.8901 22.725 17.6399 23.0048 17.4684C23.2847 17.297 23.6102 17.2122 23.9393 17.225C24.2808 17.2015 24.6205 17.2909 24.9048 17.479C25.189 17.6671 25.4017 17.9432 25.5092 18.2638C25.8084 19.1234 25.9471 20.0294 25.9187 20.9378C26.0085 21.9919 25.8134 23.0507 25.3532 24.0062C25.1733 24.2964 24.9093 24.5267 24.5954 24.6675C24.2815 24.8083 23.9321 24.8532 23.5921 24.7963C23.2521 24.7393 22.9372 24.5832 22.688 24.3481C22.4388 24.113 22.2667 23.8096 22.1939 23.4771C21.9544 22.7214 21.8456 21.9312 21.8722 21.1398C21.8234 20.1292 22.0033 19.1205 22.3987 18.1869H22.3695Z" fill="#555555"/>
<path d="M33.9437 33.0381H5.99783V34H33.9437V33.0381Z" fill="#555555"/>
</svg>
