<svg width="40" height="40" viewBox="0 0 40 40" fill="none" xmlns="http://www.w3.org/2000/svg">
<path d="M33.6231 31.0086L38 6.17313L37.0252 6L36.0504 11.3095C35.2498 11.1291 34.5511 10.65 34.1007 9.97252C33.7796 9.45311 33.3284 9.02386 32.7907 8.72604C32.253 8.42822 31.6467 8.27182 31.0301 8.27182C30.4134 8.27182 29.8071 8.42822 29.2694 8.72604C28.7317 9.02386 28.2805 9.45311 27.9594 9.97252C27.7294 10.3835 27.392 10.7262 26.9822 10.9648C26.5725 11.2035 26.1054 11.3293 25.6296 11.3293C25.1538 11.3293 24.6867 11.2035 24.2769 10.9648C23.8671 10.7262 23.5297 10.3835 23.2998 9.97252C22.9798 9.45299 22.5297 9.0235 21.9927 8.72545C21.4558 8.4274 20.8501 8.27082 20.234 8.27082C19.6179 8.27082 19.0121 8.4274 18.4752 8.72545C17.9382 9.0235 17.4881 9.45299 17.1682 9.97252C16.9192 10.367 16.5774 10.6963 16.1717 10.9324C15.7661 11.1685 15.3087 11.3045 14.8383 11.3287C14.368 11.3045 13.9106 11.1685 13.505 10.9324C13.0993 10.6963 12.7575 10.367 12.5085 9.97252C12.1899 9.45286 11.7407 9.02308 11.2045 8.72481C10.6683 8.42653 10.0632 8.26982 9.4476 8.26982C8.83205 8.26982 8.2269 8.42653 7.69069 8.72481C7.15447 9.02308 6.70533 9.45286 6.38668 9.97252C6.13864 10.3657 5.79835 10.6942 5.39453 10.9303C4.99072 11.1663 4.53525 11.303 4.06661 11.3287V12.1848L2.97482 6L2 6.17313L6.37693 30.999L33.6231 31.0086ZM7.16653 10.6073C7.39286 10.1934 7.72846 9.84766 8.13777 9.60666C8.54707 9.36566 9.01483 9.23841 9.49147 9.23841C9.96811 9.23841 10.4359 9.36566 10.8452 9.60666C11.2545 9.84766 11.5901 10.1934 11.8164 10.6073C12.1369 11.1247 12.5866 11.5522 13.1226 11.8488C13.6586 12.1454 14.2628 12.3011 14.8773 12.3011C15.4918 12.3011 16.0961 12.1454 16.632 11.8488C17.168 11.5522 17.6178 11.1247 17.9383 10.6073C18.1861 10.2111 18.5274 9.8799 18.9331 9.64206C19.3389 9.40421 19.7969 9.26679 20.2681 9.24149C20.7393 9.26679 21.1973 9.40421 21.603 9.64206C22.0087 9.8799 22.35 10.2111 22.5979 10.6073C22.9196 11.1246 23.3703 11.5518 23.9071 11.8482C24.4438 12.1446 25.0486 12.3002 25.6637 12.3002C26.2788 12.3002 26.8835 12.1446 27.4203 11.8482C27.957 11.5518 28.4078 11.1246 28.7295 10.6073C28.9783 10.2098 29.3211 9.8778 29.7287 9.63989C30.1362 9.40197 30.5962 9.26526 31.0691 9.24149C31.5403 9.26679 31.9983 9.40421 32.404 9.64206C32.8097 9.8799 33.151 10.2111 33.3989 10.6073C33.9966 11.4599 34.9043 12.0525 35.9334 12.2617L32.814 30.0467H7.24451L4.1251 12.3002C4.73053 12.2707 5.32065 12.1024 5.84861 11.8085C6.37656 11.5147 6.82782 11.1034 7.16653 10.6073Z" fill="#555555"/>
<path d="M17.0611 25.6221H18.2699V23.304H19.6931V22.2556H18.2699V16.09H17.2951L12.8791 22.1305V23.304H17.1099L17.0611 25.6221ZM17.0611 22.2556H13.9514L17.0416 17.9368L17.0611 22.2556Z" fill="#555555"/>
<path d="M23.8653 25.8818C24.4627 25.9025 25.0517 25.7384 25.5499 25.4124C26.048 25.0865 26.4305 24.615 26.6436 24.0639C27.066 23.0491 27.2654 21.9573 27.2285 20.8609C27.2806 19.7503 27.0563 18.644 26.5753 17.6386C26.323 17.1543 25.9334 16.7527 25.454 16.4829C24.9746 16.2131 24.426 16.0866 23.8751 16.1189C23.2192 16.1091 22.5791 16.3172 22.0575 16.7097C21.536 17.1022 21.1633 17.6564 20.9994 18.2831C20.6996 19.1792 20.5578 20.1194 20.5802 21.0629C20.5262 22.216 20.7676 23.3639 21.2821 24.4006C21.524 24.8654 21.8959 25.252 22.3538 25.5146C22.8117 25.7771 23.3363 25.9046 23.8653 25.8818ZM22.3739 18.1869C22.5081 17.8901 22.7293 17.6399 23.0091 17.4684C23.2888 17.297 23.6142 17.2122 23.9433 17.225C24.285 17.1998 24.6254 17.2885 24.91 17.4768C25.1945 17.6652 25.4068 17.9423 25.5128 18.2638C25.8118 19.1234 25.9506 20.0294 25.9222 20.9378C26.0172 21.9922 25.8219 23.0523 25.3568 24.0062C25.1769 24.2964 24.913 24.5267 24.5992 24.6675C24.2854 24.8083 23.9361 24.8532 23.5962 24.7963C23.2563 24.7393 22.9415 24.5832 22.6924 24.3481C22.4432 24.113 22.2712 23.8096 22.1984 23.4771C21.9629 22.7207 21.8575 21.9306 21.8865 21.1398C21.8261 20.1321 21.9925 19.1236 22.3739 18.1869Z" fill="#555555"/>
<path d="M33.9449 33.0381H6.00669V34H33.9449V33.0381Z" fill="#555555"/>
</svg>
