<svg width="40" height="40" viewBox="0 0 40 40" fill="none" xmlns="http://www.w3.org/2000/svg">
<path d="M17.6901 19.5408H24.9098V17.7724H17.6901V13.2586H25.8956V11.4413H15.6991V26.3017H17.6901V19.5408Z" fill="#555555"/>
<path d="M19.971 33.3265C22.9385 33.3323 25.8411 32.4481 28.3114 30.7859C30.7818 29.1237 32.7089 26.7581 33.8489 23.9885C34.989 21.2189 35.2907 18.1697 34.716 15.2266C34.1413 12.2836 32.7159 9.57896 30.6203 7.45502C28.5246 5.33108 25.8528 3.88328 22.9429 3.29472C20.0331 2.70616 17.0159 3.00329 14.2732 4.1486C11.5304 5.2939 9.18536 7.23593 7.53469 9.72885C5.88402 12.2218 5.00192 15.1536 5 18.1534C4.99999 22.1708 6.57605 26.0242 9.38256 28.8686C12.1891 31.7129 15.9969 33.3161 19.971 33.3265ZM19.971 4.01609C22.7499 4.01031 25.4678 4.83857 27.7805 6.39601C30.0931 7.95345 31.8963 10.1699 32.9615 12.7644C34.0267 15.359 34.3059 18.2148 33.7638 20.9699C33.2216 23.725 31.8826 26.2554 29.9163 28.2403C27.9499 30.2253 25.4449 31.5755 22.7187 32.1197C19.9925 32.6639 17.1679 32.3777 14.6028 31.2974C12.0376 30.217 9.84754 28.3911 8.31006 26.0512C6.77258 23.7112 5.95693 20.9625 5.96649 18.1534C5.97159 14.3986 7.44809 10.7987 10.0728 8.14174C12.6975 5.48482 16.2566 3.98731 19.971 3.97698V4.01609Z" fill="#555555"/>
<path d="M34.4878 36.023H5.45425V37H34.4878V36.023Z" fill="#555555"/>
</svg>
