<svg width="18" height="18" viewBox="0 0 18 18" fill="none" xmlns="http://www.w3.org/2000/svg">
<path d="M17.3 8.63942L14.8009 2H2.99907L0.5 8.63942H2.14128V16.4239H7.92208L7.89814 12.6741H10.0207L9.98029 16.4239H15.6785V8.63942H17.3ZM15.6298 7.48359H13.4255L12.0798 3.15583H14.0009L15.6298 7.48359ZM5.56584 7.48359L6.91238 3.15583H8.33158L8.32332 7.48359H5.56584ZM9.48741 3.15583H10.8703L12.216 7.48359H9.47915L9.48741 3.15583ZM3.79907 3.15583H5.70206L4.35635 7.48359H2.17018L3.79907 3.15583ZM14.5235 15.2681H11.1493L11.1898 11.5183H6.73488L6.75882 15.2681H3.29711V8.63942H14.5235V15.2681Z" fill="#555555"/>
</svg>
