<svg width="20" height="18" viewBox="0 0 20 18" fill="none" xmlns="http://www.w3.org/2000/svg">
<path d="M20 8.94174L16.6991 4.65078H13.3009V2H0V14.2399H2.44319C2.56108 15.2821 3.4478 16.0953 4.52076 16.0953C5.59371 16.0953 6.48044 15.2829 6.59833 14.2399H13.4999C13.6178 15.2821 14.5045 16.0953 15.5775 16.0953C16.6504 16.0953 17.5372 15.2829 17.655 14.2399H19.9991V8.94174H20ZM18.5315 8.91953H15.592V5.94926H16.3694L18.5315 8.91953ZM4.52076 14.9822C3.98086 14.9822 3.54177 14.5431 3.54177 14.0032C3.54177 13.4634 3.98086 13.0243 4.52076 13.0243C5.06065 13.0243 5.49974 13.4634 5.49974 14.0032C5.49974 14.5431 5.06065 14.9822 4.52076 14.9822ZM4.52076 11.912C3.37775 11.9009 2.7157 12.6287 2.60721 13.02H1.21989V3.21989H12.081V13.02H6.43431C6.1823 12.2802 5.51341 11.9188 4.52076 11.912ZM15.5783 14.9822C15.0384 14.9822 14.5994 14.5431 14.5994 14.0032C14.5994 13.4634 15.0384 13.0243 15.5783 13.0243C16.1182 13.0243 16.5573 13.4634 16.5573 14.0032C16.5573 14.5431 16.1182 14.9822 15.5783 14.9822ZM17.3791 12.9414C17.0144 12.3255 16.3438 11.912 15.5783 11.912C14.8129 11.912 14.1423 12.3263 13.7775 12.9414H13.3009V5.94926H14.4789V9.47565L15.035 10.0318H18.8724V12.9414H17.3791Z" fill="#555555"/>
</svg>
