<svg width="13" height="11" viewBox="0 0 13 11" fill="none" xmlns="http://www.w3.org/2000/svg">
<path d="M11.6268 2.95165C11.6345 3.06334 11.6345 3.17606 11.6345 3.28879C11.6345 6.73987 9.015 10.7189 4.22509 10.7189C2.80896 10.721 1.42223 10.3138 0.230835 9.54614C0.436195 9.57066 0.64281 9.58309 0.84962 9.58337C2.02251 9.58477 3.16173 9.19025 4.0838 8.46335C3.54032 8.45332 3.01358 8.2731 2.57733 7.94792C2.14108 7.62274 1.81716 7.16888 1.65095 6.6499C2.04107 6.72549 2.4433 6.71027 2.82664 6.60543C2.23736 6.486 1.70739 6.1659 1.32658 5.6994C0.945772 5.23289 0.737547 4.64869 0.737207 4.04582V4.01272C1.09943 4.21489 1.50473 4.32696 1.91909 4.33952C1.36807 3.96994 0.978174 3.40372 0.828734 2.75607C0.679295 2.10842 0.78154 1.42801 1.11467 0.853279C1.76849 1.66 2.58417 2.31982 3.50878 2.78992C4.43338 3.26002 5.44624 3.52988 6.48159 3.58198C6.35211 3.02219 6.41019 2.43521 6.64685 1.91185C6.88351 1.38849 7.28557 0.957924 7.79081 0.68676C8.29605 0.415596 8.87632 0.318948 9.44185 0.41177C10.0074 0.504591 10.5266 0.781708 10.9193 1.20025C11.5024 1.08488 12.0615 0.870476 12.5725 0.566292C12.3782 1.17098 11.9713 1.68425 11.4277 2.01054C11.9439 1.94935 12.4479 1.81095 12.9231 1.59996C12.5743 2.12398 12.1353 2.58165 11.6268 2.95165Z" fill="white"/>
</svg>
