<svg width="40" height="40" viewBox="0 0 40 40" fill="none" xmlns="http://www.w3.org/2000/svg">
<path d="M38 6.18872L37.0231 6.01985L36.0461 11.4927C35.3637 11.3605 34.7542 10.9745 34.3365 10.4101L34.8934 9.94324L33.6331 8.26463L32.9004 8.88045C32.3624 8.51806 31.7286 8.33098 31.0833 8.34411C30.4718 8.36517 29.8742 8.53486 29.3405 8.83901C28.8068 9.14316 28.3525 9.57289 28.0157 10.0922C27.786 10.5191 27.4476 10.8752 27.0359 11.1233C26.6243 11.3715 26.1546 11.5024 25.676 11.5024C25.1974 11.5024 24.7277 11.3715 24.316 11.1233C23.9043 10.8752 23.5659 10.5191 23.3362 10.0922C23.0151 9.55797 22.5643 9.11655 22.0272 8.81028C21.49 8.50401 20.8845 8.34317 20.2687 8.34317C19.6528 8.34317 19.0473 8.50401 18.5101 8.81028C17.973 9.11655 17.5222 9.55797 17.2011 10.0922C16.9527 10.5014 16.6106 10.8434 16.2041 11.089C15.7975 11.3346 15.3385 11.4766 14.8662 11.5027C14.394 11.4766 13.935 11.3346 13.5284 11.089C13.1218 10.8434 12.7797 10.5014 12.5313 10.0922C12.1946 9.57289 11.7403 9.14316 11.2066 8.83901C10.6729 8.53486 10.0753 8.36517 9.46379 8.34411C8.70639 8.33053 7.96888 8.59102 7.38291 9.07911L6.40598 8.26463L5.05781 9.92339L5.90773 10.6385C5.67989 10.9099 5.39679 11.1278 5.07799 11.277C4.75919 11.4262 4.4123 11.5032 4.06134 11.5027V12.3767L2.97693 6L2 6.16887L6.2985 31.2785L5.04803 32.3214L6.3962 33.9801L8.98507 31.8049H31.0345L33.6331 34L34.9813 32.3412L33.7406 31.2983L38 6.18872ZM35.9289 12.476L32.832 30.5633L21.6461 21.0876L33.6331 11.0259C34.196 11.7772 35.0149 12.2874 35.9289 12.4562V12.476ZM9.4247 9.35722C9.89524 9.38491 10.3523 9.52757 10.757 9.7731C11.1618 10.0186 11.5024 10.3598 11.7498 10.7676C12.0722 11.3018 12.5239 11.743 13.0618 12.049C13.5997 12.3551 14.2058 12.5158 14.8223 12.5158C15.4387 12.5158 16.0448 12.3551 16.5827 12.049C17.1206 11.743 17.5723 11.3018 17.8947 10.7676C18.123 10.3405 18.4603 9.98394 18.8713 9.73546C19.2822 9.48697 19.7515 9.3558 20.2296 9.3558C20.7077 9.3558 21.177 9.48697 21.5879 9.73546C21.9988 9.98394 22.3362 10.3405 22.5645 10.7676C22.8869 11.3018 23.3386 11.743 23.8765 12.049C24.4144 12.3551 25.0205 12.5158 25.6369 12.5158C26.2533 12.5158 26.8594 12.3551 27.3973 12.049C27.9352 11.743 28.3869 11.3018 28.7094 10.7676C28.9577 10.3585 29.2998 10.0165 29.7064 9.77086C30.113 9.52525 30.572 9.38334 31.0442 9.35722C31.3816 9.35714 31.715 9.4317 32.0212 9.57574L19.956 19.7269L8.08631 9.73467C8.4779 9.45741 8.94789 9.3179 9.4247 9.33737V9.35722ZM4.04179 12.5158C4.53308 12.5143 5.01818 12.4043 5.46351 12.1934C5.90884 11.9824 6.30376 11.6756 6.62091 11.2941L18.3441 21.1472L7.15821 30.5633L4.04179 12.5158ZM10.1867 30.8116L19.956 22.5179L29.8035 30.8116H10.1867Z" fill="#555555"/>
</svg>
