<svg width="18" height="18" viewBox="0 0 18 18" fill="none" xmlns="http://www.w3.org/2000/svg">
<path d="M16.8306 6.84684L13.492 3.20796L13.2889 3H4.71677L4.54092 3.20555L1.17102 6.84443L1 7.05801V17.6133H17V7.05801L16.8306 6.84684ZM15.126 6.8894H11.4614L10.9202 4.28469H12.7364L15.126 6.8894ZM7.56316 8.17409H10.4537V10.1164H7.56316V8.17409ZM9.77202 4.28469L10.3132 6.8894H7.70447L8.24484 4.28469H9.77202ZM5.29247 4.28469H7.09665L6.55628 6.8894H2.88046L5.29247 4.28469ZM2.28469 16.3278V8.17409H6.43905V10.6784L7.0011 11.2405H11.0158L11.5778 10.6784V8.17409H15.7145V16.3278H2.28469Z" fill="#555555"/>
</svg>
