<svg width="40" height="40" viewBox="0 0 40 40" fill="none" xmlns="http://www.w3.org/2000/svg">
<path d="M35 20C35 17.0328 34.12 14.1323 32.4713 11.6653C30.8226 9.1983 28.4792 7.27569 25.7376 6.14071C22.9961 5.00573 19.9795 4.70937 17.0695 5.28906C14.1595 5.86876 11.4867 7.29848 9.38938 9.3974C7.29204 11.4963 5.86435 14.1701 5.28685 17.0806C4.70935 19.991 5.00801 23.0074 6.14506 25.7481C7.28211 28.4888 9.20645 30.8307 11.6747 32.4775C14.1429 34.1244 17.0441 35.0022 20.0113 35C23.9867 34.994 27.7973 33.4114 30.6073 30.5993C33.4172 27.7872 34.997 23.9754 35 20ZM20.0566 33.9019C17.3066 33.9041 14.6177 33.0907 12.3301 31.5645C10.0424 30.0383 8.2588 27.8679 7.20486 25.3278C6.15093 22.7878 5.87402 19.9923 6.40915 17.2948C6.94428 14.5974 8.26738 12.1192 10.2111 10.1739C12.1549 8.22852 14.632 6.90339 17.329 6.36607C20.026 5.82874 22.8218 6.10339 25.3627 7.15525C27.9036 8.20712 30.0754 9.98893 31.6035 12.2753C33.1316 14.5617 33.9472 17.25 33.9472 20C33.9412 23.6832 32.4761 27.214 29.8728 29.8195C27.2694 32.425 23.7398 33.8929 20.0566 33.9019Z" fill="#555555"/>
</svg>
