<svg width="40" height="40" viewBox="0 0 40 40" fill="none" xmlns="http://www.w3.org/2000/svg">
<path d="M20 5C17.0329 5 14.1324 5.87996 11.6654 7.52861C9.1985 9.17726 7.27592 11.5205 6.14089 14.262C5.00586 17.0034 4.70937 20.02 5.28893 22.9299C5.8685 25.8399 7.29807 28.5126 9.39682 30.61C11.4956 32.7074 14.1692 34.1353 17.0796 34.713C19.9899 35.2907 23.0062 34.9922 25.747 33.8554C28.4877 32.7186 30.8297 30.7945 32.4767 28.3265C34.1238 25.8585 35.0019 22.9575 35 19.9903C34.9949 16.0146 33.4126 12.2032 30.6003 9.39282C27.7881 6.58242 23.9758 5.00256 20 5ZM20 33.9948C17.2232 33.9948 14.5088 33.171 12.2004 31.6277C9.89197 30.0844 8.09329 27.891 7.03198 25.325C5.97068 22.759 5.69447 19.9359 6.23831 17.2128C6.78215 14.4898 8.12159 11.9894 10.0871 10.0279C12.0526 8.06645 14.5559 6.73217 17.28 6.19396C20.0042 5.65575 22.8267 5.93782 25.3905 7.00443C27.9543 8.07104 30.144 9.87428 31.6825 12.1859C33.2211 14.4975 34.0392 17.2135 34.0335 19.9903C34.0309 23.7124 32.5519 27.2814 29.9209 29.9141C27.29 32.5469 23.722 34.0284 20 34.0335V33.9948Z" fill="#555555"/>
<path d="M15.7281 28.0509H17.7191V21.3628H24.9388V19.6134H17.7191V15.1482H25.9246V13.3505H15.7281V28.0509Z" fill="#555555"/>
</svg>
