<svg width="38" height="25" viewBox="0 0 38 25" fill="none" xmlns="http://www.w3.org/2000/svg">
<g clip-path="url(#clip0_4901_40248)">
<path opacity="0.07" d="M35 0.988281H3C2.20435 0.988281 1.44129 1.30435 0.87868 1.86696C0.31607 2.42957 0 3.19263 0 3.98828L0 21.9883C0 22.7839 0.31607 23.547 0.87868 24.1096C1.44129 24.6722 2.20435 24.9883 3 24.9883H35C35.7957 24.9883 36.5587 24.6722 37.1213 24.1096C37.6839 23.547 38 22.7839 38 21.9883V3.98828C38 3.19263 37.6839 2.42957 37.1213 1.86696C36.5587 1.30435 35.7957 0.988281 35 0.988281V0.988281Z" fill="black"/>
<path d="M35 1.88867C35.5304 1.88867 36.0391 2.09939 36.4142 2.47446C36.7893 2.84953 37 3.35824 37 3.88867V21.8887C37 22.4191 36.7893 22.9278 36.4142 23.3029C36.0391 23.678 35.5304 23.8887 35 23.8887H3C2.46957 23.8887 1.96086 23.678 1.58579 23.3029C1.21071 22.9278 1 22.4191 1 21.8887V3.88867C1 3.35824 1.21071 2.84953 1.58579 2.47446C1.96086 2.09939 2.46957 1.88867 3 1.88867H35Z" fill="white"/>
<path d="M19.0004 22.7381C24.4404 22.7381 28.8504 18.3281 28.8504 12.8881C28.8504 7.44808 24.4404 3.03809 19.0004 3.03809C13.5604 3.03809 9.15039 7.44808 9.15039 12.8881C9.15039 18.3281 13.5604 22.7381 19.0004 22.7381Z" fill="#008357"/>
<path d="M24.5991 19.918C24.5694 20.0488 24.5027 20.1683 24.4069 20.2623C24.3112 20.3563 24.1905 20.4207 24.0591 20.448H21.2091V20.988H17.0491V20.448H13.9391C13.8264 20.4177 13.7231 20.3592 13.6391 20.278C13.5238 20.1604 13.447 20.0104 13.4191 19.848L12.1191 7.06805C12.1314 6.93983 12.1804 6.81788 12.2602 6.71679C12.34 6.6157 12.4473 6.53975 12.5691 6.49805H25.3091C25.432 6.51836 25.5477 6.56934 25.6456 6.64625C25.7434 6.72316 25.8203 6.82352 25.8691 6.93805C25.889 7.04715 25.889 7.15895 25.8691 7.26805L24.5991 19.918Z" fill="white"/>
<path d="M23.92 11.0882C23.3242 11.3363 22.7924 11.7163 22.3646 12.1995C21.9368 12.6828 21.6241 13.2567 21.45 13.8782H18C18.036 13.7185 18.0828 13.5615 18.14 13.4082C18.5435 12.1612 19.2556 11.0364 20.21 10.1382C21.0464 9.31364 22.0169 8.63733 23.08 8.13816C23.2583 8.05832 23.4421 7.99148 23.63 7.93816C23.72 7.93816 23.8 7.87816 23.91 7.86816V11.0882" fill="#ED1C2E"/>
<path d="M22.8402 7.98871C22.1494 8.30109 21.5036 8.70469 20.9202 9.18871C20.2612 9.70101 19.6609 10.2845 19.1302 10.9287H14.4102V7.92871L22.8402 7.98871Z" fill="#F58220"/>
<path d="M20.6005 14.1487C20.4905 14.9587 20.3705 15.7587 20.2205 16.5687H19.1205C19.0005 15.7587 18.8705 14.9587 18.7605 14.1587H19.5005C19.6005 14.7587 19.6705 15.3687 19.7805 15.9487C19.8905 15.3587 19.9605 14.7487 20.0605 14.1487H20.5705H20.6005ZM15.5705 14.6387H15.0005V15.0587H15.5705V15.5787H15.0005V16.0587H15.5705V16.5587H14.2305V14.1387H15.5605V14.6487L15.5705 14.6387ZM18.5605 14.6487H18.0005V15.0687H18.5705V15.5887H18.0005V16.0687H18.5705V16.5687H17.2805V14.1387H18.6105V14.6487H18.5605ZM22.1205 14.6487H21.5405V15.0687H22.1105V15.5887H21.5405V16.0687H22.1105V16.5687H20.7805V14.1387H22.1205V14.6487ZM15.8205 14.1387H16.5605V16.0687H17.1005V16.5687H15.8205V14.1387ZM23.0905 14.4087C23.1519 14.3021 23.2411 14.2143 23.3485 14.1544C23.4559 14.0945 23.5776 14.0649 23.7005 14.0687C24.1305 14.0687 24.2105 14.3787 24.2105 14.9987V16.5587H23.4705V15.0487C23.4705 14.8287 23.4705 14.6887 23.3005 14.6887C23.1305 14.6887 23.0905 14.8587 23.0905 15.1387V16.5587H22.3505V14.1187H23.0905V14.4087ZM21.9205 17.4087C22.0005 17.4087 22.0705 17.4087 22.0705 17.3087C22.0705 17.2087 22.0005 17.2187 21.9405 17.2187H21.8105V17.4087H21.9205ZM21.8105 17.7587H21.7205V17.0887H22.0005C22.1505 17.0887 22.2205 17.1487 22.2205 17.2587C22.2233 17.28 22.2216 17.3017 22.2153 17.3222C22.2091 17.3428 22.1985 17.3618 22.1843 17.3779C22.1701 17.3941 22.1525 17.4069 22.1329 17.4157C22.1133 17.4244 22.092 17.4289 22.0705 17.4287L22.2505 17.7087H22.1405L21.9805 17.4387H21.8705V17.7087L21.8105 17.7587ZM21.9205 17.8987C22.0408 17.8987 22.1563 17.8516 22.2423 17.7675C22.3282 17.6834 22.3779 17.5689 22.3805 17.4487C22.3805 17.3293 22.3331 17.2149 22.2487 17.1305C22.1643 17.0461 22.0498 16.9987 21.9305 16.9987C21.8111 16.9987 21.6967 17.0461 21.6123 17.1305C21.5279 17.2149 21.4805 17.3293 21.4805 17.4487C21.4777 17.5637 21.5202 17.6752 21.5987 17.7594C21.6772 17.8435 21.7855 17.8935 21.9005 17.8987H21.9205ZM21.3805 17.4087C21.3984 17.2768 21.4635 17.156 21.5637 17.0684C21.6639 16.9809 21.7924 16.9327 21.9255 16.9327C22.0585 16.9327 22.1871 16.9809 22.2873 17.0684C22.3875 17.156 22.4526 17.2768 22.4705 17.4087C22.4706 17.5538 22.4143 17.6933 22.3136 17.7978C22.2128 17.9022 22.0755 17.9635 21.9305 17.9687C21.789 17.9687 21.6531 17.9132 21.5521 17.8141C21.4511 17.715 21.3931 17.5802 21.3905 17.4387L21.3805 17.4087Z" fill="#008357"/>
<path d="M17.2891 20.7681V19.6081C17.2891 18.6881 17.3991 17.7381 17.5291 16.8281H21.0591C20.9291 18.1381 20.9391 19.4481 20.9391 20.7681H17.2891Z" fill="#ED1C2E"/>
</g>
<defs>
<clipPath id="clip0_4901_40248">
<rect width="38" height="24" fill="white" transform="translate(0 0.988281)"/>
</clipPath>
</defs>
</svg>
