<svg width="40" height="40" viewBox="0 0 40 40" fill="none" xmlns="http://www.w3.org/2000/svg">
<path d="M31.5339 8H10.7075V8.99174H30.7306L33.4282 19.157H14.5752C13.0837 19.1949 11.6259 19.6093 10.3376 20.3619C9.04928 21.1144 7.97222 22.1805 7.20662 23.4612L2 32H37.9108L31.5339 8ZM8.0496 23.9769C8.72815 22.8376 9.68443 21.8889 10.8291 21.2195C11.9738 20.55 13.2694 20.1816 14.5951 20.1488H33.7356L36.6216 31.0083H3.76529L8.0496 23.9769Z" fill="#555555"/>
<path d="M20.9521 24.4033C20.61 24.4014 20.275 24.5012 19.9897 24.69C19.7044 24.8789 19.4817 25.1483 19.3498 25.464C19.218 25.7797 19.183 26.1275 19.2493 26.4632C19.3155 26.7988 19.4801 27.1072 19.722 27.3491C19.9639 27.5911 20.2723 27.7556 20.608 27.8219C20.9437 27.8882 21.2914 27.8531 21.6071 27.7213C21.9229 27.5894 22.1923 27.3668 22.3811 27.0815C22.57 26.7962 22.6698 26.4612 22.6678 26.119C22.6678 25.664 22.487 25.2276 22.1653 24.9059C21.8435 24.5841 21.4071 24.4033 20.9521 24.4033Z" fill="#555555"/>
</svg>
