<svg width="40" height="40" viewBox="0 0 40 40" fill="none" xmlns="http://www.w3.org/2000/svg">
<path d="M37.0239 7L36.0477 12.5243C35.2437 12.3361 34.5431 11.8333 34.0955 11.1232C33.7721 10.5851 33.3197 10.1409 32.7815 9.83275C32.2433 9.52461 31.6371 9.36284 31.0206 9.36284C30.4041 9.36284 29.7979 9.52461 29.2597 9.83275C28.7215 10.1409 28.2692 10.5851 27.9458 11.1232C27.7177 11.5535 27.3806 11.9128 26.97 12.1632C26.5594 12.4135 26.0905 12.5457 25.6128 12.5457C25.1351 12.5457 24.6662 12.4135 24.2556 12.1632C23.845 11.9128 23.5079 11.5535 23.2798 11.1232C22.9577 10.585 22.5063 10.1405 21.9688 9.83213C21.4314 9.52378 20.8258 9.36186 20.2099 9.36186C19.594 9.36186 18.9884 9.52378 18.4509 9.83213C17.9134 10.1405 17.4621 10.585 17.1399 11.1232C16.9118 11.5535 16.5747 11.9128 16.1641 12.1632C15.7535 12.4135 15.2847 12.5457 14.8069 12.5457C14.3292 12.5457 13.8603 12.4135 13.4497 12.1632C13.0392 11.9128 12.702 11.5535 12.474 11.1232C12.1531 10.5849 11.7027 10.1401 11.166 9.83152C10.6293 9.52294 10.0242 9.36089 9.40889 9.36089C8.79354 9.36089 8.18852 9.52294 7.65181 9.83152C7.1151 10.1401 6.66471 10.5849 6.34381 11.1232C6.09657 11.5341 5.75631 11.8779 5.35187 12.1252C4.94744 12.3726 4.49078 12.5164 4.02061 12.5443V13.4349L2.97614 7L2 7.17014L6.38287 33H33.6172L38 7.17014L37.0239 7ZM32.7777 32.0192H7.18329L4.05965 13.565C4.6659 13.5344 5.25683 13.3592 5.7855 13.0535C6.31417 12.7477 6.76603 12.3198 7.1052 11.8037C7.33184 11.3731 7.66789 11.0133 8.07775 10.7625C8.48761 10.5118 8.95602 10.3794 9.4333 10.3794C9.91059 10.3794 10.379 10.5118 10.7888 10.7625C11.1987 11.0133 11.5348 11.3731 11.7614 11.8037C12.0823 12.342 12.5327 12.7868 13.0694 13.0954C13.6061 13.4039 14.2111 13.566 14.8265 13.566C15.4418 13.566 16.0468 13.4039 16.5835 13.0954C17.1203 12.7868 17.5706 12.342 17.8915 11.8037C18.1397 11.3914 18.4815 11.0468 18.8878 10.7994C19.294 10.5519 19.7527 10.4089 20.2245 10.3826C20.6964 10.4089 21.155 10.5519 21.5612 10.7994C21.9675 11.0468 22.3093 11.3914 22.5575 11.8037C22.8796 12.3419 23.331 12.7864 23.8685 13.0947C24.4059 13.4031 25.0115 13.565 25.6274 13.565C26.2433 13.565 26.8489 13.4031 27.3864 13.0947C27.9239 12.7864 28.3753 12.3419 28.6974 11.8037C28.9465 11.3901 29.2899 11.0446 29.6979 10.7971C30.106 10.5496 30.5666 10.4073 31.0401 10.3826C31.512 10.4089 31.9706 10.5519 32.3769 10.7994C32.7831 11.0468 33.1249 11.3914 33.3731 11.8037C33.9717 12.6908 34.8806 13.3073 35.9111 13.525L32.7777 32.0192Z" fill="#555555"/>
<path d="M17.9306 22.1617C18.2285 22.0424 18.4933 21.85 18.7017 21.6012C19.0365 21.1903 19.2074 20.6648 19.18 20.1301C19.2012 19.7627 19.1391 19.3954 18.9985 19.0568C18.8579 18.7182 18.6428 18.4176 18.3698 18.1786C17.7084 17.6872 16.901 17.4467 16.0857 17.4981C15.568 17.4492 15.0475 17.5533 14.5856 17.798C14.1238 18.0428 13.7399 18.4179 13.4794 18.8791C13.181 19.4581 13.0331 20.106 13.0499 20.7606H14.2505C14.2466 20.3104 14.3434 19.8653 14.5336 19.4596C14.7114 19.1763 14.9627 18.9494 15.2592 18.8044C15.5558 18.6595 15.886 18.6022 16.2126 18.639C16.6426 18.6283 17.0631 18.7697 17.4035 19.0393C17.5741 19.1715 17.7105 19.3447 17.8007 19.5436C17.8909 19.7425 17.9322 19.9611 17.9208 20.1801C17.9441 20.4634 17.8828 20.7472 17.7451 20.9938C17.6073 21.2405 17.3997 21.4384 17.1497 21.5612C16.7988 21.7168 16.419 21.7919 16.0369 21.7814H15.4414V22.8822H15.9393C16.531 22.8477 17.1201 22.9866 17.6377 23.2825C17.8493 23.4484 18.0159 23.667 18.1218 23.9174C18.2277 24.1679 18.2694 24.442 18.2429 24.7136C18.2506 24.97 18.203 25.2249 18.1034 25.4602C18.0039 25.6955 17.8549 25.9053 17.667 26.0747C17.2343 26.4393 16.6841 26.625 16.1247 26.5951C15.7994 26.6321 15.4704 26.5792 15.1718 26.4419C14.8731 26.3047 14.6157 26.0881 14.4262 25.8145C14.201 25.3868 14.0804 24.9094 14.0748 24.4234H12.8059C12.7804 25.2736 13.0541 26.1048 13.577 26.7652C13.8893 27.1137 14.2747 27.385 14.7043 27.5583C15.1338 27.7317 15.5962 27.8027 16.0564 27.766C16.5235 27.799 16.9924 27.7374 17.4362 27.5846C17.8801 27.4318 18.2902 27.1907 18.6432 26.8753C18.9458 26.5802 19.1834 26.2221 19.34 25.8251C19.4966 25.4281 19.5685 25.0014 19.551 24.5735C19.566 24.0392 19.4156 23.5137 19.1215 23.0724C18.8488 22.6275 18.4242 22.3028 17.9306 22.1617Z" fill="#555555"/>
<path d="M23.885 17.5181C23.2283 17.508 22.5873 17.7245 22.065 18.1329C21.5427 18.5413 21.1696 19.1178 21.0054 19.7698C20.7045 20.702 20.5625 21.6804 20.5857 22.662C20.5316 23.8618 20.7733 25.0561 21.2885 26.1347C21.5307 26.6184 21.9032 27.0206 22.3617 27.2938C22.8202 27.5669 23.3455 27.6996 23.8753 27.6759C24.4735 27.6975 25.0633 27.5267 25.5621 27.1875C26.0609 26.8484 26.4439 26.3578 26.6573 25.7845C27.0803 24.7286 27.2799 23.5927 27.243 22.4519C27.2984 21.2961 27.0737 20.1443 26.5889 19.0993C26.3363 18.5954 25.9462 18.1776 25.4661 17.8969C24.9861 17.6161 24.4367 17.4845 23.885 17.5181ZM25.3688 25.6944C25.1886 25.9963 24.9244 26.236 24.6102 26.3825C24.2959 26.529 23.9461 26.5756 23.6057 26.5164C23.2654 26.4572 22.9502 26.2948 22.7007 26.0501C22.4512 25.8055 22.279 25.4899 22.2061 25.144C21.9703 24.3569 21.8647 23.5349 21.8937 22.7121C21.8433 21.687 22.0098 20.6628 22.3818 19.7098C22.5162 19.401 22.7377 19.1407 23.0179 18.9623C23.298 18.7839 23.6239 18.6957 23.9534 18.709C24.2955 18.6828 24.6364 18.7751 24.9213 18.971C25.2063 19.167 25.4188 19.4553 25.525 19.7898C25.8244 20.6842 25.9633 21.6268 25.9349 22.572C26.0164 23.6457 25.8211 24.7224 25.3688 25.6944Z" fill="#555555"/>
</svg>
