<svg width="38" height="25" viewBox="0 0 38 25" fill="none" xmlns="http://www.w3.org/2000/svg">
<g clip-path="url(#clip0_4901_40207)">
<path opacity="0.07" d="M35 0.988281H3C1.3 0.988281 0 2.28828 0 3.98828V21.9883C0 23.6883 1.4 24.9883 3 24.9883H35C36.7 24.9883 38 23.6883 38 21.9883V3.98828C38 2.28828 36.6 0.988281 35 0.988281Z" fill="black"/>
<path d="M35 1.98828C36.1 1.98828 37 2.88828 37 3.98828V21.9883C37 23.0883 36.1 23.9883 35 23.9883H3C1.9 23.9883 1 23.0883 1 21.9883V3.98828C1 2.88828 1.9 1.98828 3 1.98828H35Z" fill="white"/>
<path d="M28.3 11.0883H28C27.6 12.0883 27.3 12.5883 27 14.0883H28.9C28.6 12.5883 28.6 11.8883 28.3 11.0883ZM31.2 16.9883H29.5C29.4 16.9883 29.4 16.9883 29.3 16.8883L29.1 15.9883L29 15.7883H26.6C26.5 15.7883 26.4 15.7883 26.4 15.9883L26.1 16.8883C26.1 16.9883 26 16.9883 26 16.9883H23.9L24.1 16.4883L27 9.68828C27 9.18828 27.3 8.98828 27.8 8.98828H29.3C29.4 8.98828 29.5 8.98828 29.5 9.18828L30.9 15.6883C31 16.0883 31.1 16.3883 31.1 16.7883C31.2 16.8883 31.2 16.8883 31.2 16.9883ZM17.8 16.6883L18.2 14.8883C18.3 14.8883 18.4 14.9883 18.4 14.9883C19.1 15.2883 19.8 15.4883 20.5 15.3883C20.7 15.3883 21 15.2883 21.2 15.1883C21.7 14.9883 21.7 14.4883 21.3 14.0883C21.1 13.8883 20.8 13.7883 20.5 13.5883C20.1 13.3883 19.7 13.1883 19.4 12.8883C18.2 11.8883 18.6 10.4883 19.3 9.78828C19.9 9.38828 20.2 8.98828 21 8.98828C22.2 8.98828 23.5 8.98828 24.1 9.18828H24.2C24.1 9.78828 24 10.2883 23.8 10.8883C23.3 10.6883 22.8 10.4883 22.3 10.4883C22 10.4883 21.7 10.4883 21.4 10.5883C21.2 10.5883 21.1 10.6883 21 10.7883C20.8 10.9883 20.8 11.2883 21 11.4883L21.5 11.8883C21.9 12.0883 22.3 12.2883 22.6 12.4883C23.1 12.7883 23.6 13.2883 23.7 13.8883C23.9 14.7883 23.6 15.5883 22.8 16.1883C22.3 16.5883 22.1 16.7883 21.4 16.7883C20 16.7883 18.9 16.8883 18 16.5883C17.9 16.7883 17.9 16.7883 17.8 16.6883ZM14.3 16.9883C14.4 16.2883 14.4 16.2883 14.5 15.9883C15 13.7883 15.5 11.4883 15.9 9.28828C16 9.08828 16 8.98828 16.2 8.98828H18C17.8 10.1883 17.6 11.0883 17.3 12.1883C17 13.6883 16.7 15.1883 16.3 16.6883C16.3 16.8883 16.2 16.8883 16 16.8883L14.3 16.9883ZM5 9.18828C5 9.08828 5.2 8.98828 5.3 8.98828H8.7C9.2 8.98828 9.6 9.28828 9.7 9.78828L10.6 14.1883C10.6 14.2883 10.6 14.2883 10.7 14.3883C10.7 14.2883 10.8 14.2883 10.8 14.2883L12.9 9.18828C12.8 9.08828 12.9 8.98828 13 8.98828H15.1C15.1 9.08828 15.1 9.08828 15 9.18828L11.9 16.4883C11.8 16.6883 11.8 16.7883 11.7 16.8883C11.6 16.9883 11.4 16.8883 11.2 16.8883H9.7C9.6 16.8883 9.5 16.8883 9.5 16.6883L7.9 10.4883C7.7 10.2883 7.4 9.98828 7 9.88828C6.4 9.58828 5.3 9.38828 5.1 9.38828L5 9.18828Z" fill="#142688"/>
</g>
<defs>
<clipPath id="clip0_4901_40207">
<rect width="38" height="24" fill="white" transform="translate(0 0.988281)"/>
</clipPath>
</defs>
</svg>
