<svg width="38" height="25" viewBox="0 0 38 25" fill="none" xmlns="http://www.w3.org/2000/svg">
<g clip-path="url(#clip0_4901_40242)">
<path d="M35 0.988281H3C2.20435 0.988281 1.44129 1.30435 0.87868 1.86696C0.31607 2.42957 0 3.19263 0 3.98828L0 21.9883C0 22.7839 0.31607 23.547 0.87868 24.1096C1.44129 24.6722 2.20435 24.9883 3 24.9883H35C35.7957 24.9883 36.5587 24.6722 37.1213 24.1096C37.6839 23.547 38 22.7839 38 21.9883V3.98828C38 3.19263 37.6839 2.42957 37.1213 1.86696C36.5587 1.30435 35.7957 0.988281 35 0.988281V0.988281Z" fill="#E8E8E8"/>
<path d="M35 1.98828C35.5304 1.98828 36.0391 2.19899 36.4142 2.57407C36.7893 2.94914 37 3.45785 37 3.98828V21.9883C37 22.5187 36.7893 23.0274 36.4142 23.4025C36.0391 23.7776 35.5304 23.9883 35 23.9883H3C2.46957 23.9883 1.96086 23.7776 1.58579 23.4025C1.21071 23.0274 1 22.5187 1 21.9883V3.98828C1 3.45785 1.21071 2.94914 1.58579 2.57407C1.96086 2.19899 2.46957 1.98828 3 1.98828H35Z" fill="white"/>
<path d="M21.1896 4.98834C21.0941 5.10636 21.0494 5.25747 21.0653 5.40844C21.0813 5.55941 21.1565 5.69786 21.2746 5.79334C21.3926 5.88881 21.5437 5.9335 21.6947 5.91756C21.8456 5.90162 21.9841 5.82636 22.0796 5.70834C22.4909 5.25065 23.0362 4.9346 23.6378 4.8053C24.2394 4.676 24.8665 4.74006 25.4296 4.98834C26.9896 5.53834 27.2096 7.90834 27.2196 7.93834C27.2258 8.04346 27.2621 8.14457 27.3242 8.22965C27.3862 8.31474 27.4714 8.38023 27.5696 8.41834C28.3252 8.65294 28.9861 9.12301 29.4557 9.75988C29.9252 10.3968 30.1789 11.1671 30.1796 11.9583C30.1794 12.1598 30.1593 12.3608 30.1196 12.5583C30.104 12.7108 30.1454 12.8637 30.2359 12.9874C30.3264 13.1112 30.4595 13.197 30.6096 13.2283C31.1779 13.322 31.6894 13.6283 32.0403 14.0851C32.3913 14.5419 32.5554 15.115 32.4996 15.6883C32.4582 16.3528 32.1969 16.9846 31.757 17.4843C31.3171 17.984 30.7234 18.3231 30.0696 18.4483C29.9398 18.4699 29.822 18.5372 29.7376 18.6381C29.6532 18.739 29.6078 18.8668 29.6096 18.9983V21.2083H8.86955V12.9283C8.86955 12.8561 8.85532 12.7846 8.82768 12.7179C8.80005 12.6511 8.75953 12.5905 8.70846 12.5394C8.65739 12.4884 8.59676 12.4478 8.53003 12.4202C8.4633 12.3926 8.39178 12.3783 8.31955 12.3783H6.31955L13.3796 4.98834L15.9996 7.61834C16.1087 7.71544 16.2509 7.76695 16.3968 7.76226C16.5428 7.75756 16.6814 7.697 16.7841 7.59309C16.8867 7.48918 16.9455 7.34983 16.9484 7.20381C16.9513 7.05778 16.898 6.91622 16.7996 6.80834L13.7996 3.80834C13.7484 3.75694 13.6877 3.71615 13.6207 3.68831C13.5538 3.66048 13.482 3.64615 13.4096 3.64615C13.3371 3.64615 13.2653 3.66048 13.1984 3.68831C13.1314 3.71615 13.0707 3.75694 13.0196 3.80834L4.54955 12.5883C4.44588 12.6581 4.36906 12.7611 4.33174 12.8804C4.29442 12.9996 4.29883 13.128 4.34423 13.2445C4.38964 13.3609 4.47333 13.4584 4.58154 13.5209C4.68975 13.5834 4.81602 13.6072 4.93955 13.5883H7.69955V21.8983C7.69955 22.0442 7.7575 22.1841 7.86064 22.2872C7.96379 22.3904 8.10368 22.4483 8.24955 22.4483H30.1696C30.3154 22.4483 30.4553 22.3904 30.5585 22.2872C30.6616 22.1841 30.7196 22.0442 30.7196 21.8983V19.4983C31.5486 19.2802 32.2823 18.7943 32.8068 18.1161C33.3312 17.438 33.6169 16.6056 33.6196 15.7483C33.677 14.9885 33.4775 14.2315 33.0532 13.5986C32.6289 12.9657 32.0042 12.4937 31.2796 12.2583V11.9883C31.273 11.0362 30.9846 10.1073 30.4506 9.31888C29.9167 8.53046 29.1613 7.91785 28.2796 7.55834C28.1596 6.77834 27.6696 4.60834 25.8196 3.94834C25.0379 3.60483 24.1668 3.52047 23.3337 3.7076C22.5006 3.89473 21.7492 4.34352 21.1896 4.98834Z" fill="#004097"/>
<path d="M12.1103 8.8284C11.9644 8.88151 11.8383 8.97802 11.7489 9.10495C11.6595 9.23188 11.6111 9.38315 11.6103 9.5384V13.2584C11.6103 13.46 11.6903 13.6533 11.8329 13.7958C11.9754 13.9383 12.1687 14.0184 12.3703 14.0184C12.5718 14.0184 12.7651 13.9383 12.9077 13.7958C13.0502 13.6533 13.1303 13.46 13.1303 13.2584V11.5984L13.6203 12.1484C13.6882 12.2291 13.7722 12.2948 13.8669 12.3413C13.9615 12.3878 14.0649 12.414 14.1703 12.4184C14.2741 12.416 14.3763 12.3926 14.4708 12.3496C14.5653 12.3066 14.6502 12.245 14.7203 12.1684L15.3703 11.4584V13.2584C15.3703 13.46 15.4503 13.6533 15.5929 13.7958C15.7354 13.9383 15.9287 14.0184 16.1303 14.0184C16.3318 14.0184 16.5251 13.9383 16.6677 13.7958C16.8102 13.6533 16.8903 13.46 16.8903 13.2584V9.5384C16.8979 9.3822 16.8572 9.22744 16.7737 9.09524C16.6901 8.96304 16.5678 8.85982 16.4235 8.79967C16.2791 8.73952 16.1197 8.72537 15.967 8.75915C15.8143 8.79292 15.6758 8.87298 15.5703 8.9884L14.2103 10.5384L12.9403 9.0484C12.8402 8.93233 12.7074 8.84921 12.5593 8.80995C12.4112 8.77069 12.2547 8.77712 12.1103 8.8284ZM17.8703 9.5384V13.2884C17.8703 13.49 17.9503 13.6833 18.0929 13.8258C18.2354 13.9683 18.4287 14.0484 18.6303 14.0484C18.8318 14.0484 19.0251 13.9683 19.1677 13.8258C19.3102 13.6833 19.3903 13.49 19.3903 13.2884V9.5384C19.3903 9.33683 19.3102 9.14352 19.1677 9.00099C19.0251 8.85847 18.8318 8.7784 18.6303 8.7784C18.4287 8.7784 18.2354 8.85847 18.0929 9.00099C17.9503 9.14352 17.8703 9.33683 17.8703 9.5384ZM25.4203 9.5384V13.2884C25.4203 13.49 25.5003 13.6833 25.6429 13.8258C25.7854 13.9683 25.9787 14.0484 26.1803 14.0484C26.3818 14.0484 26.5751 13.9683 26.7177 13.8258C26.8602 13.6833 26.9403 13.49 26.9403 13.2884V9.5384C26.9403 9.33683 26.8602 9.14352 26.7177 9.00099C26.5751 8.85847 26.3818 8.7784 26.1803 8.7784C25.9787 8.7784 25.7854 8.85847 25.6429 9.00099C25.5003 9.14352 25.4203 9.33683 25.4203 9.5384ZM20.9103 8.8084C20.7534 8.85347 20.6153 8.94781 20.5162 9.07748C20.4172 9.20714 20.3625 9.36524 20.3603 9.5284V13.2784C20.3603 13.48 20.4403 13.6733 20.5829 13.8158C20.7254 13.9583 20.9187 14.0384 21.1203 14.0384C21.3218 14.0384 21.5151 13.9583 21.6577 13.8158C21.8002 13.6733 21.8803 13.48 21.8803 13.2784V11.9884L23.1003 13.7484C23.1935 13.88 23.3263 13.9785 23.4792 14.0296C23.6322 14.0808 23.7975 14.0819 23.9511 14.0329C24.1048 13.9839 24.2389 13.8873 24.334 13.7571C24.4291 13.6268 24.4804 13.4697 24.4803 13.3084V9.5384C24.4803 9.43859 24.4606 9.33976 24.4224 9.24756C24.3842 9.15535 24.3282 9.07157 24.2577 9.00099C24.1871 8.93042 24.1033 8.87444 24.0111 8.83625C23.9189 8.79805 23.8201 8.7784 23.7203 8.7784C23.6205 8.7784 23.5216 8.79805 23.4294 8.83625C23.3372 8.87444 23.2534 8.93042 23.1829 9.00099C23.1123 9.07157 23.0563 9.15535 23.0181 9.24756C22.9799 9.33976 22.9603 9.43859 22.9603 9.5384V10.8684L21.7403 9.1084C21.6504 8.97822 21.5221 8.87935 21.3733 8.82557C21.2245 8.7718 21.0626 8.76579 20.9103 8.8084ZM12.5303 18.8984C12.2103 19.0184 11.9103 18.7584 11.7203 18.5184C11.6787 18.4302 11.6178 18.3525 11.5421 18.2911C11.4664 18.2297 11.3778 18.186 11.283 18.1635C11.1881 18.1409 11.0894 18.1399 10.9942 18.1606C10.8989 18.1814 10.8095 18.2233 10.7327 18.2832C10.6558 18.3432 10.5934 18.4197 10.5501 18.507C10.5068 18.5944 10.4837 18.6904 10.4825 18.7878C10.4813 18.8853 10.502 18.9818 10.5432 19.0702C10.5844 19.1586 10.6449 19.2366 10.7203 19.2984C10.9641 19.6527 11.3157 19.9189 11.7228 20.0576C12.1299 20.1963 12.5708 20.2001 12.9803 20.0684C13.3465 19.925 13.6623 19.6768 13.8881 19.3549C14.114 19.0329 14.24 18.6515 14.2503 18.2584C14.2266 17.9097 14.0928 17.5774 13.8681 17.3096C13.6435 17.0419 13.3396 16.8523 13.0003 16.7684C12.2703 16.5384 12.1603 16.2984 12.1403 16.2484C12.1203 16.1984 12.0303 15.8384 12.6403 15.8684C12.8562 15.9177 13.0496 16.0373 13.1903 16.2084C13.3047 16.3055 13.4493 16.36 13.5994 16.3626C13.7495 16.3652 13.8958 16.3158 14.0136 16.2227C14.1314 16.1297 14.2134 15.9987 14.2456 15.8521C14.2778 15.7055 14.2582 15.5522 14.1903 15.4184C13.8181 14.9494 13.275 14.6473 12.6803 14.5784C12.3952 14.5721 12.1121 14.6269 11.85 14.739C11.5878 14.8511 11.3527 15.018 11.1603 15.2284L11.0903 15.3084C10.9575 15.5039 10.8705 15.7268 10.8359 15.9605C10.8013 16.1943 10.8199 16.4328 10.8903 16.6584C11.0474 16.9993 11.2836 17.2978 11.5793 17.5291C11.875 17.7604 12.2215 17.9179 12.5903 17.9884C12.6409 17.9969 12.6893 18.0153 12.7327 18.0425C12.7762 18.0697 12.8139 18.1052 12.8436 18.147C12.8733 18.1888 12.8945 18.2361 12.906 18.2861C12.9174 18.3361 12.9189 18.3878 12.9103 18.4384C12.9187 18.5493 12.8839 18.6592 12.813 18.745C12.7422 18.8308 12.6408 18.8858 12.5303 18.8984ZM15.0903 14.7984C14.9988 14.787 14.906 14.7952 14.8179 14.8224C14.7299 14.8496 14.6486 14.8952 14.5796 14.9562C14.5105 15.0172 14.4552 15.0921 14.4173 15.1761C14.3794 15.2601 14.3598 15.3512 14.3598 15.4434C14.3598 15.5355 14.3794 15.6266 14.4173 15.7107C14.4552 15.7947 14.5105 15.8696 14.5796 15.9306C14.6486 15.9916 14.7299 16.0372 14.8179 16.0644C14.906 16.0916 14.9988 16.0998 15.0903 16.0884H17.7203C17.8775 16.0688 18.0222 15.9924 18.127 15.8736C18.2319 15.7548 18.2898 15.6019 18.2898 15.4434C18.2898 15.2849 18.2319 15.1319 18.127 15.0132C18.0222 14.8944 17.8775 14.818 17.7203 14.7984H15.0903Z" fill="#004097"/>
<path d="M15.6309 15.5784V19.3084C15.6309 19.5099 15.7109 19.7032 15.8535 19.8458C15.996 19.9883 16.1893 20.0684 16.3909 20.0684C16.5924 20.0684 16.7857 19.9883 16.9283 19.8458C17.0708 19.7032 17.1509 19.5099 17.1509 19.3084V15.5784C17.1509 15.3768 17.0708 15.1835 16.9283 15.041C16.7857 14.8984 16.5924 14.8184 16.3909 14.8184C16.1893 14.8184 15.996 14.8984 15.8535 15.041C15.7109 15.1835 15.6309 15.3768 15.6309 15.5784ZM26.2909 14.6884H24.8009C24.5993 14.6884 24.406 14.7684 24.2635 14.911C24.1209 15.0535 24.0409 15.2468 24.0409 15.4484V19.3084C24.0409 19.5099 24.1209 19.7032 24.2635 19.8458C24.406 19.9883 24.5993 20.0684 24.8009 20.0684C25.0024 20.0684 25.1957 19.9883 25.3383 19.8458C25.4808 19.7032 25.5609 19.5099 25.5609 19.3084V18.4184H26.2809C26.7821 18.3952 27.2574 18.189 27.6168 17.8388C27.9762 17.4886 28.1947 17.0188 28.2309 16.5184C28.2101 16.0206 27.9956 15.5506 27.6331 15.2087C27.2707 14.8668 26.789 14.6801 26.2909 14.6884ZM26.2109 16.8984H25.6609V15.9884H26.2409C26.2409 15.9884 26.7109 16.0784 26.7109 16.4284C26.7109 16.7784 26.2109 16.8884 26.2109 16.8884V16.8984ZM20.7409 14.5684C20.195 14.5684 19.6614 14.7302 19.2075 15.0335C18.7536 15.3368 18.3998 15.7678 18.191 16.2722C17.9821 16.7765 17.9274 17.3314 18.0339 17.8668C18.1404 18.4022 18.4033 18.894 18.7892 19.28C19.1752 19.666 19.667 19.9288 20.2024 20.0353C20.7378 20.1418 21.2927 20.0872 21.7971 19.8783C22.3014 19.6694 22.7324 19.3156 23.0357 18.8617C23.339 18.4079 23.5009 17.8742 23.5009 17.3284C23.5009 16.5964 23.2101 15.8943 22.6925 15.3767C22.1749 14.8591 21.4729 14.5684 20.7409 14.5684ZM20.7409 18.5684C20.5114 18.5684 20.2872 18.5003 20.0964 18.3729C19.9056 18.2454 19.757 18.0642 19.6692 17.8523C19.5814 17.6403 19.5584 17.4071 19.6031 17.1821C19.6479 16.957 19.7584 16.7503 19.9206 16.5881C20.0828 16.4259 20.2895 16.3154 20.5146 16.2706C20.7396 16.2259 20.9728 16.2489 21.1848 16.3367C21.3967 16.4245 21.5779 16.5731 21.7054 16.7639C21.8328 16.9547 21.9009 17.1789 21.9009 17.4084C21.9009 17.716 21.7786 18.0111 21.5611 18.2286C21.3436 18.4461 21.0485 18.5684 20.7409 18.5684Z" fill="#004097"/>
</g>
<defs>
<clipPath id="clip0_4901_40242">
<rect width="38" height="24" fill="white" transform="translate(0 0.988281)"/>
</clipPath>
</defs>
</svg>
