<svg width="40" height="40" viewBox="0 0 40 40" fill="none" xmlns="http://www.w3.org/2000/svg">
<path d="M20.0053 21.8578C21.0185 21.8578 21.8399 21.0355 21.8399 20.0212C21.8399 19.007 21.0185 18.1847 20.0053 18.1847C18.9921 18.1847 18.1707 19.007 18.1707 20.0212C18.1707 21.0355 18.9921 21.8578 20.0053 21.8578Z" fill="#555555"/>
<path d="M5 5V35H35V5H5ZM34.0456 34.0764H5.9544V5.95544H34.0456V34.0764Z" fill="#555555"/>
<path d="M34.0456 20.0106C34.0456 17.2287 33.2215 14.5092 31.6776 12.1961C30.1337 9.88296 27.9392 8.08011 25.3717 7.01551C22.8043 5.9509 19.9791 5.67232 17.2535 6.21505C14.5279 6.75778 12.0242 8.09743 10.0592 10.0646C8.09413 12.0317 6.75593 14.538 6.21377 17.2665C5.67161 19.995 5.94987 22.8232 7.01335 25.3934C8.07683 27.9636 9.87777 30.1603 12.1884 31.7059C14.4991 33.2515 17.2157 34.0764 19.9947 34.0764C23.7204 34.0736 27.2926 32.5908 29.9271 29.9535C32.5615 27.3163 34.0428 23.7402 34.0456 20.0106ZM19.9947 33.0467C17.4209 33.0383 14.9074 32.2666 12.7715 30.8291C10.6356 29.3916 8.97308 27.3527 7.99395 24.9699C7.01483 22.5872 6.76299 19.9674 7.27024 17.4415C7.77749 14.9155 9.02109 12.5967 10.844 10.7778C12.6668 8.9589 14.9872 7.72154 17.5121 7.22197C20.0371 6.7224 22.6532 6.98304 25.0303 7.97094C27.4073 8.95885 29.4386 10.6297 30.8677 12.7726C32.2967 14.9154 33.0594 17.4341 33.0594 20.0106C33.058 21.7257 32.7188 23.4237 32.0612 25.0075C31.4037 26.5912 30.4406 28.0296 29.2272 29.2404C28.0137 30.4512 26.5737 31.4106 24.9895 32.0638C23.4053 32.7169 21.708 33.0509 19.9947 33.0467Z" fill="#555555"/>
</svg>
