<svg width="40" height="40" viewBox="0 0 40 40" fill="none" xmlns="http://www.w3.org/2000/svg">
<path d="M36.8208 18.2275L38 11.7109L37.0254 11.551L35.9437 17.5598C35.2975 17.3615 34.7428 16.9526 34.3747 16.4032L34.1213 16.1023L34.0043 15.9894C33.6225 15.539 33.1466 15.1713 32.6075 14.9105C32.0685 14.6496 31.4785 14.5014 30.876 14.4755C30.3197 14.5321 29.7807 14.6952 29.2904 14.9551C28.8001 15.2151 28.3684 15.5667 28.0206 15.9894L27.8451 16.1775C27.4245 16.7898 26.8189 17.2625 26.1104 17.5316C26.1592 17.1837 26.1982 16.8451 26.2371 16.5442C26.3248 15.1337 26.3248 15.1337 26.3248 13.3753C26.3315 12.8242 26.2892 12.2737 26.1982 11.7297L26.1494 11.4099L26.1007 11.2783C25.9153 10.7188 25.6209 10.1986 25.2333 9.74553C24.7794 9.37422 24.49 8.84933 24.4245 8.27859C24.3368 7.40407 23.9762 4 23.9762 4L23.294 4.06583C23.294 4.06583 23.6546 7.46988 23.752 8.35381C23.8136 9.07846 24.1627 9.75221 24.7266 10.2345C25.0358 10.6265 25.2762 11.0649 25.438 11.5322L25.4867 11.8519C25.585 12.3635 25.6307 12.8832 25.6232 13.4035C25.6455 14.4419 25.613 15.4808 25.5257 16.516C25.3601 17.9453 24.9994 20.1363 24.8922 20.6535C24.8922 20.7664 24.8922 20.9074 24.8922 21.0767C24.8922 21.4246 24.8241 21.9418 24.8241 22.7505C24.8441 23.5299 24.8017 24.3095 24.6974 25.0826V25.5057C24.5 26.0887 24.3173 26.0793 24.2491 26.0887L23.6546 26.1922V18.5566H22.9724V28.2798C22.9724 29.2201 22.8944 29.8878 22.3194 29.9254C21.7445 29.963 21.5008 29.474 21.4131 28.5901C21.4287 28.418 21.4287 28.245 21.4131 28.0729V18.5284H20.6724V28.0447C20.6724 28.1763 20.6724 28.2798 20.6724 28.3926C20.7161 28.8416 20.6029 29.2917 20.3509 29.6715C20.2986 29.7288 20.234 29.7745 20.1617 29.8053C20.0893 29.8361 20.0109 29.8514 19.9318 29.8501C18.9572 29.7937 18.9572 28.0353 18.9572 27.9694V18.5284H18.2751V28.0447C18.2751 28.1387 18.275 28.938 17.5344 28.938C16.7937 28.938 16.706 28.1951 16.6963 28.0447V16.0835H16.0238C15.922 16.9183 15.7723 17.7471 15.5755 18.566V18.6506C15.5208 19.1237 15.3008 19.5648 14.9518 19.9013C14.7882 20.0871 14.5804 20.2319 14.3463 20.3236C14.1121 20.4153 13.8585 20.4511 13.6069 20.4279C13.541 20.44 13.4729 20.4351 13.4096 20.4137C13.3462 20.3922 13.2899 20.3549 13.2464 20.3056C13.1972 20.2434 13.1623 20.1719 13.1438 20.0957C13.1253 20.0195 13.1237 19.9404 13.1391 19.8636C13.4503 19.4334 13.6781 18.9523 13.8116 18.4437C13.8116 18.2275 13.8993 18.0018 13.9578 17.7291C14.0162 17.4564 14.1527 16.8827 14.2599 16.2809C14.4647 15.1638 14.5561 14.03 14.5328 12.8957C14.5286 11.926 14.731 10.9658 15.1272 10.0746C15.5612 9.31017 16.1436 8.63338 16.8425 8.0811L16.9789 7.85543L17.4272 4.09404L16.7548 4.01883L16.3162 7.62975C15.5835 8.23482 14.9723 8.96474 14.5133 9.78313C14.0776 10.7601 13.8553 11.8133 13.8603 12.8769C13.8833 13.9706 13.7919 15.0638 13.5875 16.1399C13.5095 16.5912 13.4315 16.9674 13.3633 17.2871C12.9533 16.9897 12.606 16.6195 12.34 16.1963L12.2133 16.0553C11.821 15.6009 11.3371 15.2282 10.791 14.9599C10.2448 14.6915 9.64783 14.5331 9.03628 14.4943C7.97477 14.5744 6.98973 15.0581 6.29778 15.839C6.20934 15.9265 6.11491 16.0081 6.01515 16.0835L5.91769 16.1963C5.47571 16.8436 4.81966 17.3275 4.05632 17.5692L2.97455 11.5698L2 11.7297L6.37573 36H33.5658L36.7136 18.519L36.8208 18.472V18.2275ZM32.7959 35.0409H7.25286L4.27073 18.4907C5.27773 18.2112 6.14846 17.5944 6.72659 16.7511L7.00922 16.4972C7.53245 15.8989 8.27014 15.5127 9.07527 15.4158C9.55554 15.4584 10.0221 15.5936 10.4472 15.8132C10.8724 16.0329 11.2476 16.3326 11.5506 16.6947C11.9429 17.3349 12.5002 17.8662 13.1684 18.2369C13.0638 18.6626 12.8753 19.0648 12.6129 19.4217L12.5349 19.5533C12.4674 19.7428 12.4507 19.9457 12.4865 20.143C12.5223 20.3404 12.6094 20.5257 12.7396 20.6817C12.8514 20.8225 13.0023 20.9299 13.1748 20.9915C13.3472 21.0531 13.5342 21.0663 13.7141 21.0297C14.0392 21.0536 14.3657 21.0049 14.6682 20.8875C14.9707 20.7701 15.2411 20.5871 15.4586 20.3526C15.7345 20.1197 15.9484 19.8262 16.0823 19.4969V28.0353C16.0703 28.2349 16.1008 28.4348 16.1719 28.6227C16.2429 28.8105 16.353 28.9824 16.4953 29.1277C16.6377 29.273 16.8094 29.3887 16.9998 29.4676C17.1902 29.5466 17.3954 29.5872 17.6026 29.5868C17.9361 29.5968 18.2607 29.4823 18.5089 29.2671C18.5743 29.6018 18.7501 29.9072 19.01 30.1376C19.27 30.3681 19.6001 30.5113 19.9513 30.546C20.1345 30.5512 20.3166 30.5177 20.4849 30.4479C20.6533 30.378 20.8038 30.2735 20.9258 30.1417C20.9985 30.0616 21.0607 29.9731 21.111 29.8784C21.2357 30.0849 21.4152 30.2557 21.631 30.373C21.8469 30.4904 22.0912 30.5501 22.3389 30.546C23.713 30.4426 23.6643 28.891 23.6448 28.2233V26.8222L24.3465 26.7094C24.6184 26.644 24.8607 26.4947 25.0366 26.2842C25.2125 26.0737 25.3124 25.8136 25.3211 25.5433V25.1296C25.4353 24.329 25.481 23.5207 25.4575 22.7129C25.4575 21.923 25.4575 21.4434 25.5257 21.0861C25.5257 20.898 25.5257 20.7476 25.5257 20.6817C25.5842 20.3996 25.7304 19.4969 25.8863 18.5095C26.9663 18.28 27.9105 17.6524 28.5176 16.7605L28.6443 16.6288C29.1774 15.9746 29.9464 15.5381 30.7981 15.4064C31.2684 15.4363 31.7271 15.5604 32.1449 15.7709C32.5627 15.9814 32.9305 16.2736 33.2247 16.6288L33.3222 16.7323C33.3983 16.8131 33.4699 16.8979 33.5366 16.9862C34.0498 17.7157 34.8176 18.243 35.7001 18.472L32.7959 35.0409Z" fill="#555555"/>
</svg>
