<svg width="18" height="18" viewBox="0 0 18 18" fill="none" xmlns="http://www.w3.org/2000/svg">
<path d="M12.6875 16.9991C11.2465 16.9991 9.59233 16.6255 7.89013 15.6433C5.52862 14.4335 3.34306 11.8299 2.56314 9.29791C1.65445 6.89832 1.79593 2.96338 3.35122 1.2639L3.59335 1L7.67338 1.35731L8.62379 5.63232L6.83634 6.78949C7.16463 8.98957 8.9811 11.1262 11.1286 11.8372L12.5442 10.3054L16.5925 11.9886L16.2316 16.114L15.8715 16.2963C15.0472 16.7125 13.949 17 12.6875 17V16.9991ZM4.21547 2.51085C3.34124 3.84215 3.1771 6.84662 3.92708 8.80275L3.94341 8.85082C4.60271 11.0137 6.54614 13.3308 8.56575 14.3592L8.60021 14.3782C11.0841 15.8165 13.3921 15.7467 14.8586 15.1627L15.0544 12.9209L12.9224 12.0349L11.602 13.4632L11.1875 13.3625C8.1105 12.6162 5.54404 9.58902 5.34453 6.47209V6.4612L5.32186 6.04132L6.98869 4.96305L6.4881 2.71127L4.21638 2.51267L4.21547 2.51085Z" fill="#555555" fill-opacity="0.5"/>
</svg>
