<svg width="40" height="40" viewBox="0 0 40 40" fill="none" xmlns="http://www.w3.org/2000/svg">
<path d="M33.8541 30.2291V9.82045L35 8.8307L33.8541 7.43515V6H6.14595V7.44505L5 8.87027L6.14595 9.86001V30.2588L5 31.2485L6.14595 32.654V34H33.8541V32.555L35 31.1594L33.8541 30.2291ZM32.9726 29.4967L30.6219 27.5172C32.1521 25.3229 32.9735 22.7042 32.9735 20.0198C32.9735 17.3354 32.1521 14.7167 30.6219 12.5224L32.9726 10.5429V29.4967ZM18.3399 20.0347L10.1126 26.9134C8.72591 24.8914 7.98289 22.4898 7.98289 20.0297C7.98289 17.5696 8.72591 15.168 10.1126 13.146L18.3399 20.0347ZM11.4838 11.4931C12.6 10.35 13.9297 9.44231 15.3959 8.82278C16.862 8.20326 18.4353 7.88423 20.0245 7.88423C21.6136 7.88423 23.187 8.20326 24.6531 8.82278C26.1192 9.44231 27.449 10.35 28.5651 11.4931L20.0245 18.649L11.4838 11.4931ZM20.0245 21.3906L28.5651 28.5366C27.4497 29.6809 26.1201 30.5897 24.6539 31.21C23.1877 31.8302 21.614 32.1497 20.0245 32.1497C18.4349 32.1497 16.8613 31.8302 15.395 31.21C13.9288 30.5897 12.5993 29.6809 11.4838 28.5366L20.0245 21.3906ZM21.6797 19.9951L29.9167 13.0668C31.3004 15.0919 32.0414 17.4946 32.0414 19.9555C32.0414 22.4164 31.3004 24.819 29.9167 26.8441L21.6797 19.9951ZM32.9921 6.89077V7.74197L29.2899 10.8498C28.085 9.59722 26.6438 8.6016 25.0515 7.92172C23.4592 7.24184 21.7482 6.89152 20.0196 6.89152C18.291 6.89152 16.5799 7.24184 14.9876 7.92172C13.3954 8.6016 11.9541 9.59722 10.7493 10.8498L7.04701 7.75187V6.89077H32.9921ZM7.04701 10.5429L9.39764 12.5224C7.86743 14.7167 7.04608 17.3354 7.04608 20.0198C7.04608 22.7042 7.86743 25.3229 9.39764 27.5172L7.04701 29.4967V10.5429ZM20.0245 33.1092H7.02743V32.2482L10.7297 29.1502C11.9346 30.4028 13.3758 31.3984 14.9681 32.0783C16.5604 32.7582 18.2714 33.1085 20 33.1085C21.7286 33.1085 23.4396 32.7582 25.0319 32.0783C26.6242 31.3984 28.0654 30.4028 29.2703 29.1502L32.9726 32.2482V33.1092H20.0245Z" fill="#555555"/>
</svg>
