<svg width="40" height="40" viewBox="0 0 40 40" fill="none" xmlns="http://www.w3.org/2000/svg">
<path d="M19.9903 5C17.0236 5.00191 14.1241 5.88352 11.6584 7.53333C9.19274 9.18314 7.27167 11.5271 6.13812 14.2687C5.00457 17.0103 4.70946 20.0265 5.29012 22.9358C5.87077 25.8452 7.3011 28.517 9.40024 30.6134C11.4994 32.7099 14.173 34.1367 17.0831 34.7136C19.9932 35.2905 23.009 34.9916 25.7492 33.8545C28.4893 32.7174 30.8308 30.7933 32.4774 28.3255C34.1241 25.8577 35.0019 22.9571 35 19.9903C34.9923 16.0137 33.4079 12.2024 30.5941 9.39223C27.7804 6.5821 23.967 5.00255 19.9903 5ZM19.9903 33.9949C17.214 33.9929 14.5005 33.1675 12.1934 31.623C9.88622 30.0786 8.08904 27.8845 7.02922 25.3183C5.96939 22.7522 5.69456 19.9293 6.23949 17.207C6.78442 14.4846 8.12463 11.985 10.0905 10.0245C12.0564 8.06399 14.5597 6.73068 17.2836 6.19325C20.0075 5.65583 22.8295 5.93848 25.3927 7.00537C27.956 8.07226 30.1451 9.87549 31.6832 12.1869C33.2213 14.4983 34.0392 17.214 34.0335 19.9903C34.031 23.714 32.5506 27.2845 29.9175 29.9176C27.2845 32.5506 23.714 34.031 19.9903 34.0335V33.9949Z" fill="#555555"/>
<path d="M22.3003 13.3408H15.7281V28.0412H17.7191V21.8267H22.3003C22.9074 21.8768 23.518 21.7879 24.0857 21.5669C24.6534 21.3458 25.1633 20.9984 25.5767 20.5509C26.287 19.716 26.6684 18.6507 26.6495 17.5547C26.6845 16.9819 26.5956 16.4082 26.3888 15.8728C26.182 15.3374 25.8621 14.8529 25.451 14.4523C24.5837 13.689 23.4546 13.2907 22.3003 13.3408ZM23.808 19.5844C23.1637 19.988 22.4123 20.1868 21.6527 20.1546H17.7191V15.0516H21.6527C22.2681 15.0243 22.8819 15.1331 23.4504 15.3705C23.8462 15.5742 24.1714 15.8926 24.3834 16.284C24.5955 16.6754 24.6846 17.1216 24.6392 17.5644C24.6798 17.9437 24.625 18.3271 24.4799 18.6799C24.3347 19.0326 24.1038 19.3436 23.808 19.5844Z" fill="#555555"/>
</svg>
