<svg width="35" height="35" viewBox="0 0 35 35" fill="none" xmlns="http://www.w3.org/2000/svg">
<path d="M35.7318 19.3004C34.9304 13.6222 31.2349 7.67345 23.2587 8.01396C18.7989 8.20365 15.315 10.3757 13.1855 14.297C12.2781 15.9934 11.667 17.8341 11.3787 19.7389L5.356 25.3922C5.17264 25.5648 5.05201 25.7943 5.01338 26.044C4.97475 26.2937 5.02034 26.5493 5.14289 26.7698C5.26226 26.9857 5.44995 27.1552 5.67607 27.2513C5.90219 27.3474 6.15374 27.3645 6.39066 27.3C7.65851 26.9564 11.2706 28.4957 13.1592 30.9632C13.6256 31.5909 14.2299 32.1014 14.9248 32.4547C15.6198 32.8081 16.3865 32.9947 17.165 33H17.2948C19.8907 33 22.502 31.3068 23.8718 29.6929L28.2946 25.3285C30.3661 25.3078 32.4323 25.1133 34.4717 24.747H34.5119C36.2893 24.3054 35.8863 20.4666 35.7318 19.3004ZM22.4356 28.2842L22.3708 28.3542C21.2527 29.6913 19.1278 31.0207 17.2114 30.9803C16.7329 30.9799 16.2612 30.8664 15.8342 30.649C15.4072 30.4316 15.0368 30.1164 14.7529 29.7286C13.1947 27.698 10.4953 26.008 8.24378 25.442L12.4319 21.5052C16.569 24.1484 21.4581 25.0611 25.4779 25.2787L22.4356 28.2842ZM33.7382 22.8299C31.7973 23.1425 29.8355 23.3047 27.8699 23.315C23.7807 23.3508 18.0206 22.735 13.4063 19.7389C13.6776 18.1764 14.1958 16.6677 14.9413 15.2703C16.7435 11.957 19.5741 10.1969 23.3421 10.0368C27.2105 9.8813 30.1199 11.3677 31.9901 14.4805C33.9806 17.7954 34.064 21.7368 33.7351 22.8299H33.7382Z" fill="#555555" fill-opacity="0.5"/>
</svg>
