<svg width="40" height="40" viewBox="0 0 40 40" fill="none" xmlns="http://www.w3.org/2000/svg">
<path d="M33.6246 29.2717L38 4.17227L36.9825 4L36.0362 9.40087C35.2401 9.20048 34.5538 8.69886 34.1232 8.00255C33.8126 7.45674 33.3622 7.00273 32.8179 6.68688C32.2735 6.37102 31.6548 6.20463 31.0249 6.20463C30.3949 6.20463 29.7762 6.37102 29.2319 6.68688C28.6876 7.00273 28.2371 7.45674 27.9265 8.00255C27.7142 8.43219 27.3853 8.79402 26.977 9.04705C26.5688 9.30008 26.0976 9.43418 25.6167 9.43418C25.1359 9.43418 24.6646 9.30008 24.2564 9.04705C23.8482 8.79402 23.5193 8.43219 23.307 8.00255C22.997 7.45893 22.548 7.00681 22.0055 6.69229C21.463 6.37777 20.8465 6.21208 20.2188 6.21208C19.591 6.21208 18.9745 6.37777 18.432 6.69229C17.8896 7.00681 17.4405 7.45893 17.1306 8.00255C16.9183 8.43219 16.5894 8.79402 16.1811 9.04705C15.7729 9.30008 15.3016 9.43418 14.8208 9.43418C14.3399 9.43418 13.8687 9.30008 13.4605 9.04705C13.0522 8.79402 12.7233 8.43219 12.511 8.00255C12.2025 7.4587 11.7545 7.00621 11.2128 6.69136C10.6711 6.37651 10.0551 6.21059 9.42793 6.21059C8.80071 6.21059 8.18473 6.37651 7.64302 6.69136C7.10131 7.00621 6.65332 7.4587 6.34483 8.00255C6.10641 8.41055 5.77119 8.75412 5.36851 9.0032C4.96584 9.25228 4.50799 9.39926 4.03505 9.43127V10.1305L3.01752 4.05065L2 4.22293L6.37536 29.3223L33.6246 29.2717ZM7.16902 8.65104C7.38134 8.2214 7.71025 7.85957 8.11848 7.60654C8.52671 7.35351 8.99794 7.21938 9.47879 7.21938C9.95964 7.21938 10.4309 7.35351 10.8391 7.60654C11.2474 7.85957 11.5763 8.2214 11.7886 8.65104C12.0985 9.19466 12.5476 9.64675 13.09 9.96127C13.6325 10.2758 14.249 10.4415 14.8768 10.4415C15.5045 10.4415 16.121 10.2758 16.6635 9.96127C17.206 9.64675 17.655 9.19466 17.965 8.65104C18.606 7.89107 19.1554 7.22229 20.2747 7.22229C21.394 7.22229 21.9333 7.89107 22.5743 8.65104C22.8857 9.19444 23.3358 9.64617 23.8791 9.96037C24.4223 10.2746 25.0394 10.4401 25.6676 10.4401C26.2958 10.4401 26.9129 10.2746 27.4562 9.96037C27.9994 9.64617 28.4496 9.19444 28.7609 8.65104C29.0006 8.24419 29.3362 7.90153 29.7386 7.65262C30.141 7.40371 30.5982 7.25602 31.0707 7.22229C32.1899 7.22229 32.7394 7.89107 33.3906 8.65104C33.969 9.54168 34.875 10.171 35.9141 10.4041L32.7903 28.2584H7.2606L4.14698 10.4446C4.75275 10.4035 5.34 10.2194 5.86018 9.90749C6.38037 9.59562 6.81855 9.16494 7.1385 8.65104H7.16902Z" fill="#555555"/>
<path d="M17.0695 23.8201H18.2906V21.5098H19.7049V20.4965H18.2906V14.2647H17.273L12.857 20.3445V21.5098H17.0797L17.0695 23.8201ZM17.0695 20.4155H14.017L17.0695 16.0583V20.4155Z" fill="#555555"/>
<path d="M23.8869 24.0734C24.4841 24.0938 25.0727 23.928 25.5707 23.5992C26.0686 23.2704 26.4511 22.795 26.6648 22.2394C27.0846 21.2111 27.2822 20.1062 27.2448 18.9968C27.298 17.8769 27.078 16.7609 26.6037 15.7441C26.3502 15.2552 25.9593 14.8502 25.4788 14.5785C24.9982 14.3069 24.4487 14.1802 23.8971 14.214C23.2394 14.201 22.5966 14.4103 22.0736 14.8078C21.5507 15.2053 21.1784 15.7675 21.0175 16.4028C20.7165 17.3073 20.5753 18.257 20.6003 19.2096C20.5453 20.3721 20.7869 21.5294 21.3024 22.5738C21.5447 23.0432 21.9167 23.4339 22.3747 23.6996C22.8326 23.9653 23.3574 24.0951 23.8869 24.0734ZM22.4014 16.3014C22.5277 15.9936 22.7455 15.7316 23.0256 15.5505C23.3056 15.3694 23.6346 15.2779 23.9683 15.2881C24.305 15.262 24.641 15.3472 24.9243 15.5303C25.2075 15.7135 25.4223 15.9845 25.5353 16.3014C25.8341 17.1679 25.972 18.0812 25.9423 18.9968C26.0365 20.0616 25.8433 21.132 25.3827 22.0975C25.2027 22.3905 24.9389 22.6232 24.6252 22.7657C24.3114 22.9083 23.962 22.9542 23.6219 22.8976C23.2817 22.8409 22.9664 22.6843 22.7162 22.4479C22.4661 22.2114 22.2927 21.9059 22.2182 21.5706C21.9826 20.8064 21.876 20.0086 21.9028 19.2096C21.8542 18.2156 22.0244 17.2231 22.4014 16.3014Z" fill="#555555"/>
<path d="M33.9401 31.7441H6.10062V32.7574H33.9401V31.7441Z" fill="#555555"/>
<path d="M33.9401 34.9867H6.10062V36H33.9401V34.9867Z" fill="#555555"/>
</svg>
