<svg width="40" height="40" viewBox="0 0 40 40" fill="none" xmlns="http://www.w3.org/2000/svg">
<path d="M16.7497 18.1741C16.3839 18.172 16.0257 18.2788 15.7206 18.481C15.4156 18.6831 15.1774 18.9715 15.0365 19.3095C14.8955 19.6474 14.8581 20.0197 14.9289 20.379C14.9998 20.7383 15.1757 21.0684 15.4344 21.3273C15.6931 21.5863 16.0229 21.7624 16.3818 21.8334C16.7407 21.9043 17.1126 21.8668 17.4502 21.7257C17.7877 21.5846 18.0758 21.3462 18.2778 21.0408C18.4797 20.7354 18.5864 20.3768 18.5843 20.0106C18.5815 19.5244 18.3873 19.0589 18.0439 18.7151C17.7004 18.3713 17.2354 18.1769 16.7497 18.1741Z" fill="#555555"/>
<path d="M23.2397 18.1741C22.8743 18.1741 22.5171 18.2827 22.2134 18.4861C21.9098 18.6896 21.6733 18.9787 21.5339 19.3169C21.3946 19.655 21.3587 20.0269 21.4307 20.3855C21.5028 20.7441 21.6796 21.0732 21.9387 21.3311C22.1978 21.589 22.5276 21.7641 22.8862 21.8342C23.2449 21.9042 23.6162 21.8661 23.9531 21.7247C24.2901 21.5833 24.5776 21.3449 24.779 21.0397C24.9805 20.7346 25.0869 20.3764 25.0848 20.0106C25.082 19.5226 24.8864 19.0555 24.5407 18.7114C24.1949 18.3672 23.7272 18.1741 23.2397 18.1741Z" fill="#555555"/>
<path d="M5 5V35H35V5H5ZM34.0456 34.0764H5.96501V5.95544H34.0562L34.0456 34.0764Z" fill="#555555"/>
<path d="M34.0456 20.0106C34.0456 17.2287 33.2215 14.5092 31.6776 12.1961C30.1337 9.88296 27.9392 8.08011 25.3717 7.01551C22.8043 5.9509 19.9791 5.67232 17.2535 6.21505C14.5279 6.75778 12.0243 8.09743 10.0592 10.0646C8.09416 12.0317 6.75593 14.538 6.21377 17.2665C5.67161 19.995 5.94986 22.8232 7.01334 25.3934C8.07682 27.9636 9.87776 30.1603 12.1884 31.7059C14.4991 33.2515 17.2157 34.0764 19.9947 34.0764C23.7204 34.0736 27.2926 32.5908 29.9271 29.9535C32.5615 27.3163 34.0428 23.7402 34.0456 20.0106ZM19.9947 33.0467C17.4191 33.0467 14.9014 32.2822 12.7599 30.8497C10.6184 29.4173 8.94932 27.3813 7.96369 24.9993C6.97807 22.6173 6.72016 19.9961 7.22263 17.4674C7.7251 14.9386 8.96536 12.6158 10.7866 10.7927C12.6077 8.96956 14.9281 7.72801 17.4542 7.22501C19.9802 6.72201 22.5986 6.98016 24.9781 7.96683C27.3576 8.9535 29.3914 10.6244 30.8223 12.7681C32.2532 14.9119 33.017 17.4323 33.017 20.0106C33.0114 23.4663 31.6376 26.7788 29.1966 29.2223C26.7557 31.6658 23.4467 33.0411 19.9947 33.0467Z" fill="#555555"/>
</svg>
