<svg width="35" height="35" viewBox="0 0 35 35" fill="none" xmlns="http://www.w3.org/2000/svg">
<path d="M20.2632 34C12.4319 34 7.61249 28.7238 7.41131 28.5L7 28.0437L11.6525 15.1917L10.0833 15.0681C9.61427 15.0301 9.17492 14.8259 8.84628 14.4932C8.51764 14.1604 8.32185 13.7215 8.29502 13.2573L8.08341 9.34139C8.05729 8.88648 8.19632 8.43729 8.47551 8.0746C8.75469 7.71191 9.1557 7.45951 9.60643 7.36281L15.7164 6.03787C15.9257 5.99276 16.1419 5.98932 16.3525 6.02774C16.5631 6.06616 16.7638 6.14568 16.9429 6.26164C17.1211 6.37752 17.2738 6.52773 17.3918 6.70328C17.5099 6.87884 17.5909 7.07612 17.6299 7.28331C17.8788 8.59942 18.764 9.26778 20.2632 9.26778C21.7623 9.26778 22.6475 8.59942 22.8994 7.28184C22.9384 7.07464 23.0194 6.87736 23.1375 6.70181C23.2555 6.52626 23.4082 6.37604 23.5864 6.26016C23.7656 6.14436 23.9663 6.06493 24.1769 6.02652C24.3874 5.9881 24.6036 5.99146 24.8129 6.0364L30.9154 7.36134C31.3664 7.45808 31.7676 7.71069 32.0468 8.07369C32.3261 8.43669 32.4649 8.88623 32.4384 9.34139L32.2238 13.2573C32.197 13.7215 32.0012 14.1604 31.6726 14.4932C31.3439 14.8259 30.9046 15.0301 30.4356 15.0681L28.8663 15.1917L33.5263 28.0437L33.118 28.5C32.9108 28.7238 28.0914 34 20.2632 34ZM9.39333 27.552C10.6481 28.7208 14.6092 31.939 20.2617 31.939C25.9142 31.939 29.8722 28.7223 31.1285 27.5505L26.853 15.7453C26.7497 15.4646 26.7134 15.1642 26.7469 14.8674C26.7805 14.5707 26.8829 14.2856 27.0464 14.0343C27.2098 13.7831 27.4297 13.5726 27.6891 13.4192C27.9484 13.2658 28.2401 13.1736 28.5415 13.1499L30.1479 13.0232L30.3476 9.35022L24.8337 8.15041C24.2496 10.1511 22.5745 11.3288 20.2632 11.3288C17.9518 11.3288 16.2753 10.1511 15.6926 8.15041L10.1787 9.35022L10.3799 13.0306L11.9849 13.1572C12.2871 13.1811 12.5796 13.2739 12.8394 13.4282C13.0993 13.5825 13.3194 13.7941 13.4825 14.0466C13.6457 14.299 13.7474 14.5853 13.7797 14.8831C13.812 15.1809 13.7741 15.4821 13.6688 15.7629L9.39333 27.552Z" fill="#555555" fill-opacity="0.5"/>
</svg>
