<svg width="40" height="40" viewBox="0 0 40 40" fill="none" xmlns="http://www.w3.org/2000/svg">
<path d="M31.5775 8H10.749V8.99174H30.8318L33.546 19.157H14.6562C13.1608 19.2005 11.7002 19.6172 10.408 20.3691C9.11585 21.121 8.03328 22.1841 7.25933 23.4612L2 32H38L31.5775 8ZM8.04473 23.9769C8.72336 22.8384 9.6803 21.8901 10.8261 21.2206C11.9719 20.5511 13.2691 20.1824 14.5965 20.1488H33.8144L36.7076 31.0083H3.7498L8.04473 23.9769Z" fill="#555555"/>
<path d="M15.7697 24.4033C15.4267 24.4014 15.0909 24.5012 14.8049 24.69C14.5189 24.8789 14.2956 25.1483 14.1635 25.464C14.0313 25.7797 13.9962 26.1275 14.0626 26.4632C14.129 26.7988 14.294 27.1072 14.5365 27.3491C14.7791 27.5911 15.0882 27.7556 15.4247 27.8219C15.7612 27.8882 16.1099 27.8531 16.4264 27.7213C16.7429 27.5894 17.0129 27.3668 17.2023 27.0815C17.3916 26.7962 17.4916 26.4612 17.4896 26.119C17.4896 25.664 17.3085 25.2276 16.9859 24.9059C16.6633 24.5841 16.2259 24.4033 15.7697 24.4033Z" fill="#555555"/>
<path d="M20.9793 24.4033C20.6363 24.4014 20.3005 24.5012 20.0145 24.69C19.7285 24.8789 19.5052 25.1483 19.373 25.464C19.2409 25.7797 19.2058 26.1275 19.2722 26.4632C19.3387 26.7988 19.5036 27.1072 19.7461 27.3491C19.9887 27.5911 20.2978 27.7556 20.6343 27.8219C20.9708 27.8882 21.3194 27.8531 21.6359 27.7213C21.9524 27.5894 22.2225 27.3668 22.4118 27.0815C22.6012 26.7962 22.7012 26.4612 22.6993 26.119C22.6993 25.664 22.518 25.2276 22.1955 24.9059C21.8729 24.5841 21.4354 24.4033 20.9793 24.4033Z" fill="#555555"/>
<path d="M26.179 24.4033C25.8364 24.4034 25.5015 24.5048 25.2168 24.6949C24.9321 24.8849 24.7104 25.155 24.5798 25.4709C24.4492 25.7868 24.4155 26.1343 24.483 26.4693C24.5506 26.8043 24.7163 27.1117 24.9593 27.3527C25.2022 27.5936 25.5114 27.7572 25.8476 27.8226C26.1838 27.8881 26.532 27.8525 26.8479 27.7204C27.1638 27.5882 27.4333 27.3655 27.6222 27.0804C27.8111 26.7954 27.9108 26.4607 27.9089 26.119C27.9089 25.8929 27.8641 25.669 27.777 25.4602C27.6899 25.2513 27.5624 25.0618 27.4016 24.9024C27.2408 24.7429 27.05 24.6167 26.8402 24.5311C26.6304 24.4454 26.4057 24.402 26.179 24.4033Z" fill="#555555"/>
</svg>
