<svg width="40" height="40" viewBox="0 0 40 40" fill="none" xmlns="http://www.w3.org/2000/svg">
<path d="M33.6207 29.2717L38 4.17227L36.9839 4L36.0491 9.40087C35.2518 9.19991 34.5635 8.69875 34.1287 8.00255C33.8178 7.45915 33.3683 7.00741 32.8258 6.69322C32.2833 6.37902 31.6671 6.21353 31.0398 6.21353C30.4124 6.21353 29.7963 6.37902 29.2538 6.69322C28.7113 7.00741 28.2618 7.45915 27.9509 8.00255C27.7119 8.41191 27.3755 8.75636 26.9715 9.00552C26.5675 9.25468 26.1083 9.40087 25.6342 9.43127C24.5267 9.43127 23.978 8.77265 23.3379 8.00255C23.027 7.45915 22.5775 7.00741 22.035 6.69322C21.4925 6.37902 20.8763 6.21353 20.2489 6.21353C19.6216 6.21353 19.0054 6.37902 18.4629 6.69322C17.9204 7.00741 17.4709 7.45915 17.16 8.00255C16.5199 8.77265 15.9712 9.43127 14.8637 9.43127C14.391 9.401 13.933 9.25477 13.5307 9.00552C13.1283 8.75626 12.7939 8.41173 12.5572 8.00255C12.2477 7.45893 11.7992 7.00681 11.2575 6.69229C10.7158 6.37777 10.1002 6.21208 9.47332 6.21208C8.84649 6.21208 8.23084 6.37777 7.68912 6.69229C7.14741 7.00681 6.69897 7.45893 6.38949 8.00255C5.74936 8.77265 5.20068 9.43127 4.09314 9.43127V10.1305L3.01609 4.05065L2 4.22293L6.37934 29.3223L33.6207 29.2717ZM7.20237 8.65104C7.8425 7.89107 8.39118 7.22229 9.49872 7.22229C9.97055 7.25602 10.4271 7.40371 10.8289 7.65262C11.2307 7.90153 11.5658 8.24419 11.8052 8.65104C12.1147 9.19466 12.5632 9.64675 13.1049 9.96127C13.6466 10.2758 14.2622 10.4415 14.8891 10.4415C15.5159 10.4415 16.1315 10.2758 16.6733 9.96127C17.215 9.64675 17.6634 9.19466 17.9729 8.65104C18.1849 8.2214 18.5134 7.85957 18.921 7.60654C19.3287 7.35351 19.7992 7.21938 20.2794 7.21938C20.7596 7.21938 21.2302 7.35351 21.6378 7.60654C22.0455 7.85957 22.3739 8.2214 22.586 8.65104C22.8968 9.19444 23.3463 9.64617 23.8888 9.96037C24.4313 10.2746 25.0475 10.4401 25.6748 10.4401C26.3022 10.4401 26.9184 10.2746 27.4609 9.96037C28.0034 9.64617 28.4529 9.19444 28.7638 8.65104C29.4039 7.89107 29.9526 7.22229 31.0703 7.22229C31.5421 7.25602 31.9986 7.40371 32.4004 7.65262C32.8023 7.90153 33.1374 8.24419 33.3768 8.65104C33.9544 9.54168 34.8591 10.171 35.8967 10.4041L32.7875 28.2584H7.28366L4.17443 10.4446C4.78247 10.405 5.37233 10.2217 5.89529 9.90981C6.41826 9.59795 6.85932 9.16648 7.18204 8.65104H7.20237Z" fill="#555555"/>
<path d="M16.1643 22.9791C15.8392 23.0143 15.5106 22.9624 15.2124 22.8288C14.9141 22.6953 14.657 22.4848 14.4674 22.2191C14.2478 21.7995 14.1295 21.3346 14.1219 20.8613H12.8518C12.8251 21.6893 13.0994 22.499 13.624 23.1412C13.9403 23.4727 14.3275 23.7286 14.7568 23.89C15.1861 24.0514 15.6463 24.1142 16.1033 24.0735C17.0406 24.1363 17.9648 23.8266 18.674 23.2122C18.977 22.9249 19.2152 22.5767 19.3729 22.1906C19.5306 21.8045 19.6041 21.3894 19.5885 20.9728C19.6047 20.4568 19.4552 19.9491 19.1617 19.5238C18.8762 19.1217 18.4536 18.8371 17.9729 18.7233C18.2653 18.6056 18.5262 18.4217 18.735 18.1862C19.0676 17.7822 19.2378 17.2694 19.2125 16.7473C19.2362 16.3909 19.1759 16.034 19.0365 15.7049C18.8971 15.3759 18.6825 15.084 18.4098 14.8524C17.7452 14.3804 16.9378 14.1514 16.1236 14.2039C15.6073 14.1568 15.0883 14.2577 14.6275 14.4946C14.1667 14.7316 13.7834 15.0947 13.5224 15.5415C13.2225 16.1017 13.0754 16.7307 13.0957 17.3654H14.2947C14.2867 16.9299 14.3843 16.4988 14.5792 16.109C14.7544 15.8307 15.0045 15.6072 15.3009 15.4639C15.5973 15.3206 15.9282 15.2632 16.2557 15.2983C16.684 15.2908 17.1024 15.4264 17.4445 15.6834C17.614 15.8137 17.7489 15.9834 17.8375 16.1777C17.9261 16.372 17.9656 16.585 17.9526 16.798C17.9747 17.0714 17.9138 17.3452 17.778 17.5837C17.6421 17.8222 17.4374 18.0145 17.1905 18.1356C16.8388 18.2895 16.4567 18.3623 16.0728 18.3483H15.4936V19.3616H15.9915C16.5803 19.3279 17.1662 19.4651 17.6782 19.7568C17.892 19.9155 18.0606 20.1269 18.1675 20.3704C18.2744 20.6138 18.3159 20.8808 18.2879 21.1451C18.295 21.3937 18.2468 21.6408 18.1466 21.8685C18.0465 22.0963 17.8969 22.2991 17.7087 22.4623C17.2764 22.8204 16.7257 23.0047 16.1643 22.9791Z" fill="#555555"/>
<path d="M23.9373 24.0735C24.5325 24.0947 25.1194 23.9292 25.6153 23.6001C26.1111 23.2711 26.4909 22.7951 26.7011 22.2394C27.1289 21.2133 27.3299 20.1074 27.2904 18.9968C27.3458 17.8757 27.1224 16.7584 26.6401 15.7441C26.388 15.2543 25.9979 14.8486 25.5177 14.5768C25.0376 14.305 24.4883 14.1789 23.9373 14.2141C23.2818 14.2015 22.6414 14.4112 22.1209 14.8088C21.6004 15.2064 21.2306 15.7684 21.072 16.4028C20.7675 17.3066 20.6231 18.2564 20.6452 19.2096C20.5903 20.3721 20.8315 21.5294 21.3463 22.5738C21.5899 23.0441 21.9633 23.4351 22.4223 23.7008C22.8814 23.9665 23.407 24.0958 23.9373 24.0735ZM22.4437 16.3015C22.5711 15.9945 22.7888 15.7333 23.0682 15.5524C23.3476 15.3715 23.6755 15.2793 24.0085 15.2882C24.3461 15.2615 24.6831 15.3462 24.9677 15.5293C25.2523 15.7124 25.4686 15.9837 25.5834 16.3015C25.873 17.1698 26.0071 18.0821 25.9797 18.9968C26.0737 20.0616 25.8808 21.1321 25.4208 22.0975C25.243 22.3916 24.9806 22.6256 24.6677 22.7691C24.3548 22.9126 24.0059 22.9589 23.6663 22.9021C23.3266 22.8453 23.012 22.6879 22.7631 22.4505C22.5143 22.213 22.3428 21.9065 22.2709 21.5706C22.0317 20.8071 21.9218 20.0092 21.9458 19.2096C21.8928 18.2182 22.0521 17.2267 22.4132 16.3015H22.4437Z" fill="#555555"/>
<path d="M33.9356 31.7441H6.13548V32.7574H33.9356V31.7441Z" fill="#555555"/>
<path d="M33.9356 34.9867H6.13548V36H33.9356V34.9867Z" fill="#555555"/>
</svg>
