<svg width="38" height="25" viewBox="0 0 38 25" fill="none" xmlns="http://www.w3.org/2000/svg">
<g clip-path="url(#clip0_4901_40238)">
<path d="M35 0.988281H3C2.20435 0.988281 1.44129 1.30435 0.87868 1.86696C0.31607 2.42957 0 3.19263 0 3.98828L0 21.9883C0 22.7839 0.31607 23.547 0.87868 24.1096C1.44129 24.6722 2.20435 24.9883 3 24.9883H35C35.7957 24.9883 36.5587 24.6722 37.1213 24.1096C37.6839 23.547 38 22.7839 38 21.9883V3.98828C38 3.19263 37.6839 2.42957 37.1213 1.86696C36.5587 1.30435 35.7957 0.988281 35 0.988281V0.988281Z" fill="#E8E8E8"/>
<path d="M35 1.98828C35.5304 1.98828 36.0391 2.19899 36.4142 2.57407C36.7893 2.94914 37 3.45785 37 3.98828V21.9883C37 22.5187 36.7893 23.0274 36.4142 23.4025C36.0391 23.7776 35.5304 23.9883 35 23.9883H3C2.46957 23.9883 1.96086 23.7776 1.58579 23.4025C1.21071 23.0274 1 22.5187 1 21.9883V3.98828C1 3.45785 1.21071 2.94914 1.58579 2.57407C1.96086 2.19899 2.46957 1.98828 3 1.98828H35Z" fill="white"/>
<path d="M21.6703 13.2879H24.0003C24.2003 13.2879 24.2003 13.3479 24.2003 13.4579V14.3079C24.2003 14.5179 24.2003 14.5979 23.8503 14.5979H21.7003C21.6203 14.5979 21.5103 14.5979 21.5103 14.4679V13.8079C21.5103 13.6979 21.5103 13.6579 21.3603 13.6579H20.8803C20.8103 13.6579 20.7403 13.6579 20.7403 13.8079V14.9879C20.7403 15.3779 20.9003 15.6179 21.4003 15.6179H24.1703C24.2714 15.6283 24.3735 15.6165 24.4696 15.5834C24.5657 15.5503 24.6534 15.4967 24.7267 15.4262C24.8 15.3558 24.8571 15.2703 24.8939 15.1756C24.9308 15.0809 24.9466 14.9793 24.9403 14.8779V13.1679C24.9403 12.7979 24.6603 12.5079 24.1603 12.5079H21.7303C21.6103 12.5079 21.5003 12.5079 21.5003 12.3179V11.5379C21.5003 11.4479 21.5003 11.3779 21.7003 11.3779H24.0003C24.2203 11.3779 24.1703 11.3779 24.1703 11.5779V11.9879C24.1703 12.1079 24.2703 12.1079 24.3803 12.1079H24.8103C24.9303 12.1079 24.9503 12.0479 24.9503 11.9579V11.2679C24.9503 10.5779 24.7103 10.3379 24.1403 10.3379H21.7103C21.0803 10.3379 20.7103 10.3379 20.7103 11.2679V12.6079C20.7103 13.0379 20.9803 13.2379 21.6503 13.2379L21.6703 13.2879ZM26.5403 13.0779V11.6279C26.5403 11.4279 26.6503 11.3879 26.7703 11.3879H29.0003C29.1503 11.3879 29.2003 11.3879 29.2003 11.5479V14.4279C29.2003 14.5979 29.1003 14.5979 29.0003 14.5979H26.7603C26.6103 14.5979 26.5403 14.5979 26.5403 14.4179V13.0779ZM26.5403 15.5979H29.1103C29.6803 15.5979 29.9703 15.4079 29.9703 14.7279V11.3079C29.9703 10.6779 29.7103 10.3779 29.1403 10.3779H26.6103C26.0803 10.3779 25.7603 10.5979 25.7603 11.3079V14.8379C25.7603 15.2779 25.9603 15.5979 26.5503 15.5979H26.5403ZM1.94031 11.3779H2.63031V14.5879H2.00031C1.96849 14.5879 1.93796 14.6005 1.91546 14.623C1.89296 14.6455 1.88031 14.6761 1.88031 14.7079V15.4779C1.87876 15.494 1.8808 15.5103 1.88629 15.5256C1.89177 15.5408 1.90056 15.5547 1.91203 15.5662C1.9235 15.5776 1.93736 15.5864 1.95262 15.5919C1.96788 15.5974 1.98417 15.5994 2.00031 15.5979H6.00031C6.01646 15.5994 6.03274 15.5974 6.048 15.5919C6.06327 15.5864 6.07713 15.5776 6.0886 15.5662C6.10006 15.5547 6.10885 15.5408 6.11434 15.5256C6.11982 15.5103 6.12186 15.494 6.12031 15.4779V13.7179C6.12031 13.6861 6.10767 13.6555 6.08517 13.633C6.06266 13.6105 6.03214 13.5979 6.00031 13.5979H5.48031C5.44849 13.5979 5.41796 13.6105 5.39546 13.633C5.37296 13.6555 5.36031 13.6861 5.36031 13.7179V14.5979H3.36031V11.3779H4.01031C4.04214 11.3779 4.07266 11.3652 4.09517 11.3427C4.11767 11.3202 4.13031 11.2897 4.13031 11.2579V10.4979C4.13031 10.4661 4.11767 10.4355 4.09517 10.413C4.07266 10.3905 4.04214 10.3779 4.01031 10.3779H1.94031C1.90849 10.3779 1.87796 10.3905 1.85546 10.413C1.83296 10.4355 1.82031 10.4661 1.82031 10.4979V11.2679C1.82031 11.2997 1.83296 11.3302 1.85546 11.3527C1.87796 11.3752 1.90849 11.3879 1.94031 11.3879V11.3779ZM9.55031 12.2079L10.1403 13.2779H8.94031L9.55031 12.2079ZM6.73031 15.5979H8.85031C8.86836 15.6026 8.88725 15.603 8.90548 15.5991C8.92371 15.5952 8.94078 15.5871 8.95534 15.5754C8.96989 15.5638 8.98154 15.5489 8.98935 15.532C8.99715 15.515 9.00091 15.4965 9.00031 15.4779V14.7079C9.00031 14.6761 8.98767 14.6455 8.96517 14.623C8.94266 14.6005 8.91214 14.5879 8.88031 14.5879H8.19031L8.50031 14.0479H10.5803L10.8803 14.5879H10.2403C10.2085 14.5879 10.178 14.6005 10.1555 14.623C10.133 14.6455 10.1203 14.6761 10.1203 14.7079V15.4779C10.1203 15.5097 10.133 15.5402 10.1555 15.5627C10.178 15.5852 10.2085 15.5979 10.2403 15.5979H12.3603C12.3765 15.5994 12.3927 15.5974 12.408 15.5919C12.4233 15.5864 12.4371 15.5776 12.4486 15.5662C12.4601 15.5547 12.4689 15.5408 12.4743 15.5256C12.4798 15.5103 12.4819 15.494 12.4803 15.4779V14.7079C12.4803 14.6761 12.4677 14.6455 12.4452 14.623C12.4227 14.6005 12.3921 14.5879 12.3603 14.5879H11.7703L10.0003 11.3779H10.6703C10.7021 11.3779 10.7327 11.3652 10.7552 11.3427C10.7777 11.3202 10.7903 11.2897 10.7903 11.2579V10.4979C10.7903 10.4661 10.7777 10.4355 10.7552 10.413C10.7327 10.3905 10.7021 10.3779 10.6703 10.3779H8.53031C8.49849 10.3779 8.46796 10.3905 8.44546 10.413C8.42296 10.4355 8.41031 10.4661 8.41031 10.4979V11.2679C8.41031 11.2997 8.42296 11.3302 8.44546 11.3527C8.46796 11.3752 8.49849 11.3879 8.53031 11.3879H9.12031L7.30031 14.5979H6.73031C6.69849 14.5979 6.66796 14.6105 6.64546 14.633C6.62296 14.6555 6.61031 14.6861 6.61031 14.7179V15.4879C6.61031 15.5197 6.62296 15.5502 6.64546 15.5727C6.66796 15.5952 6.69849 15.6079 6.73031 15.6079V15.5979ZM11.6203 11.3779H12.2603L13.8503 14.5879H13.2003C13.1685 14.5879 13.138 14.6005 13.1155 14.623C13.093 14.6455 13.0803 14.6761 13.0803 14.7079V15.4779C13.0788 15.494 13.0808 15.5103 13.0863 15.5256C13.0918 15.5408 13.1006 15.5547 13.112 15.5662C13.1235 15.5776 13.1374 15.5864 13.1526 15.5919C13.1679 15.5974 13.1842 15.5994 13.2003 15.5979H15.3203C15.3361 15.5979 15.3517 15.5948 15.3662 15.5888C15.3808 15.5827 15.394 15.5739 15.4052 15.5627C15.4163 15.5516 15.4251 15.5384 15.4312 15.5238C15.4372 15.5093 15.4403 15.4936 15.4403 15.4779V14.7079C15.4403 14.6921 15.4372 14.6765 15.4312 14.662C15.4251 14.6474 15.4163 14.6342 15.4052 14.623C15.394 14.6119 15.3808 14.6031 15.3662 14.597C15.3517 14.591 15.3361 14.5879 15.3203 14.5879H14.7303L15.8803 12.2379L17.0003 14.5979H16.3703C16.3385 14.5979 16.308 14.6105 16.2855 14.633C16.263 14.6555 16.2503 14.6861 16.2503 14.7179V15.4879C16.2503 15.5197 16.263 15.5502 16.2855 15.5727C16.308 15.5952 16.3385 15.6079 16.3703 15.6079H18.4903C18.5065 15.6094 18.5227 15.6074 18.538 15.6019C18.5533 15.5964 18.5671 15.5876 18.5786 15.5762C18.5901 15.5647 18.5989 15.5508 18.6043 15.5356C18.6098 15.5203 18.6119 15.504 18.6103 15.4879V14.7179C18.6103 14.6861 18.5977 14.6555 18.5752 14.633C18.5527 14.6105 18.5221 14.5979 18.4903 14.5979H17.8903L19.4603 11.3879H20.0803C20.1121 11.3879 20.1427 11.3752 20.1652 11.3527C20.1877 11.3302 20.2003 11.2997 20.2003 11.2679V10.4979C20.2003 10.4661 20.1877 10.4355 20.1652 10.413C20.1427 10.3905 20.1121 10.3779 20.0803 10.3779H18.0003C17.9685 10.3779 17.938 10.3905 17.9155 10.413C17.893 10.4355 17.8803 10.4661 17.8803 10.4979V11.2679C17.8803 11.2997 17.893 11.3302 17.9155 11.3527C17.938 11.3752 17.9685 11.3879 18.0003 11.3879H18.6403L17.4803 13.7479L16.3103 11.3879H16.9303C16.9621 11.3879 16.9927 11.3752 17.0152 11.3527C17.0377 11.3302 17.0503 11.2997 17.0503 11.2679V10.4979C17.0503 10.4661 17.0377 10.4355 17.0152 10.413C16.9927 10.3905 16.9621 10.3779 16.9303 10.3779H14.8203C14.7885 10.3779 14.758 10.3905 14.7355 10.413C14.713 10.4355 14.7003 10.4661 14.7003 10.4979V11.2679C14.7003 11.2997 14.713 11.3302 14.7355 11.3527C14.758 11.3752 14.7885 11.3879 14.8203 11.3879H15.4403L14.3003 13.7279L13.1403 11.3879H13.7603C13.7921 11.3879 13.8227 11.3752 13.8452 11.3527C13.8677 11.3302 13.8803 11.2997 13.8803 11.2679V10.4979C13.8803 10.4661 13.8677 10.4355 13.8452 10.413C13.8227 10.3905 13.7921 10.3779 13.7603 10.3779H11.6203C11.5885 10.3779 11.558 10.3905 11.5355 10.413C11.513 10.4355 11.5003 10.4661 11.5003 10.4979V11.2679C11.5003 11.2997 11.513 11.3302 11.5355 11.3527C11.558 11.3752 11.5885 11.3879 11.6203 11.3879V11.3779ZM30.6003 15.5979H32.7203C32.7365 15.5994 32.7527 15.5974 32.768 15.5919C32.7833 15.5864 32.7971 15.5776 32.8086 15.5662C32.8201 15.5547 32.8289 15.5408 32.8343 15.5256C32.8398 15.5103 32.8419 15.494 32.8403 15.4779V14.7079C32.8403 14.6761 32.8277 14.6455 32.8052 14.623C32.7827 14.6005 32.7521 14.5879 32.7203 14.5879H32.0003V12.2879L34.4603 14.5879H33.9103C33.8785 14.5879 33.848 14.6005 33.8255 14.623C33.803 14.6455 33.7903 14.6761 33.7903 14.7079V15.4779C33.7888 15.494 33.7908 15.5103 33.7963 15.5256C33.8018 15.5408 33.8106 15.5547 33.822 15.5662C33.8335 15.5776 33.8474 15.5864 33.8626 15.5919C33.8779 15.5974 33.8942 15.5994 33.9103 15.5979H36.0303C36.0465 15.5994 36.0627 15.5974 36.078 15.5919C36.0933 15.5864 36.1071 15.5776 36.1186 15.5662C36.1301 15.5547 36.1389 15.5408 36.1443 15.5256C36.1498 15.5103 36.1519 15.494 36.1503 15.4779V14.7079C36.1503 14.6761 36.1377 14.6455 36.1152 14.623C36.0927 14.6005 36.0621 14.5879 36.0303 14.5879H35.3503V11.3779H36.0303C36.0621 11.3779 36.0927 11.3652 36.1152 11.3427C36.1377 11.3202 36.1503 11.2897 36.1503 11.2579V10.4979C36.1503 10.4661 36.1377 10.4355 36.1152 10.413C36.0927 10.3905 36.0621 10.3779 36.0303 10.3779H33.9403C33.9085 10.3779 33.878 10.3905 33.8555 10.413C33.833 10.4355 33.8203 10.4661 33.8203 10.4979V11.2679C33.8203 11.2997 33.833 11.3302 33.8555 11.3527C33.878 11.3752 33.9085 11.3879 33.9403 11.3879H34.6103V13.6479L32.2003 11.3879H32.7303C32.7621 11.3879 32.7927 11.3752 32.8152 11.3527C32.8377 11.3302 32.8503 11.2997 32.8503 11.2679V10.4979C32.8503 10.4661 32.8377 10.4355 32.8152 10.413C32.7927 10.3905 32.7621 10.3779 32.7303 10.3779H30.6003C30.5685 10.3779 30.538 10.3905 30.5155 10.413C30.493 10.4355 30.4803 10.4661 30.4803 10.4979V11.2679C30.4803 11.2997 30.493 11.3302 30.5155 11.3527C30.538 11.3752 30.5685 11.3879 30.6003 11.3879H31.2503V14.5979H30.6003C30.5685 14.5979 30.538 14.6105 30.5155 14.633C30.493 14.6555 30.4803 14.6861 30.4803 14.7179V15.4879C30.4788 15.504 30.4808 15.5203 30.4863 15.5356C30.4918 15.5508 30.5006 15.5647 30.512 15.5762C30.5235 15.5876 30.5374 15.5964 30.5526 15.6019C30.5679 15.6074 30.5842 15.6094 30.6003 15.6079" fill="#007BC2"/>
</g>
<defs>
<clipPath id="clip0_4901_40238">
<rect width="38" height="24" fill="white" transform="translate(0 0.988281)"/>
</clipPath>
</defs>
</svg>
