<svg width="40" height="40" viewBox="0 0 40 40" fill="none" xmlns="http://www.w3.org/2000/svg">
<path d="M20 31.6782C22.9667 31.6782 25.8668 30.7786 28.3336 29.0931C30.8003 27.4076 32.7229 25.0119 33.8582 22.2091C34.9935 19.4062 35.2906 16.3221 34.7118 13.3466C34.133 10.3711 32.7044 7.63792 30.6066 5.49271C28.5088 3.3475 25.8361 1.88661 22.9264 1.29475C20.0166 0.702884 17.0007 1.00664 14.2598 2.16762C11.5189 3.3286 9.17618 5.29466 7.52795 7.81716C5.87973 10.3397 5 13.3053 5 16.3391C5 20.4073 6.58036 24.3088 9.3934 27.1854C12.2064 30.0621 16.0218 31.6782 20 31.6782ZM20 2.10439C22.7689 2.10439 25.4757 2.94405 27.778 4.51716C30.0803 6.09028 31.8747 8.32622 32.9343 10.9422C33.994 13.5582 34.2712 16.4367 33.731 19.2139C33.1908 21.991 31.8574 24.542 29.8995 26.5442C27.9416 28.5464 25.447 29.9099 22.7313 30.4623C20.0155 31.0147 17.2006 30.7312 14.6424 29.6476C12.0843 28.564 9.89778 26.729 8.35944 24.3747C6.8211 22.0204 6 19.2524 6 16.4209C6 14.5408 6.36214 12.6792 7.0657 10.9422C7.76927 9.20526 8.8005 7.62702 10.1005 6.29761C11.4005 4.9682 12.9439 3.91369 14.6424 3.19422C16.341 2.47475 18.1615 2.10439 20 2.10439Z" fill="#555555"/>
<path d="M16.8 24.5813L20.2 12.1566L23.58 24.5813H25.66L29.51 9.60009H27.33L24.57 21.7896L21.25 9.60009H19.11L15.8 21.7691L13.04 9.60009H10.89L14.71 24.5813H16.8Z" fill="#555555"/>
<path d="M34.46 37.9774H5.69001V39H34.46V37.9774Z" fill="#555555"/>
<path d="M34.46 34.7869H5.69001V35.8095H34.46V34.7869Z" fill="#555555"/>
</svg>
