<svg width="40" height="40" viewBox="0 0 40 40" fill="none" xmlns="http://www.w3.org/2000/svg">
<path d="M38 30.6177L32.7975 11.4229L35.344 9.35302L33.9713 7.72254L32.1907 9.17728L31.6038 7H10.714V7.97634H30.8378L31.3451 9.86074L21.3976 17.9839H18.9008L6.26749 7.72254L4.89473 9.35302L15.5087 17.9741H14.6135C13.1174 18.0114 11.6552 18.4194 10.363 19.1602C9.07072 19.9011 7.99036 20.9507 7.22244 22.2114L2 30.6177H5.81984L4.89473 31.3695L6.26749 33L9.20201 30.6177H31.0865L34.0111 33L35.3838 31.3695L34.4687 30.6177H38ZM36.7068 29.6414H33.2252L21.8055 20.3564L23.5363 18.9505H33.8121L36.7068 29.6414ZM31.9519 12.0672L33.5435 17.9253H24.73L31.9519 12.0672ZM20.1542 18.9016H20.1045H20.1542ZM3.75077 29.5926L8.0481 22.6703C8.7287 21.5487 9.68789 20.6147 10.836 19.9557C11.9842 19.2966 13.2838 18.934 14.6135 18.9016H16.6825L18.4233 20.3076L7.00359 29.5926H3.75077ZM10.3758 29.5926L20.1144 21.6842L29.8431 29.5926H10.3758Z" fill="#555555"/>
</svg>
