<svg width="40" height="40" viewBox="0 0 40 40" fill="none" xmlns="http://www.w3.org/2000/svg">
<path d="M33.6527 31.0086L38 6.17313L37.0231 6L36.095 11.3095C35.2927 11.1291 34.5925 10.65 34.1411 9.97252C33.8192 9.45311 33.3672 9.02386 32.8283 8.72604C32.2894 8.42822 31.6818 8.27182 31.0638 8.27182C30.4458 8.27182 29.8382 8.42822 29.2993 8.72604C28.7604 9.02386 28.3083 9.45311 27.9864 9.97252C27.7582 10.379 27.4244 10.7187 27.0193 10.9568C26.6142 11.1948 26.1522 11.3228 25.6804 11.3277C25.2087 11.3326 24.744 11.2142 24.3339 10.9846C23.9238 10.755 23.5829 10.4223 23.346 10.0206C23.0254 9.50107 22.5743 9.07158 22.0362 8.77353C21.498 8.47549 20.891 8.31893 20.2735 8.31893C19.6561 8.31893 19.0491 8.47549 18.5109 8.77353C17.9728 9.07158 17.5217 9.50107 17.2011 10.0206C16.9516 10.4151 16.609 10.7444 16.2025 10.9805C15.796 11.2166 15.3376 11.3526 14.8662 11.3768C14.3949 11.3526 13.9365 11.2166 13.5299 10.9805C13.1234 10.7444 12.7809 10.4151 12.5313 10.0206C12.1957 9.5159 11.7419 9.09787 11.2081 8.80163C10.6743 8.50538 10.0761 8.33956 9.46377 8.31811C8.85159 8.34035 8.25371 8.5065 7.72005 8.80268C7.1864 9.09886 6.73248 9.51645 6.3962 10.0206C6.14763 10.4138 5.80659 10.7423 5.4019 10.9783C4.99721 11.2144 4.54075 11.3511 4.0711 11.3768V12.2329L2.97693 6.04808L2 6.22121L6.38643 31.047L33.6527 31.0086ZM7.13867 10.6073C7.38612 10.2124 7.72667 9.882 8.13143 9.64423C8.53619 9.40646 8.99323 9.2683 9.46377 9.24149C9.93601 9.26679 10.395 9.40421 10.8016 9.64206C11.2082 9.8799 11.5503 10.2111 11.7986 10.6073C12.1198 11.1247 12.5706 11.5522 13.1077 11.8488C13.6448 12.1454 14.2504 12.3011 14.8662 12.3011C15.4821 12.3011 16.0876 12.1454 16.6247 11.8488C17.1619 11.5522 17.6126 11.1247 17.9338 10.6073C18.1822 10.2111 18.5243 9.8799 18.9308 9.64206C19.3374 9.40421 19.7964 9.26679 20.2687 9.24149C20.7409 9.26679 21.1999 9.40421 21.6065 9.64206C22.0131 9.8799 22.3552 10.2111 22.6035 10.6073C22.9259 11.1246 23.3777 11.5518 23.9156 11.8482C24.4535 12.1446 25.0596 12.3002 25.676 12.3002C26.2924 12.3002 26.8985 12.1446 27.4364 11.8482C27.9743 11.5518 28.426 11.1246 28.7484 10.6073C28.9977 10.2098 29.3414 9.8778 29.7498 9.63988C30.1582 9.40197 30.6192 9.26526 31.0931 9.24149C31.5653 9.26679 32.0243 9.40421 32.4309 9.64206C32.8375 9.8799 33.1796 10.2111 33.428 10.6073C34.027 11.4599 34.9367 12.0525 35.968 12.2617L32.832 30.0467H7.21683L4.09064 12.3002C4.69738 12.2707 5.28878 12.1024 5.81789 11.8085C6.34699 11.5147 6.79922 11.1034 7.13867 10.6073Z" fill="#555555"/>
<path d="M16.3512 25.8722C16.8057 25.9044 17.2616 25.8346 17.6847 25.668C18.1078 25.5013 18.4869 25.2423 18.7935 24.9103C19.3559 24.2771 19.6619 23.4622 19.6532 22.6211C19.682 22.1995 19.6165 21.7768 19.4612 21.3829C19.3059 20.989 19.0646 20.6335 18.7544 20.3415C18.168 19.8369 17.4132 19.5629 16.6345 19.572C16.1868 19.5691 15.7437 19.6609 15.3351 19.8413C14.9103 20.0443 14.5491 20.3567 14.2898 20.7454C14.2702 19.8184 14.4994 18.9027 14.9541 18.0907C15.1103 17.8005 15.3437 17.5576 15.6294 17.3882C15.9151 17.2187 16.2423 17.1291 16.5758 17.1288C16.83 17.1134 17.0841 17.1597 17.3158 17.2637C17.5475 17.3677 17.7496 17.5262 17.9045 17.7252C18.0796 17.9936 18.196 18.2949 18.2464 18.6101H19.4383C19.4254 17.9871 19.1981 17.3868 18.7935 16.9076C18.5125 16.604 18.1622 16.3707 17.7715 16.2268C17.3808 16.083 16.9609 16.0328 16.5465 16.0804C15.8349 16.0684 15.1405 16.2966 14.5789 16.7271C14.0173 17.1576 13.6222 17.7644 13.4594 18.4466C13.1431 19.4156 12.9945 20.4301 13.0198 21.4476C12.8985 22.6662 13.2473 23.8851 13.9967 24.8622C14.2942 25.1851 14.6579 25.4421 15.0638 25.6162C15.4696 25.7904 15.9085 25.8776 16.3512 25.8722ZM15.0323 21.1398C15.404 20.802 15.8943 20.6192 16.4 20.63C16.6929 20.597 16.9894 20.6401 17.2602 20.7548C17.531 20.8695 17.7666 21.052 17.9436 21.2841C18.2206 21.6984 18.3699 22.1828 18.3734 22.6788C18.3877 23.2175 18.2192 23.7454 17.8947 24.1793C17.7289 24.3931 17.5117 24.5629 17.2628 24.6737C17.0139 24.7845 16.7409 24.8328 16.4684 24.8142C16.1885 24.8267 15.9093 24.778 15.6509 24.6715C15.3924 24.5651 15.1611 24.4035 14.9737 24.1985C14.6164 23.7717 14.4289 23.2316 14.4461 22.6788C14.4223 22.3956 14.4625 22.1107 14.5639 21.8446C14.6652 21.5785 14.8252 21.3378 15.0323 21.1398Z" fill="#555555"/>
<path d="M23.9224 25.8818C24.5197 25.9019 25.1085 25.7375 25.6061 25.4114C26.1036 25.0854 26.4851 24.6142 26.6969 24.0639C27.1202 23.0491 27.32 21.9573 27.283 20.8609C27.3379 19.7511 27.1166 18.645 26.6383 17.6386C26.3854 17.1543 25.995 16.7527 25.5145 16.4829C25.0341 16.2131 24.4843 16.0866 23.9322 16.1189C23.2666 16.0981 22.6137 16.3012 22.081 16.6945C21.5483 17.0879 21.1675 17.6482 21.0014 18.2831C20.6974 19.1786 20.552 20.1189 20.5715 21.0629C20.52 22.2168 20.7653 23.3649 21.2847 24.4006C21.5305 24.8732 21.911 25.2649 22.3794 25.528C22.8479 25.7911 23.3841 25.914 23.9224 25.8818ZM22.4277 18.1869C22.5622 17.8901 22.7839 17.6399 23.0643 17.4684C23.3446 17.297 23.6708 17.2122 24.0005 17.225C24.3427 17.2015 24.683 17.2909 24.9678 17.479C25.2526 17.6671 25.4657 17.9432 25.5734 18.2638C25.8731 19.1234 26.0121 20.0294 25.9837 20.9378C26.0737 21.9919 25.8782 23.0507 25.4171 24.0062C25.2368 24.2964 24.9724 24.5267 24.6579 24.6675C24.3434 24.8083 23.9933 24.8532 23.6526 24.7963C23.312 24.7393 22.9965 24.5832 22.7469 24.3481C22.4972 24.113 22.3248 23.8096 22.2518 23.4771C22.0118 22.7214 21.9028 21.9312 21.9294 21.1398C21.8714 20.1313 22.0415 19.1227 22.4277 18.1869Z" fill="#555555"/>
<path d="M34.0239 33.0381H6.02497V34H34.0239V33.0381Z" fill="#555555"/>
</svg>
