<svg width="40" height="40" viewBox="0 0 40 40" fill="none" xmlns="http://www.w3.org/2000/svg">
<path d="M37.0727 7L36.0965 12.5243C35.2925 12.3361 34.5919 11.8333 34.1442 11.1232C33.8209 10.5851 33.3685 10.1409 32.8303 9.83275C32.2921 9.52461 31.6859 9.36284 31.0694 9.36284C30.453 9.36284 29.8468 9.52461 29.3085 9.83275C28.7703 10.1409 28.318 10.5851 27.9946 11.1232C27.7665 11.5535 27.4294 11.9128 27.0188 12.1632C26.6082 12.4135 26.1393 12.5457 25.6616 12.5457C25.1839 12.5457 24.715 12.4135 24.3044 12.1632C23.8938 11.9128 23.5567 11.5535 23.3286 11.1232C23.0065 10.585 22.5551 10.1405 22.0177 9.83213C21.4802 9.52378 20.8746 9.36186 20.2587 9.36186C19.6428 9.36186 19.0372 9.52378 18.4997 9.83213C17.9622 10.1405 17.5109 10.585 17.1887 11.1232C16.9606 11.5535 16.6235 11.9128 16.213 12.1632C15.8024 12.4135 15.3335 12.5457 14.8558 12.5457C14.378 12.5457 13.9092 12.4135 13.4986 12.1632C13.088 11.9128 12.7509 11.5535 12.5228 11.1232C12.2019 10.5849 11.7515 10.1401 11.2148 9.83152C10.6781 9.52294 10.0731 9.36089 9.45771 9.36089C8.84236 9.36089 8.23733 9.52294 7.70062 9.83152C7.16391 10.1401 6.71352 10.5849 6.39262 11.1232C6.14538 11.5341 5.80511 11.8779 5.40068 12.1252C4.99624 12.3726 4.53958 12.5164 4.06942 12.5443V13.4349L2.97614 7L2 7.17014L6.38287 33H33.6171L38 7.17014L37.0727 7ZM32.8265 32.0192H7.24187L4.10846 13.565C4.71471 13.5344 5.30563 13.3592 5.8343 13.0535C6.36298 12.7477 6.81484 12.3198 7.15402 11.8037C7.38065 11.3731 7.71671 11.0133 8.12657 10.7625C8.53643 10.5118 9.00482 10.3794 9.4821 10.3794C9.95939 10.3794 10.4278 10.5118 10.8376 10.7625C11.2475 11.0133 11.5836 11.3731 11.8102 11.8037C12.1311 12.342 12.5815 12.7868 13.1182 13.0954C13.6549 13.4039 14.2599 13.566 14.8753 13.566C15.4906 13.566 16.0956 13.4039 16.6324 13.0954C17.1691 12.7868 17.6195 12.342 17.9403 11.8037C18.1885 11.3914 18.5303 11.0468 18.9366 10.7994C19.3428 10.5519 19.8015 10.4089 20.2733 10.3826C20.7452 10.4089 21.2038 10.5519 21.6101 10.7994C22.0163 11.0468 22.3581 11.3914 22.6063 11.8037C22.9284 12.3419 23.3798 12.7864 23.9173 13.0947C24.4547 13.4031 25.0604 13.565 25.6763 13.565C26.2922 13.565 26.8978 13.4031 27.4352 13.0947C27.9727 12.7864 28.4241 12.3419 28.7462 11.8037C28.9953 11.3901 29.3387 11.0446 29.7467 10.7971C30.1548 10.5496 30.6154 10.4073 31.0889 10.3826C31.5608 10.4089 32.0194 10.5519 32.4257 10.7994C32.8319 11.0468 33.1737 11.3914 33.4219 11.8037C34.0221 12.6937 34.9352 13.3106 35.9696 13.525L32.8265 32.0192Z" fill="#555555"/>
<path d="M16.613 21.1109C16.1657 21.1079 15.7229 21.2034 15.3147 21.3911C14.8902 21.6023 14.5293 21.9274 14.2703 22.3318C14.2507 21.3673 14.4797 20.4145 14.9341 19.5697C15.0901 19.2677 15.3233 19.015 15.6088 18.8387C15.8943 18.6624 16.2212 18.5691 16.5544 18.5689C16.8087 18.5501 17.0635 18.5971 17.2954 18.7055C17.5274 18.8139 17.7291 18.9803 17.882 19.1894C18.0611 19.4665 18.1777 19.781 18.2236 20.1101H19.4243C19.4104 19.4638 19.1872 18.8406 18.7898 18.3387C18.5066 18.0234 18.1547 17.7811 17.7629 17.6315C17.3711 17.4819 16.9503 17.4294 16.5349 17.4781C15.8256 17.4669 15.1337 17.7036 14.5731 18.1493C14.0125 18.5949 13.6165 19.2229 13.4503 19.93C13.135 20.9418 12.9865 22.0005 13.0111 23.0624C12.8918 24.3301 13.2401 25.5976 13.9872 26.6151C14.2837 26.9493 14.6456 27.2156 15.0493 27.3967C15.4529 27.5777 15.8893 27.6695 16.3299 27.6659C16.7838 27.6972 17.2388 27.6236 17.6612 27.4503C18.0836 27.2771 18.4627 27.0087 18.7703 26.6651C19.327 25.9999 19.6288 25.1498 19.6195 24.2733C19.6469 23.8363 19.5807 23.3984 19.4256 22.9904C19.2704 22.5825 19.0301 22.2142 18.7215 21.9115C18.138 21.3888 17.3878 21.1039 16.613 21.1109ZM17.8722 25.9446C17.7065 26.167 17.4896 26.3437 17.2408 26.459C16.9921 26.5743 16.7194 26.6245 16.4471 26.6051C16.1687 26.6195 15.8908 26.5694 15.6339 26.4585C15.377 26.3476 15.1478 26.1788 14.9633 25.9646C14.6004 25.5234 14.4092 24.9603 14.4265 24.3834C14.3998 24.1078 14.431 23.8295 14.518 23.5673C14.6049 23.305 14.7455 23.0649 14.9304 22.863C15.1153 22.6611 15.3403 22.5021 15.5901 22.3967C15.8399 22.2912 16.1088 22.2418 16.3787 22.2518C16.6715 22.2164 16.9681 22.2607 17.2388 22.3801C17.5096 22.4996 17.7448 22.69 17.921 22.9323C18.195 23.3641 18.3408 23.8682 18.3408 24.3834C18.3492 24.929 18.1848 25.4628 17.8722 25.9046V25.9446Z" fill="#555555"/>
<path d="M23.9048 17.5181C23.248 17.508 22.607 17.7245 22.0847 18.1329C21.5625 18.5412 21.1893 19.1178 21.0252 19.7698C20.7242 20.702 20.5822 21.6804 20.6054 22.662C20.5513 23.8618 20.793 25.0561 21.3082 26.1347C21.5505 26.6183 21.9229 27.0206 22.3814 27.2938C22.8399 27.5669 23.3652 27.6996 23.895 27.6759C24.4932 27.6974 25.083 27.5267 25.5818 27.1875C26.0807 26.8484 26.4636 26.3578 26.677 25.7845C27.1 24.7286 27.2997 23.5927 27.2627 22.4519C27.3134 21.2986 27.0854 20.1504 26.5989 19.1093C26.3483 18.6051 25.9604 18.1864 25.4821 17.9039C25.0038 17.6215 24.4559 17.4874 23.9048 17.5181ZM25.3885 25.6944C25.2084 25.9963 24.9441 26.2359 24.6299 26.3825C24.3157 26.529 23.9658 26.5756 23.6255 26.5164C23.2851 26.4572 22.9699 26.2948 22.7204 26.0501C22.471 25.8055 22.2987 25.4899 22.2258 25.144C21.99 24.3569 21.8844 23.5349 21.9134 22.7121C21.863 21.6869 22.0295 20.6627 22.4015 19.7098C22.5359 19.401 22.7575 19.1406 23.0376 18.9623C23.3177 18.7839 23.6436 18.6957 23.9731 18.709C24.3153 18.6828 24.6561 18.7751 24.941 18.971C25.226 19.167 25.4385 19.4553 25.5447 19.7898C25.8442 20.6842 25.9831 21.6268 25.9547 22.572C26.0361 23.6457 25.8408 24.7224 25.3885 25.6944Z" fill="#555555"/>
</svg>
