<svg width="14" height="13" viewBox="0 0 14 13" fill="none" xmlns="http://www.w3.org/2000/svg">
<g clip-path="url(#clip0_3279_44687)">
<path d="M13.9231 5.62805C13.9231 2.64835 10.8174 0.223633 6.99998 0.223633C3.18252 0.223633 0.0769043 2.64835 0.0769043 5.62805C0.0769043 8.29999 2.54271 10.538 5.86636 10.9607C6.09217 11.0075 6.3991 11.1036 6.47632 11.2891C6.5464 11.4576 6.52239 11.7217 6.49903 11.8915C6.49903 11.8915 6.41792 12.3616 6.4004 12.4615C6.3699 12.63 6.26088 13.1201 6.99998 12.8211C7.73907 12.522 10.9868 10.5624 12.439 8.95361C13.4422 7.89545 13.9231 6.81919 13.9231 5.62805Z" fill="white"/>
<path d="M11.6194 7.3493H9.67275C9.63833 7.3493 9.60532 7.33615 9.58098 7.31274C9.55664 7.28932 9.54297 7.25756 9.54297 7.22445V4.31841V4.31529C9.54297 4.28217 9.55664 4.25041 9.58098 4.227C9.60532 4.20358 9.63833 4.19043 9.67275 4.19043H11.6194C11.6539 4.19043 11.6869 4.20358 11.7112 4.227C11.7355 4.25041 11.7492 4.28217 11.7492 4.31529V4.78787C11.7492 4.82098 11.7355 4.85274 11.7112 4.87615C11.6869 4.89957 11.6539 4.91273 11.6194 4.91273H10.2976V5.40279H11.6194C11.6539 5.40279 11.6869 5.41594 11.7112 5.43936C11.7355 5.46277 11.7492 5.49453 11.7492 5.52764V6.00772C11.7492 6.04083 11.7355 6.07259 11.7112 6.096C11.6869 6.11942 11.6539 6.13257 11.6194 6.13257H10.2976V6.62326H11.6194C11.6539 6.62326 11.6869 6.63642 11.7112 6.65983C11.7355 6.68325 11.7492 6.715 11.7492 6.74812V7.22008C11.7498 7.23684 11.7469 7.25355 11.7407 7.2692C11.7344 7.28486 11.725 7.29914 11.7129 7.3112C11.7007 7.32326 11.6862 7.33285 11.6702 7.3394C11.6541 7.34595 11.6369 7.34931 11.6194 7.3493Z" fill="#D7D7D7"/>
<path d="M4.4252 7.34925C4.45962 7.34925 4.49263 7.3361 4.51697 7.31268C4.54131 7.28927 4.55498 7.25751 4.55498 7.22439V6.75243C4.55498 6.71932 4.54131 6.68756 4.51697 6.66415C4.49263 6.64073 4.45962 6.62758 4.4252 6.62758H3.1034V4.31773C3.1034 4.28461 3.08972 4.25286 3.06539 4.22944C3.04105 4.20603 3.00804 4.19287 2.97362 4.19287H2.48305C2.44863 4.19287 2.41562 4.20603 2.39128 4.22944C2.36695 4.25286 2.35327 4.28461 2.35327 4.31773V7.22252C2.35327 7.25563 2.36695 7.28739 2.39128 7.31081C2.41562 7.33422 2.44863 7.34738 2.48305 7.34738H4.42974L4.4252 7.34925Z" fill="#D7D7D7"/>
<path d="M5.59572 4.18848H5.10515C5.03204 4.18848 4.97278 4.2455 4.97278 4.31583V7.22249C4.97278 7.29283 5.03204 7.34985 5.10515 7.34985H5.59572C5.66883 7.34985 5.72809 7.29283 5.72809 7.22249V4.31583C5.72809 4.2455 5.66883 4.18848 5.59572 4.18848Z" fill="#D7D7D7"/>
<path d="M8.93828 4.18799H8.44772C8.4133 4.18799 8.38028 4.20114 8.35595 4.22456C8.33161 4.24797 8.31794 4.27973 8.31794 4.31285V6.03962L6.93578 4.24355C6.93263 4.23879 6.92893 4.2344 6.92475 4.23044L6.91697 4.22295L6.90983 4.21733H6.90594L6.8988 4.21234H6.8949L6.88777 4.20859H6.88322H6.87609H6.87154H6.86376H6.85857H6.85078H6.84559H6.83845H6.33815C6.30373 4.20859 6.27072 4.22175 6.24638 4.24516C6.22205 4.26858 6.20837 4.30033 6.20837 4.33345V7.24011C6.20837 7.27323 6.22205 7.30499 6.24638 7.3284C6.27072 7.35182 6.30373 7.36497 6.33815 7.36497H6.82937C6.86379 7.36497 6.8968 7.35182 6.92113 7.3284C6.94547 7.30499 6.95915 7.27323 6.95915 7.24011V5.49649L8.34324 7.29443C8.35231 7.30716 8.36375 7.31817 8.37698 7.32689L8.38477 7.33188H8.38866H8.39515H8.40164H8.40619H8.41527C8.42674 7.3346 8.4385 7.33607 8.45031 7.33625H8.93828C8.9727 7.33625 9.00571 7.3231 9.03005 7.29968C9.05439 7.27627 9.06806 7.24451 9.06806 7.2114V4.31534C9.06841 4.29874 9.0653 4.28223 9.05894 4.2668C9.05257 4.25136 9.04306 4.2373 9.03098 4.22544C9.01889 4.21358 9.00447 4.20416 8.98855 4.19773C8.97264 4.1913 8.95555 4.18798 8.93828 4.18799Z" fill="#D7D7D7"/>
</g>
<defs>
<clipPath id="clip0_3279_44687">
<rect width="13.8462" height="12.6923" fill="white" transform="translate(0.0769043 0.223633)"/>
</clipPath>
</defs>
</svg>
