<svg width="38" height="25" viewBox="0 0 38 25" fill="none" xmlns="http://www.w3.org/2000/svg">
<g clip-path="url(#clip0_4901_40233)">
<path d="M0 7.08789H38V18.8979H0V7.08789Z" fill="white"/>
<path d="M35.8902 0.988281H2.11021C1.82918 0.992193 1.55166 1.05143 1.29352 1.1626C1.03538 1.27378 0.801666 1.43472 0.605729 1.63623C0.409792 1.83773 0.255469 2.07587 0.151574 2.33702C0.0476785 2.59818 -0.00375416 2.87725 0.000213223 3.15828V7.08828H38.0002V3.18828C38.0082 2.90722 37.9607 2.62735 37.8605 2.36465C37.7603 2.10195 37.6093 1.86157 37.4161 1.65726C37.2229 1.45295 36.9914 1.28871 36.7347 1.17392C36.4781 1.05913 36.2013 0.996051 35.9202 0.988281H35.8902Z" fill="#00B236"/>
<path d="M0.000864415 22.7884C-0.00712624 23.0695 0.0403475 23.3494 0.140573 23.6121C0.240798 23.8748 0.391809 24.1151 0.584976 24.3195C0.778143 24.5238 1.00968 24.688 1.26635 24.8028C1.52302 24.9176 1.7998 24.9807 2.08086 24.9884H35.8909C36.1719 24.9845 36.4494 24.9253 36.7076 24.8141C36.9657 24.7029 37.1994 24.542 37.3954 24.3405C37.5913 24.139 37.7456 23.9009 37.8495 23.6397C37.9534 23.3785 38.0048 23.0995 38.0009 22.8184V18.8984H0.000864415V22.7884Z" fill="#0095E3"/>
<path d="M0.960938 9.96867V15.6187H2.10094V13.1487H4.50094V12.0587H2.10094V11.0587H4.54094V9.96867H0.960938ZM7.88094 14.8087V12.9887C7.88094 12.3787 7.57094 11.6087 6.24094 11.6087C5.81735 11.6022 5.39645 11.6769 5.00094 11.8287V12.8287C5.32679 12.6224 5.70532 12.5148 6.09094 12.5187C6.45094 12.5187 6.80094 12.6387 6.80094 13.0587C6.59764 12.9918 6.38493 12.9581 6.17094 12.9587C5.97016 12.9305 5.76564 12.947 5.57194 13.0069C5.37824 13.0668 5.20011 13.1686 5.05022 13.3051C4.90034 13.4416 4.78237 13.6095 4.70472 13.7968C4.62706 13.9841 4.59163 14.1861 4.60094 14.3887C4.59822 14.5671 4.63373 14.744 4.70508 14.9076C4.77642 15.0711 4.88196 15.2175 5.01459 15.3368C5.14721 15.4562 5.30386 15.5458 5.47399 15.5996C5.64412 15.6534 5.8238 15.6701 6.00094 15.6487C6.3248 15.6545 6.64141 15.5525 6.90094 15.3587C6.91344 15.4504 6.94403 15.5388 6.99094 15.6187H8.12094C8.00094 15.5087 7.88094 15.2787 7.88094 14.8087ZM5.68094 14.2687C5.68094 13.9587 5.95094 13.7487 6.33094 13.7487C6.49424 13.7464 6.6556 13.7842 6.80094 13.8587V14.5287C6.6443 14.6682 6.44065 14.7432 6.23094 14.7387C5.87094 14.7387 5.68094 14.5387 5.68094 14.2687ZM31.2109 14.8087V12.9887C31.2109 12.3787 30.9009 11.6087 29.5709 11.6087C29.1467 11.6057 28.7258 11.6837 28.3309 11.8387V12.8387C28.6568 12.6324 29.0353 12.5248 29.4209 12.5287C29.7809 12.5287 30.1309 12.6487 30.1309 13.0687C29.9276 13.0018 29.7149 12.9681 29.5009 12.9687C29.3027 12.9411 29.1009 12.9569 28.9094 13.015C28.718 13.0732 28.5414 13.1723 28.3921 13.3055C28.2427 13.4387 28.1241 13.6027 28.0445 13.7863C27.9649 13.9699 27.9261 14.1686 27.9309 14.3687C27.929 14.5424 27.9633 14.7147 28.0317 14.8744C28.1 15.0342 28.2009 15.1779 28.328 15.2965C28.455 15.4151 28.6054 15.5058 28.7694 15.563C28.9335 15.6202 29.1077 15.6426 29.2809 15.6287C29.6049 15.6353 29.9218 15.5332 30.1809 15.3387C30.1959 15.4298 30.2263 15.5178 30.2709 15.5987H31.4509C31.3109 15.5087 31.2109 15.2787 31.2109 14.8087ZM29.0009 14.2687C29.0009 13.9587 29.2709 13.7487 29.6509 13.7487C29.8142 13.7464 29.9756 13.7842 30.1209 13.8587V14.5287C29.9643 14.6682 29.7606 14.7432 29.5509 14.7387C29.2109 14.7387 29.0009 14.5387 29.0009 14.2687ZM12.6509 11.6387C12.44 11.6244 12.2286 11.6584 12.0328 11.7381C11.837 11.8178 11.6619 11.9411 11.5209 12.0987C11.3999 11.9513 11.247 11.8334 11.0738 11.7537C10.9006 11.674 10.7116 11.6347 10.5209 11.6387C10.1537 11.6257 9.79564 11.7547 9.52094 11.9987V11.6687H8.52094V15.6187H9.60094V12.9887C9.66613 12.8978 9.75158 12.8234 9.85052 12.7714C9.94945 12.7193 10.0592 12.691 10.1709 12.6887C10.4909 12.6887 10.6809 12.9087 10.6809 13.3087V15.6387H11.7809V12.9387C11.8461 12.8524 11.9309 12.7829 12.0283 12.7359C12.1257 12.689 12.2329 12.6659 12.3409 12.6687C12.6909 12.6687 12.8509 12.9187 12.8509 13.2887V15.6187H14.0009V12.8887C14.0115 12.713 13.9829 12.5372 13.9173 12.3739C13.8517 12.2107 13.7507 12.064 13.6216 11.9444C13.4924 11.8248 13.3384 11.7354 13.1706 11.6826C13.0027 11.6297 12.8253 11.6147 12.6509 11.6387ZM16.4909 9.96867H17.5709V15.6187H16.4909V9.96867ZM24.8509 11.7287L23.4209 9.96867H22.2409V15.6187H23.4209V11.7287L24.8509 13.6187L26.2709 11.7287V15.6187H27.4609V9.96867H26.2709L24.8509 11.7287ZM14.6709 11.6787H15.7509V15.6187H14.6709V11.6787ZM15.2009 9.88867C15.0625 9.88867 14.9272 9.92973 14.812 10.0066C14.6969 10.0836 14.6072 10.1929 14.5542 10.3208C14.5012 10.4487 14.4874 10.5894 14.5144 10.7252C14.5414 10.861 14.6081 10.9857 14.706 11.0836C14.8039 11.1815 14.9286 11.2482 15.0644 11.2752C15.2002 11.3022 15.3409 11.2884 15.4688 11.2354C15.5967 11.1824 15.706 11.0927 15.783 10.9776C15.8599 10.8625 15.9009 10.7271 15.9009 10.5887C15.9009 10.403 15.8272 10.225 15.6959 10.0937C15.5646 9.96242 15.3866 9.88867 15.2009 9.88867ZM32.8409 12.0887V11.6787H31.8409V15.6287H32.9209V13.1487C33.013 13.0321 33.1299 12.9376 33.2631 12.8718C33.3963 12.8061 33.5424 12.7709 33.6909 12.7687C33.9107 12.7665 34.1251 12.8368 34.3009 12.9687V11.7687C34.1437 11.6753 33.9638 11.6269 33.7809 11.6287C33.5984 11.6212 33.4168 11.6594 33.2527 11.7397C33.0886 11.82 32.9471 11.94 32.8409 12.0887ZM36.5809 14.6187C36.2409 14.6187 36.1109 14.3587 36.1109 14.0587V12.7087H37.0009V11.7087H36.0809V10.1887L35.0009 10.6487V11.6487H34.4209V12.6487H35.0009V14.1587C35.0009 14.9787 35.3309 15.6087 36.2909 15.6087C36.5323 15.6152 36.7729 15.5779 37.0009 15.4987V14.4587C36.887 14.5644 36.7364 14.6218 36.5809 14.6187ZM18.8709 16.6387H20.0809L21.9009 11.6787H20.7209L19.9709 13.8087L19.1509 11.6787H17.9209L19.4109 15.2587L18.8709 16.6387Z" fill="#008CD6"/>
</g>
<defs>
<clipPath id="clip0_4901_40233">
<rect width="38" height="24" fill="white" transform="translate(0 0.988281)"/>
</clipPath>
</defs>
</svg>
