<svg width="40" height="40" viewBox="0 0 40 40" fill="none" xmlns="http://www.w3.org/2000/svg">
<path d="M37.0236 7L36.0472 12.5243C35.245 12.3312 34.5459 11.8296 34.0944 11.1232C33.7709 10.5851 33.3185 10.1409 32.7801 9.83274C32.2417 9.52461 31.6353 9.36284 31.0187 9.36284C30.4021 9.36284 29.7957 9.52461 29.2574 9.83274C28.719 10.1409 28.2665 10.5851 27.9431 11.1232C27.7149 11.5535 27.3777 11.9128 26.967 12.1632C26.5563 12.4135 26.0873 12.5457 25.6094 12.5457C25.1316 12.5457 24.6626 12.4135 24.2519 12.1632C23.8412 11.9128 23.504 11.5535 23.2758 11.1232C22.9536 10.585 22.5021 10.1405 21.9645 9.83213C21.4269 9.52378 20.8211 9.36186 20.205 9.36186C19.589 9.36186 18.9832 9.52378 18.4456 9.83213C17.908 10.1405 17.4565 10.585 17.1343 11.1232C16.9076 11.5538 16.5714 11.9136 16.1615 12.1643C15.7515 12.4151 15.2829 12.5475 14.8055 12.5475C14.3281 12.5475 13.8596 12.4151 13.4496 12.1643C13.0396 11.9136 12.7035 11.5538 12.4768 11.1232C12.1546 10.585 11.7031 10.1405 11.1655 9.83213C10.6279 9.52378 10.0221 9.36186 9.40601 9.36186C8.78995 9.36186 8.18418 9.52378 7.64656 9.83213C7.10895 10.1405 6.65747 10.585 6.33523 11.1232C6.08792 11.5341 5.74755 11.8779 5.34301 12.1252C4.93847 12.3726 4.48168 12.5164 4.01139 12.5443V13.4349L2.9764 7L2 7.17014L6.38404 33H33.616L38 7.17014L37.0236 7ZM32.7762 32.0192H7.1847L4.05045 13.565C4.65687 13.5344 5.24795 13.3592 5.77677 13.0535C6.30559 12.7477 6.75756 12.3198 7.09683 11.8037C7.32352 11.3731 7.65966 11.0133 8.06963 10.7625C8.4796 10.5118 8.94814 10.3794 9.42556 10.3794C9.90298 10.3794 10.3715 10.5118 10.7815 10.7625C11.1914 11.0133 11.5276 11.3731 11.7543 11.8037C12.0765 12.3419 12.528 12.7864 13.0656 13.0947C13.6032 13.4031 14.209 13.565 14.8251 13.565C15.4411 13.565 16.0469 13.4031 16.5845 13.0947C17.1221 12.7864 17.5736 12.3419 17.8959 11.8037C18.1441 11.3914 18.486 11.0468 18.8924 10.7994C19.2987 10.5519 19.7575 10.4089 20.2295 10.3826C20.7014 10.4089 21.1602 10.5519 21.5665 10.7994C21.9729 11.0468 22.3148 11.3914 22.5631 11.8037C22.8853 12.3419 23.3368 12.7864 23.8744 13.0947C24.412 13.4031 25.0178 13.565 25.6338 13.565C26.2499 13.565 26.8557 13.4031 27.3933 13.0947C27.9309 12.7864 28.3824 12.3419 28.7046 11.8037C28.9529 11.3914 29.2948 11.0468 29.7011 10.7994C30.1075 10.5519 30.5663 10.4089 31.0382 10.3826C31.5119 10.4073 31.9726 10.5496 32.3808 10.7971C32.789 11.0446 33.1325 11.3901 33.3816 11.8037C33.9782 12.6931 34.8883 13.3102 35.9203 13.525L32.7762 32.0192Z" fill="#555555"/>
</svg>
