<svg width="35" height="35" viewBox="0 0 35 35" fill="none" xmlns="http://www.w3.org/2000/svg">
<path d="M34.7307 13.644C34.7124 13.3972 34.6331 13.1585 34.4997 12.9483C34.3663 12.738 34.1828 12.5626 33.9649 12.437C33.7469 12.3114 33.5011 12.2394 33.2484 12.2272C32.9958 12.215 32.7439 12.2629 32.5144 12.3669C29.9096 13.5443 27.214 13.5007 24.2733 12.2345C23.4772 11.8934 22.7082 11.923 22.1445 12.3326C19.9155 13.9322 16.9222 15.3651 14.0245 16.7512C8.98044 19.1669 5 21.0733 5 23.6836C5 26.5743 7.1574 28.4823 10.9324 28.9184C11.3842 28.971 11.8388 28.9981 12.2938 28.9994H12.3702C12.5834 29.0034 12.7965 28.9888 13.0071 28.9557H31.8282C32.5711 28.955 33.2841 28.6693 33.814 28.16C34.3439 27.6506 34.6485 26.9583 34.6622 26.2317C35.0921 21.7959 35.108 18.7292 34.7307 13.644ZM31.8282 27.0899H11.4276C10.3402 26.9902 8.82122 26.6865 7.86592 25.8641C7.22905 25.3143 6.91061 24.6041 6.91061 23.6836C6.91061 22.5685 9.52496 21.0608 12.3447 19.6513L14.3588 21.6262L15.7106 20.3039L14.147 18.776L14.8715 18.4302L15.416 18.1685L17.5623 20.2727L18.914 18.9504L17.2199 17.2979C17.6711 17.0767 18.1185 16.8525 18.5622 16.6251L20.589 18.6031L21.9407 17.2823L20.3119 15.689C21.3189 15.1363 22.2937 14.5296 23.232 13.8714C23.3266 13.8793 23.4188 13.9042 23.5043 13.9446C26.7587 15.3464 29.9032 15.4507 32.8599 14.2561C33.1624 18.5034 33.1783 21.2197 32.8742 24.7879H22.0363V26.3454H32.7309C32.6924 26.5528 32.5812 26.7406 32.4165 26.8765C32.2517 27.0124 32.0437 27.0878 31.8282 27.0899Z" fill="#555555" fill-opacity="0.5"/>
</svg>
