<svg width="35" height="35" viewBox="0 0 35 35" fill="none" xmlns="http://www.w3.org/2000/svg">
<path d="M17.2741 34C15.7354 34.0023 14.2358 33.5173 12.9914 32.6149C11.747 31.7125 10.8221 30.4393 10.3501 28.9789C9.87815 27.5186 9.88348 25.9464 10.3653 24.4892C10.8472 23.0321 11.7806 21.7651 13.0311 20.8711L16.1026 18.6716V6H30.6316V23.612C30.6309 24.3862 30.4456 25.1492 30.0908 25.8378C29.736 26.5265 29.222 27.121 28.5912 27.5724L21.4967 32.642C20.2668 33.5251 18.7896 34.0001 17.2741 34ZM18.2865 8.17778V19.79L14.304 22.6444C13.2077 23.4283 12.4685 24.6144 12.2491 25.9417C12.0297 27.269 12.348 28.6289 13.1341 29.7222C13.9201 30.8155 15.1095 31.5526 16.4406 31.7714C17.7716 31.9902 19.1353 31.6727 20.2317 30.8889L27.3168 25.8022C27.6655 25.5525 27.9496 25.2237 28.1457 24.8428C28.3418 24.462 28.4443 24.0401 28.4446 23.612V8.17778H18.2865Z" fill="#555555" fill-opacity="0.5"/>
</svg>
