<svg width="18" height="19" viewBox="0 0 18 19" fill="none" xmlns="http://www.w3.org/2000/svg">
<path d="M8.99973 2.44792C10.5861 2.44792 12.0313 3.25333 12.8657 4.60352C13.6892 5.93652 13.7725 7.56543 13.0901 8.97263L8.99973 15.6485L4.90935 8.97263C4.22701 7.56543 4.31027 5.93652 5.13378 4.60352C5.96814 3.25424 7.41335 2.44792 8.99973 2.44792ZM8.99973 1C4.54556 1 1.6479 5.68765 3.6406 9.67216L8.80608 18.1036H9.1943L14.3598 9.67216C16.3516 5.68765 13.4548 1 8.99973 1Z" fill="#555555" fill-opacity="0.5"/>
<path d="M8.99973 6.01706C9.55357 6.01706 10.0051 6.46772 10.0051 7.02246C10.0051 7.5772 9.55447 8.02786 8.99973 8.02786C8.445 8.02786 7.99433 7.5772 7.99433 7.02246C7.99433 6.46772 8.445 6.01706 8.99973 6.01706ZM8.99973 4.84062C7.79524 4.84062 6.81789 5.81706 6.81789 7.02246C6.81789 8.22786 7.79434 9.2043 8.99973 9.2043C10.2051 9.2043 11.1816 8.22786 11.1816 7.02246C11.1816 5.81706 10.2051 4.84062 8.99973 4.84062Z" fill="#555555" fill-opacity="0.5"/>
</svg>
