<svg width="40" height="40" viewBox="0 0 40 40" fill="none" xmlns="http://www.w3.org/2000/svg">
<path d="M37.0442 7L36.0688 12.5243C35.2675 12.3312 34.5692 11.8296 34.1181 11.1232C33.7962 10.585 33.3452 10.1405 32.8082 9.83213C32.2712 9.52378 31.6661 9.36186 31.0507 9.36186C30.4353 9.36186 29.8302 9.52378 29.2931 9.83213C28.7561 10.1405 28.3051 10.585 27.9832 11.1232C27.7539 11.5532 27.416 11.9121 27.005 12.1621C26.594 12.4121 26.125 12.544 25.6473 12.544C25.1695 12.544 24.7005 12.4121 24.2895 12.1621C23.8785 11.9121 23.5406 11.5532 23.3113 11.1232C22.9907 10.5849 22.5406 10.1401 22.0044 9.83152C21.4681 9.52294 20.8636 9.36088 20.2487 9.36088C19.6339 9.36088 19.0293 9.52294 18.4931 9.83152C17.9568 10.1401 17.5068 10.5849 17.1861 11.1232C16.9582 11.5535 16.6214 11.9128 16.2111 12.1632C15.8009 12.4135 15.3324 12.5457 14.8551 12.5457C14.3777 12.5457 13.9092 12.4135 13.499 12.1632C13.0887 11.9128 12.7519 11.5535 12.524 11.1232C12.2034 10.5849 11.7533 10.1401 11.2171 9.83152C10.6808 9.52294 10.0762 9.36088 9.4614 9.36088C8.84656 9.36088 8.24202 9.52294 7.70575 9.83152C7.16947 10.1401 6.71945 10.5849 6.39882 11.1232C6.15084 11.5354 5.8093 11.88 5.40338 12.1275C4.99746 12.375 4.53921 12.518 4.06774 12.5443V13.4349L2.97535 7L2 7.17014L6.40857 33H33.6207L38 7.17014L37.0442 7ZM32.8112 32.0192H7.23761L4.10675 13.565C4.71354 13.5391 5.3057 13.3659 5.83466 13.0597C6.36362 12.7536 6.81432 12.3231 7.14982 11.8037C7.3978 11.3914 7.73934 11.0468 8.14526 10.7994C8.55118 10.5519 9.00943 10.4089 9.4809 10.3826C9.95236 10.4089 10.4106 10.5519 10.8165 10.7994C11.2225 11.0468 11.564 11.3914 11.812 11.8037C12.1326 12.342 12.5826 12.7868 13.1189 13.0954C13.6552 13.4039 14.2597 13.566 14.8746 13.566C15.4894 13.566 16.094 13.4039 16.6302 13.0954C17.1665 12.7868 17.6165 12.342 17.9372 11.8037C18.165 11.3734 18.5019 11.0141 18.9121 10.7637C19.3224 10.5133 19.7909 10.3812 20.2682 10.3812C20.7456 10.3812 21.2141 10.5133 21.6243 10.7637C22.0346 11.0141 22.3714 11.3734 22.5993 11.8037C22.9212 12.3419 23.3722 12.7864 23.9092 13.0947C24.4462 13.4031 25.0514 13.565 25.6668 13.565C26.2822 13.565 26.8873 13.4031 27.4243 13.0947C27.9613 12.7864 28.4123 12.3419 28.7342 11.8037C28.9635 11.3736 29.3014 11.0148 29.7124 10.7648C30.1234 10.5148 30.5924 10.3829 31.0702 10.3829C31.548 10.3829 32.0169 10.5148 32.4279 10.7648C32.8389 11.0148 33.1768 11.3736 33.4061 11.8037C34.002 12.6931 34.9112 13.3102 35.942 13.525L32.8112 32.0192Z" fill="#555555"/>
<path d="M16.4351 21.0108C16.0084 21.0044 15.5845 21.0825 15.1867 21.241C14.9614 21.3455 14.7486 21.4764 14.5527 21.6312L14.9623 18.8791H19.0881V17.6782H14.0845L13.3433 23.0123L14.3966 23.0724C14.596 22.786 14.8561 22.5499 15.1574 22.3818C15.4665 22.2109 15.811 22.1183 16.162 22.1116C16.7092 22.0999 17.2398 22.3041 17.6445 22.6821C17.8566 22.8853 18.0218 23.1345 18.128 23.4115C18.2343 23.6885 18.2791 23.9863 18.259 24.2833C18.2591 24.8479 18.0773 25.3968 17.7421 25.8445C17.5505 26.0853 17.305 26.2748 17.0264 26.3968C16.7478 26.5189 16.4445 26.5697 16.1425 26.545C15.8075 26.5467 15.4757 26.4786 15.1672 26.3449C14.8912 26.2089 14.6554 26.0001 14.484 25.7398C14.3127 25.4795 14.2118 25.1772 14.1918 24.8637H12.9336C12.9354 25.2647 13.0238 25.6602 13.1925 26.0219C13.3611 26.3836 13.6058 26.7024 13.909 26.9553C14.5123 27.4126 15.2463 27.6519 15.9962 27.6359C16.4951 27.6832 16.9978 27.6112 17.4649 27.4253C17.932 27.2395 18.3508 26.9451 18.6882 26.5651C19.249 25.8712 19.55 24.9945 19.5367 24.0932C19.5502 23.6758 19.4742 23.2605 19.3141 22.8766C19.154 22.4927 18.9137 22.1496 18.6101 21.8714C18.0185 21.3106 17.2405 21.0028 16.4351 21.0108Z" fill="#555555"/>
<path d="M23.9648 17.5181C23.3102 17.5102 22.672 17.7278 22.1521 18.136C21.6323 18.5442 21.2609 19.1195 21.0973 19.7698C20.7931 20.7014 20.6479 21.6798 20.6681 22.662C20.611 23.8631 20.8562 25.059 21.3801 26.1347C21.6222 26.6183 21.9943 27.0206 22.4524 27.2938C22.9106 27.5669 23.4354 27.6996 23.9648 27.6759C24.5609 27.6953 25.148 27.5236 25.6445 27.1846C26.141 26.8455 26.5221 26.3561 26.7348 25.7845C27.1574 24.7286 27.3569 23.5927 27.32 22.4519C27.3748 21.2972 27.1538 20.1463 26.6762 19.0993C26.4221 18.5946 26.0306 18.1764 25.5493 17.8957C25.0679 17.615 24.5174 17.4838 23.9648 17.5181ZM25.4571 25.6944C25.2771 25.9963 25.0131 26.2359 24.6991 26.3825C24.3851 26.529 24.0355 26.5756 23.6955 26.5164C23.3554 26.4572 23.0404 26.2948 22.7912 26.0501C22.5419 25.8055 22.3698 25.4899 22.2969 25.144C22.0573 24.3576 21.9485 23.5355 21.9751 22.7121C21.9272 21.6862 22.0969 20.6618 22.4725 19.7098C22.6057 19.4002 22.8268 19.139 23.107 18.9605C23.3871 18.7819 23.7133 18.6943 24.0428 18.709C24.3841 18.6863 24.7231 18.78 25.0071 18.9755C25.2911 19.1709 25.5041 19.4572 25.6131 19.7898C25.9038 20.6861 26.0391 21.6277 26.013 22.572C26.0764 23.6488 25.8681 24.7242 25.4083 25.6944H25.4571Z" fill="#555555"/>
</svg>
