<svg width="40" height="40" viewBox="0 0 40 40" fill="none" xmlns="http://www.w3.org/2000/svg">
<path d="M20 33.3265C22.9663 33.3265 25.866 32.4374 28.3325 30.7717C30.7991 29.1059 32.7217 26.7383 33.8573 23.9682C34.9929 21.198 35.2905 18.1498 34.7125 15.2086C34.1345 12.2675 32.7068 9.56568 30.61 7.44468C28.5132 5.32367 25.8414 3.87873 22.9323 3.29256C20.0232 2.70638 17.0075 3.00527 14.2664 4.15144C11.5254 5.29761 9.18204 7.23957 7.53265 9.73186C5.88327 12.2242 5.00191 15.1549 5 18.1535C5 22.1759 6.58004 26.0337 9.39281 28.8789C12.2056 31.7241 16.0209 33.3239 20 33.3265ZM20 4.01613C22.7776 4.01615 25.4928 4.84939 27.8016 6.41036C30.1104 7.97133 31.9091 10.1898 32.9698 12.7848C34.0306 15.3799 34.3056 18.2347 33.7602 20.9879C33.2148 23.7411 31.8734 26.2688 29.906 28.2508C27.9385 30.2328 25.4335 31.58 22.7081 32.1218C19.9826 32.6637 17.1595 32.3758 14.596 31.2946C12.0326 30.2134 9.84424 28.3875 8.30804 26.0481C6.77185 23.7088 5.95693 20.9613 5.96649 18.1535C5.97161 14.3935 7.4521 10.7892 10.0831 8.13146C12.714 5.4737 16.2805 3.9796 20 3.97701V4.01613Z" fill="#555555"/>
<path d="M17.7191 20.0098H22.3003C22.9072 20.0583 23.5172 19.9675 24.0845 19.7442C24.6519 19.5208 25.162 19.1708 25.5767 18.7202C26.287 17.8762 26.6684 16.7993 26.6495 15.6914C26.6845 15.1123 26.5956 14.5323 26.3888 13.9911C26.1819 13.4499 25.8621 12.9601 25.451 12.5552C24.5826 11.7853 23.4543 11.3829 22.3003 11.4316H15.7281V26.292H17.7191V20.0098ZM17.7191 13.1707H21.6527C22.2712 13.1433 22.8882 13.2533 23.46 13.4931C23.8559 13.6991 24.181 14.0209 24.3931 14.4165C24.6052 14.8122 24.6943 15.2633 24.6488 15.7109C24.6894 16.0944 24.6347 16.4819 24.4895 16.8385C24.3444 17.1951 24.1134 17.5094 23.8177 17.7529C23.1704 18.1623 22.4155 18.3633 21.6527 18.3293H17.7191V13.1707Z" fill="#555555"/>
<path d="M34.5168 36.023H5.48325V37H34.5168V36.023Z" fill="#555555"/>
</svg>
