<svg width="40" height="40" viewBox="0 0 40 40" fill="none" xmlns="http://www.w3.org/2000/svg">
<path d="M36.9865 7L36.0119 12.5242C35.2113 12.3312 34.5135 11.8296 34.0628 11.1232C33.7412 10.585 33.2906 10.1405 32.754 9.83213C32.2174 9.52378 31.6127 9.36186 30.9978 9.36186C30.3829 9.36186 29.7783 9.52378 29.2417 9.83213C28.7051 10.1405 28.2545 10.585 27.9329 11.1232C27.6842 11.5368 27.3414 11.8822 26.934 12.1297C26.5266 12.3773 26.0667 12.5195 25.5939 12.5443C25.1229 12.518 24.665 12.3749 24.2594 12.1275C23.8538 11.88 23.5125 11.5354 23.2648 11.1232C22.9282 10.6005 22.4749 10.168 21.9426 9.86157C21.4103 9.5552 20.8145 9.38383 20.2047 9.3618C19.596 9.38942 19.0022 9.56314 18.4708 9.86903C17.9393 10.1749 17.4851 10.6044 17.1446 11.1232C16.8968 11.5354 16.5555 11.88 16.1499 12.1275C15.7443 12.3749 15.2865 12.518 14.8154 12.5443C14.3443 12.518 13.8864 12.3749 13.4808 12.1275C13.0752 11.88 12.734 11.5354 12.4862 11.1232C12.1456 10.6044 11.6914 10.1749 11.16 9.86903C10.6286 9.56314 10.0347 9.38942 9.4261 9.3618C8.81655 9.39861 8.22275 9.575 7.6882 9.87804C7.15365 10.1811 6.69189 10.6031 6.33676 11.1131C6.06694 11.5185 5.71274 11.8572 5.2998 12.1047C4.88685 12.3522 4.4255 12.5024 3.94911 12.5443L2.97455 7L2 7.17011L6.37574 33H33.6243L38 7.17011L36.9865 7ZM32.7569 32.0192H7.20411L4.0758 13.555C4.65336 13.4862 5.21096 13.2961 5.71393 12.9965C6.21689 12.6969 6.65447 12.2943 6.99946 11.8137C7.27224 11.4 7.63364 11.0559 8.05596 10.8079C8.47828 10.5598 8.9503 10.4143 9.43584 10.3826C9.90693 10.4089 10.3648 10.5519 10.7704 10.7994C11.176 11.0468 11.5172 11.3914 11.765 11.8037C12.1004 12.3275 12.5534 12.761 13.086 13.0675C13.6185 13.374 14.215 13.5447 14.8251 13.565C15.4351 13.5438 16.0313 13.3728 16.5637 13.0664C17.0961 12.76 17.5493 12.3269 17.8852 11.8037C18.133 11.3914 18.4742 11.0468 18.8798 10.7994C19.2854 10.5519 19.7433 10.4089 20.2144 10.3826C20.6855 10.4089 21.1434 10.5519 21.549 10.7994C21.9546 11.0468 22.2958 11.3914 22.5436 11.8037C22.8652 12.3419 23.3158 12.7864 23.8524 13.0947C24.389 13.4031 24.9937 13.565 25.6086 13.565C26.2235 13.565 26.8281 13.4031 27.3647 13.0947C27.9013 12.7864 28.3519 12.3419 28.6735 11.8037C28.9027 11.3736 29.2403 11.0148 29.6509 10.7648C30.0616 10.5148 30.5302 10.3829 31.0076 10.3829C31.485 10.3829 31.9536 10.5148 32.3642 10.7648C32.7749 11.0148 33.1125 11.3736 33.3416 11.8037C33.937 12.693 34.8455 13.3102 35.8755 13.525L32.7569 32.0192Z" fill="#555555"/>
<path d="M16.1177 17.5C15.6751 17.4668 15.2311 17.5398 14.8207 17.7134C14.4104 17.887 14.045 18.1563 13.7533 18.5C13.2278 19.167 12.9455 20.0018 12.9555 20.86C12.9231 21.7043 13.2169 22.5275 13.7728 23.15C14.0565 23.4508 14.3994 23.6858 14.7786 23.8393C15.1579 23.9928 15.5647 24.0612 15.9717 24.04C16.4103 24.0433 16.8447 23.9513 17.2463 23.77C17.6548 23.5732 17.9945 23.252 18.2193 22.85C18.1811 23.909 17.8833 24.9409 17.3533 25.85C17.1743 26.0768 16.9492 26.2606 16.6937 26.3885C16.4382 26.5163 16.1585 26.5851 15.8744 26.59C15.5825 26.5953 15.2943 26.523 15.0377 26.38C14.795 26.2387 14.5948 26.0315 14.4592 25.781C14.3236 25.5305 14.2578 25.2464 14.269 24.96H13.0723C13.0622 25.311 13.1217 25.6604 13.2472 25.9871C13.3726 26.3137 13.5614 26.6107 13.802 26.86C14.0927 27.1281 14.4328 27.3335 14.8022 27.464C15.1715 27.5946 15.5626 27.6476 15.9523 27.62C16.6328 27.6394 17.3001 27.4245 17.8483 27.0097C18.3965 26.5948 18.7942 26.0036 18.9782 25.33C19.3482 24.3032 19.5297 23.2148 19.5133 22.12C19.51 21.199 19.3281 20.2879 18.9782 19.44C18.7613 18.8479 18.3679 18.3415 17.8541 17.9931C17.3404 17.6447 16.7326 17.4721 16.1177 17.5ZM17.4409 22.5C17.0727 22.8169 16.6076 22.9904 16.1274 22.99C15.8581 23.0137 15.5871 22.9748 15.3344 22.8761C15.0817 22.7774 14.854 22.6215 14.6679 22.42C14.359 21.9511 14.1996 21.395 14.2118 20.8288C14.224 20.2626 14.4072 19.7144 14.736 19.26C14.9118 19.0563 15.1298 18.8958 15.374 18.7902C15.6182 18.6847 15.8823 18.6367 16.1468 18.65C16.3952 18.642 16.6426 18.6847 16.8747 18.7757C17.1069 18.8667 17.3192 19.0041 17.4993 19.18C17.6911 19.3983 17.8375 19.6547 17.9296 19.9332C18.0216 20.2118 18.0573 20.5067 18.0344 20.8C18.069 21.1081 18.0334 21.4203 17.9304 21.7119C17.8274 22.0035 17.6598 22.2665 17.4409 22.48V22.5Z" fill="#555555"/>
<path d="M24.018 20.9999C23.3401 20.9695 22.674 21.1894 22.1401 21.6199L22.5488 18.8799H26.6353V17.6699H21.6439L20.9239 22.9999L21.965 23.0599C22.165 22.7712 22.4283 22.5348 22.7337 22.3699C23.0634 22.1928 23.4321 22.1067 23.8039 22.1199C24.3467 22.1087 24.8729 22.3129 25.2731 22.6899C25.4846 22.893 25.6494 23.142 25.7554 23.4188C25.8615 23.6956 25.9061 23.9932 25.8861 24.2899C25.8906 24.8549 25.7089 25.4048 25.3704 25.8499C25.1814 26.0904 24.9382 26.2799 24.6618 26.4019C24.3854 26.5238 24.0843 26.5747 23.7845 26.5499C23.4501 26.5535 23.1188 26.4854 22.8115 26.3499C22.5343 26.2167 22.2975 26.0087 22.1261 25.748C21.9548 25.4874 21.8554 25.184 21.8385 24.8699H20.5639C20.5636 25.2709 20.6509 25.6669 20.8193 26.0286C20.9877 26.3903 21.2329 26.7086 21.5369 26.9599C22.1358 27.4154 22.8644 27.6545 23.6093 27.6399C24.1084 27.6873 24.6114 27.6153 25.079 27.4297C25.5465 27.2441 25.9659 26.9498 26.3045 26.5699C26.8612 25.8756 27.158 24.9995 27.1412 24.0999C27.1539 23.684 27.0787 23.2701 26.9208 22.8868C26.7629 22.5036 26.5261 22.1601 26.2266 21.8799C25.6292 21.3036 24.8373 20.9881 24.018 20.9999Z" fill="#555555"/>
</svg>
