<svg width="38" height="25" viewBox="0 0 38 25" fill="none" xmlns="http://www.w3.org/2000/svg">
<g clip-path="url(#clip0_4901_40192)">
<path opacity="0.07" d="M35 0.988281H3C1.3 0.988281 0 2.28828 0 3.98828V21.9883C0 23.6883 1.4 24.9883 3 24.9883H35C36.7 24.9883 38 23.6883 38 21.9883V3.98828C38 2.28828 36.6 0.988281 35 0.988281Z" fill="black"/>
<path d="M35 1.98828C36.1 1.98828 37 2.88828 37 3.98828V21.9883C37 23.0883 36.1 23.9883 35 23.9883H3C1.9 23.9883 1 23.0883 1 21.9883V3.98828C1 2.88828 1.9 1.98828 3 1.98828H35Z" fill="white"/>
<path fill-rule="evenodd" clip-rule="evenodd" d="M11.5 5.98828H15V17.4883C15 18.1513 14.7366 18.7872 14.2678 19.256C13.7989 19.7249 13.163 19.9883 12.5 19.9883H9V8.48828C9 7.82524 9.26339 7.18936 9.73223 6.72051C10.2011 6.25167 10.837 5.98828 11.5 5.98828Z" fill="#006EBC"/>
<path fill-rule="evenodd" clip-rule="evenodd" d="M18.5 5.98828H22V17.4883C22 18.1513 21.7366 18.7872 21.2678 19.256C20.7989 19.7249 20.163 19.9883 19.5 19.9883H16V8.48828C16 7.82524 16.2634 7.18936 16.7322 6.72051C17.2011 6.25167 17.837 5.98828 18.5 5.98828Z" fill="#F00036"/>
<path fill-rule="evenodd" clip-rule="evenodd" d="M25.5 5.98828H29V17.4883C29 18.1513 28.7366 18.7872 28.2678 19.256C27.7989 19.7249 27.163 19.9883 26.5 19.9883H23V8.48828C23 7.82524 23.2634 7.18936 23.7322 6.72051C24.2011 6.25167 24.837 5.98828 25.5 5.98828Z" fill="#2AB419"/>
<path d="M10.7556 15.4883C9.69561 15.4883 8.63361 15.1843 8.09961 14.5013L8.87961 13.8253C8.94761 14.9583 12.4246 15.0653 12.4246 13.6353V10.4883H14.2266V13.6353C14.2266 14.3633 13.6526 14.9573 12.6536 15.2673C12.1876 15.4113 11.2886 15.4883 10.7556 15.4883ZM18.8716 15.4883C18.1976 15.4883 17.4836 15.3813 16.9066 15.1223C15.9586 14.6973 15.5946 13.9163 15.6066 12.9233C15.6186 11.9093 16.0426 11.1413 17.0746 10.7583C18.3936 10.2683 20.4176 10.4973 21.0006 11.0283V12.0003C20.4286 11.4793 19.0426 11.1023 18.0816 11.5403C17.5876 11.7663 17.3446 12.4573 17.3376 12.9883C17.3316 13.5483 17.5826 14.2403 18.0816 14.4853C19.0346 14.9523 20.4716 14.5253 21.0006 14.0443V15.0543C20.6426 15.3093 19.7476 15.4883 18.8716 15.4883ZM27.5506 12.9013C27.9206 12.6663 28.1326 12.3343 28.1326 11.8963C28.1326 11.4583 28.0166 11.2093 27.7846 10.9573C27.5786 10.7503 27.2046 10.4883 26.5466 10.4883H23.0006V15.4883H26.5466C27.2426 15.4883 27.6436 15.2583 27.8616 15.0733C28.1446 14.8233 28.2876 14.5433 28.2876 14.1133C28.2876 13.6823 28.1326 13.2053 27.5506 12.9013ZM25.6446 12.6203H24.2166V11.1763H25.7116C26.6676 11.1763 26.6556 12.6203 25.6446 12.6203ZM25.9326 14.7773H24.2166V13.2643H25.9326C26.9186 13.2643 27.0156 14.7773 25.9326 14.7773Z" fill="white"/>
</g>
<defs>
<clipPath id="clip0_4901_40192">
<rect width="38" height="24" fill="white" transform="translate(0 0.988281)"/>
</clipPath>
</defs>
</svg>
