<svg width="40" height="40" viewBox="0 0 40 40" fill="none" xmlns="http://www.w3.org/2000/svg">
<path d="M6 6V34H34V6H6ZM33.1092 33.138H6.86108V6.89174H33.0795L33.1092 33.138Z" fill="#555555"/>
<path d="M33.0795 20.0099C33.0795 17.4134 32.3104 14.8752 30.8694 12.7163C29.4284 10.5574 27.3802 8.87477 24.9839 7.88114C22.5876 6.8875 19.9508 6.6275 17.4069 7.13405C14.863 7.6406 12.5263 8.89094 10.6922 10.7269C8.85819 12.5629 7.60917 14.9021 7.10316 17.4487C6.59715 19.9953 6.85685 22.635 7.84943 25.0338C8.84201 27.4327 10.5229 29.483 12.6795 30.9255C14.8361 32.368 17.3716 33.138 19.9653 33.138C23.4426 33.1354 26.7767 31.7514 29.2356 29.29C31.6944 26.8285 33.0769 23.4909 33.0795 20.0099ZM19.9653 32.1769C17.5615 32.1769 15.2116 31.4633 13.2129 30.1264C11.2142 28.7895 9.65634 26.8892 8.73642 24.666C7.81651 22.4428 7.57579 19.9964 8.04476 17.6362C8.51373 15.2761 9.67131 13.1081 11.3711 11.4065C13.0709 9.70492 15.2365 8.54615 17.5942 8.07668C19.9519 7.60721 22.3957 7.84815 24.6165 8.76904C26.8374 9.68993 28.7356 11.2494 30.0711 13.2503C31.4066 15.2511 32.1195 17.6035 32.1195 20.0099C32.1169 23.236 30.8355 26.3292 28.5567 28.6104C26.2779 30.8916 23.188 32.1743 19.9653 32.1769Z" fill="#555555"/>
</svg>
