<svg width="38" height="25" viewBox="0 0 38 25" fill="none" xmlns="http://www.w3.org/2000/svg">
<g clip-path="url(#clip0_4901_40187)">
<path opacity="0.07" d="M35 0.988281H3C1.3 0.988281 0 2.28828 0 3.98828V21.9883C0 23.6883 1.4 24.9883 3 24.9883H35C36.7 24.9883 38 23.6883 38 21.9883V3.98828C38 2.28828 36.6 0.988281 35 0.988281Z" fill="black"/>
<path d="M35 1.98828C36.1 1.98828 37 2.88828 37 3.98828V21.9883C37 23.0883 36.1 23.9883 35 23.9883H3C1.9 23.9883 1 23.0883 1 21.9883V3.98828C1 2.88828 1.9 1.98828 3 1.98828H35Z" fill="#006FCF"/>
<path d="M8.971 11.2563L9.745 13.1323H8.203L8.971 11.2563ZM25.046 11.3343H22.069V12.1613H24.998V13.4003H22.075V14.3223H25.052V15.0613L27.129 12.8163L25.052 10.4763L25.046 11.3343ZM10.983 8.99428H14.978L15.865 10.9293L16.687 8.98828H27.057L28.135 10.1783L29.25 8.98828H34.013L30.494 12.8403L33.977 16.6683H29.143L28.065 15.4783L26.94 16.6683H10.03L9.536 15.4783H8.406L7.911 16.6683H4L7.286 8.98828H10.716L10.983 8.99428ZM19.646 10.0723H17.407L15.907 13.6083L14.282 10.0723H12.06V14.8823L10 10.0723H8.007L5.625 15.5843H7.18L7.674 14.3943H10.27L10.764 15.5843H13.484V11.6493L15.235 15.5903H16.425L18.165 11.6613V15.5913H19.623L19.647 10.0713L19.646 10.0723ZM28.986 12.8403L31.517 10.0723H29.695L28.094 11.7983L26.546 10.0723H20.652V15.5903H26.462L28.076 13.8523L29.624 15.5903H31.499L28.987 12.8403H28.986Z" fill="white"/>
</g>
<defs>
<clipPath id="clip0_4901_40187">
<rect width="38" height="24" fill="white" transform="translate(0 0.988281)"/>
</clipPath>
</defs>
</svg>
