<svg width="70" height="70" viewBox="0 0 70 70" fill="none" xmlns="http://www.w3.org/2000/svg">
<path d="M35 5.6C51.212 5.6 64.4 18.788 64.4 35C64.4 51.212 51.212 64.4 35 64.4C18.788 64.4 5.6 51.212 5.6 35C5.6 18.788 18.788 5.6 35 5.6ZM35 0C15.6695 0 0 15.6695 0 35C0 54.3305 15.6695 70 35 70C54.3305 70 70 54.3305 70 35C70 15.6695 54.3305 0 35 0Z" fill="#518FCC"/>
<path d="M30.6255 47.708L19.8945 36.9806L23.8565 33.0186L30.6255 39.7911L46.1445 24.2686L50.1065 28.2306L30.6255 47.708Z" fill="#518FCC"/>
</svg>
