<svg width="18" height="18" viewBox="0 0 18 18" fill="none" xmlns="http://www.w3.org/2000/svg">
<path d="M16.9729 2.43512H12.0919V1H10.8162V2.43512H7.18378V1H5.90811V2.43512H1.02711L1 3.07295V16.0688L1.02711 16.7066H16.9729L17 16.0688V3.07295L16.9729 2.43512ZM5.90811 3.71078V4.08312C5.69763 4.2633 5.56448 4.5296 5.56448 4.82858C5.56448 5.37074 6.00379 5.81005 6.54594 5.81005C7.0881 5.81005 7.52741 5.37074 7.52741 4.82858C7.52741 4.5304 7.39346 4.2633 7.18378 4.08312V3.71078H10.8162V4.08312C10.6057 4.2633 10.4726 4.5296 10.4726 4.82858C10.4726 5.37074 10.9119 5.81005 11.4541 5.81005C11.9962 5.81005 12.4355 5.37074 12.4355 4.82858C12.4355 4.5304 12.3016 4.2633 12.0919 4.08312V3.71078H15.7243V6.35061H2.27566V3.71078H5.90811ZM2.27566 15.4309V7.62627H15.7251V15.4309H2.27566Z" fill="#555555" fill-opacity="0.5"/>
</svg>
