<svg width="40" height="40" viewBox="0 0 40 40" fill="none" xmlns="http://www.w3.org/2000/svg">
<path d="M35 20.0101C34.998 17.3225 34.2699 14.6855 32.8928 12.3781L34.826 10.7917L33.4534 9.18597L31.6845 10.6466C30.2831 8.88531 28.5029 7.46294 26.4762 6.48532C24.4496 5.5077 22.2287 5 19.9789 5C17.7291 5 15.5082 5.5077 13.4816 6.48532C11.455 7.46294 9.67472 8.88531 8.27331 10.6466L6.51408 9.17629L5.18016 10.7917L7.11337 12.3781C5.50245 15.0712 4.78277 18.2048 5.05703 21.3316C5.33129 24.4583 6.58547 27.4184 8.6406 29.7896L5.18983 32.5851L6.52376 34.2005L10.1002 31.2405C12.8274 33.6625 16.3472 35 19.9934 35C23.6397 35 27.1594 33.6625 29.8866 31.2405L33.4631 34.2102L34.797 32.5948L31.3655 29.7509C33.7053 27.0453 34.9952 23.5882 35 20.0101ZM34.0334 20.0101C34.032 23.3687 32.8206 26.6142 30.6213 29.1512L26.3295 25.5915L28.9394 15.6476L32.1389 12.9972C33.3787 15.1261 34.0324 17.546 34.0334 20.0101ZM24.1547 23.7923L23.1881 20.3971L26.2909 17.8143L24.783 24.334L24.1547 23.7923ZM15.4552 24.0728L14.1213 18.2206L17.0211 20.6582L16.2575 23.4054L15.4552 24.0728ZM19.0993 19.6329L20.1529 15.8604L21.1195 19.3717L19.9402 20.339L19.0993 19.6329ZM21.7478 21.5675L21.8348 21.8867L21.5932 21.6932L21.7478 21.5675ZM19.9499 5.95514C22.0684 5.95555 24.1592 6.43723 26.0646 7.36383C27.9701 8.29043 29.6405 9.6378 30.9499 11.3044L28.4271 13.3937H27.3541L27.1028 14.4965L22.5984 18.2303L21.2548 13.3937H19.0993L17.6881 18.4818L13.348 14.8834L13.0097 13.3937H11.5501L9.02727 11.3044C10.336 9.64807 12.0013 8.30861 13.8992 7.38579C15.7971 6.46297 17.8786 5.98056 19.9886 5.97451L19.9499 5.95514ZM5.95343 20.0101C5.96614 17.5424 6.63327 15.1223 7.88665 12.9972L11.5984 16.0732L14.015 25.3303L9.40423 29.1995C7.18003 26.6556 5.95387 23.3904 5.95343 20.0101ZM19.9886 34.0554C16.6324 34.054 13.3893 32.8417 10.8541 30.6408L14.5563 27.5648L14.6916 28.0581H16.7794L17.6301 25.0208L19.9886 23.0862L22.8884 25.4561L23.6134 28.0775H25.7206L25.7786 27.8453L29.1714 30.6602C26.6218 32.8677 23.36 34.0772 19.9886 34.0651V34.0554Z" fill="#555555"/>
</svg>
