<svg width="18" height="18" viewBox="0 0 18 18" fill="none" xmlns="http://www.w3.org/2000/svg">
<path d="M5.98331 12.5785C6.38935 12.5785 6.71852 12.2493 6.71852 11.8432C6.71852 11.4372 6.38935 11.108 5.98331 11.108C5.57727 11.108 5.2481 11.4372 5.2481 11.8432C5.2481 12.2493 5.57727 12.5785 5.98331 12.5785Z" fill="#555555" fill-opacity="0.5"/>
<path d="M11.9197 12.5785C12.3257 12.5785 12.6549 12.2493 12.6549 11.8432C12.6549 11.4372 12.3257 11.108 11.9197 11.108C11.5136 11.108 11.1845 11.4372 11.1845 11.8432C11.1845 12.2493 11.5136 12.5785 11.9197 12.5785Z" fill="#555555" fill-opacity="0.5"/>
<path d="M14.0103 17.967L15.8684 18L13.711 15.5957H15.7204L15.7324 14.9522V2.00241L15.0889 2H2.15525L2.13675 2.64351V14.9522L2.15525 15.5957H4.15736L2 18L3.85813 17.967L5.96561 15.5957H11.9028L14.0103 17.967ZM3.42296 3.28701H14.4446V14.3087H3.42296V3.28701Z" fill="#555555" fill-opacity="0.5"/>
<path d="M4.45015 5.32532L3.96752 5.80795V9.58936L4.45015 10.072H13.2783L13.7609 9.58936V5.80795L13.2783 5.32532H4.45015ZM12.7956 9.10673H4.93278V6.29058H12.7956V9.10673Z" fill="#555555" fill-opacity="0.5"/>
<path d="M11.3469 3.93776H6.52064V4.90302H11.3469V3.93776Z" fill="#555555" fill-opacity="0.5"/>
</svg>
