<svg width="40" height="40" viewBox="0 0 40 40" fill="none" xmlns="http://www.w3.org/2000/svg">
<path d="M33.6159 31.0086L38 6.17313L37.0236 6L36.0472 11.3095C35.2454 11.1291 34.5455 10.65 34.0944 9.97252C33.7727 9.45311 33.3209 9.02386 32.7823 8.72604C32.2437 8.42822 31.6364 8.27182 31.0187 8.27182C30.4011 8.27182 29.7938 8.42822 29.2552 8.72604C28.7166 9.02386 28.2647 9.45311 27.943 9.97252C27.7127 10.3835 27.3747 10.7262 26.9643 10.9648C26.5539 11.2035 26.086 11.3293 25.6094 11.3293C25.1329 11.3293 24.665 11.2035 24.2546 10.9648C23.8441 10.7262 23.5062 10.3835 23.2758 9.97252C22.9554 9.45299 22.5045 9.0235 21.9667 8.72545C21.4288 8.4274 20.8221 8.27082 20.205 8.27082C19.5879 8.27082 18.9812 8.4274 18.4434 8.72545C17.9055 9.0235 17.4547 9.45299 17.1343 9.97252C16.9041 10.3723 16.5714 10.7055 16.1695 10.9389C15.7676 11.1723 15.3105 11.2977 14.844 11.3026C14.3775 11.3075 13.9178 11.1916 13.511 10.9667C13.1041 10.7417 12.7644 10.4155 12.5256 10.0206C12.2065 9.50094 11.7566 9.0712 11.2195 8.77292C10.6824 8.47464 10.0763 8.31793 9.45972 8.31793C8.84317 8.31793 8.23704 8.47464 7.69995 8.77292C7.16286 9.0712 6.71298 9.50094 6.39382 10.0206C6.14538 10.4138 5.80452 10.7423 5.40005 10.9783C4.99558 11.2144 4.53937 11.3511 4.06997 11.3768V12.2233L2.9764 6.04808L2 6.22121L6.38405 31.047L33.6159 31.0086ZM7.11635 10.6073C7.34305 10.1934 7.67919 9.84766 8.08917 9.60666C8.49914 9.36566 8.96766 9.23841 9.44508 9.23841C9.92249 9.23841 10.391 9.36566 10.801 9.60666C11.211 9.84766 11.5471 10.1934 11.7738 10.6073C12.0948 11.1247 12.5453 11.5522 13.0821 11.8488C13.619 12.1454 14.2242 12.3011 14.8397 12.3011C15.4552 12.3011 16.0604 12.1454 16.5973 11.8488C17.1341 11.5522 17.5846 11.1247 17.9056 10.6073C18.1539 10.2111 18.4958 9.8799 18.9021 9.64206C19.3085 9.40421 19.7672 9.26679 20.2392 9.24149C20.7112 9.26679 21.17 9.40421 21.5763 9.64206C21.9827 9.8799 22.3246 10.2111 22.5728 10.6073C22.8951 11.1246 23.3465 11.5518 23.8842 11.8482C24.4218 12.1446 25.0275 12.3002 25.6436 12.3002C26.2597 12.3002 26.8655 12.1446 27.4031 11.8482C27.9407 11.5518 28.3922 11.1246 28.7144 10.6073C28.9636 10.2098 29.307 9.8778 29.7152 9.63989C30.1234 9.40197 30.5841 9.26526 31.0578 9.24149C31.5298 9.26679 31.9885 9.40421 32.3949 9.64206C32.8012 9.8799 33.1431 10.2111 33.3914 10.6073C33.9901 11.4599 34.8993 12.0525 35.93 12.2617L32.7958 30.0467H7.20423L4.06997 12.3002C4.67639 12.2707 5.26747 12.1024 5.79628 11.8085C6.3251 11.5147 6.77709 11.1034 7.11635 10.6073Z" fill="#555555"/>
<path d="M16.1579 24.8142C15.8226 24.8152 15.4905 24.7498 15.1814 24.6218C14.9047 24.4943 14.6679 24.2958 14.4961 24.0469C14.3243 23.7981 14.2237 23.5082 14.205 23.2078H12.9357C12.9369 23.5919 13.0252 23.9709 13.1941 24.317C13.363 24.6632 13.6084 24.9678 13.9121 25.2085C14.5124 25.6479 15.2441 25.878 15.9919 25.8626C16.4927 25.9081 16.9975 25.8389 17.4667 25.6604C17.9359 25.4818 18.3568 25.1988 18.6965 24.8334C19.2507 24.163 19.548 23.322 19.5362 22.4576C19.5489 22.0574 19.4735 21.6594 19.315 21.2907C19.1566 20.9221 18.9189 20.5917 18.6184 20.3222C18.0091 19.7584 17.1986 19.4542 16.3629 19.4758C15.9357 19.4696 15.5114 19.5447 15.1131 19.697C14.8887 19.7997 14.676 19.9255 14.4784 20.0721L14.8885 17.4366H18.9894V16.2728H14.0195L13.2872 21.3995L14.332 21.4572C14.5353 21.1818 14.7989 20.955 15.1033 20.7935C15.4342 20.6232 15.8043 20.5404 16.1774 20.5531C16.7221 20.5423 17.2501 20.7386 17.6518 21.1013C17.864 21.2966 18.0294 21.5361 18.1358 21.8024C18.2422 22.0686 18.287 22.3549 18.2669 22.6403C18.2715 23.1837 18.089 23.7126 17.7494 24.1408C17.5597 24.3721 17.3156 24.5544 17.0383 24.6717C16.7609 24.789 16.4587 24.8379 16.1579 24.8142Z" fill="#555555"/>
<path d="M23.891 25.8818C24.4883 25.9034 25.0774 25.7395 25.575 25.4133C26.0726 25.0871 26.4535 24.615 26.664 24.0639C27.0951 23.0512 27.2983 21.9584 27.2596 20.8609C27.3118 19.7503 27.0872 18.644 26.6054 17.6386C26.3527 17.1543 25.9624 16.7527 25.4822 16.4829C25.0021 16.2131 24.4526 16.0866 23.9007 16.1189C23.2355 16.0981 22.583 16.3012 22.0506 16.6945C21.5181 17.0879 21.1376 17.6482 20.9715 18.2831C20.6678 19.1786 20.5224 20.1189 20.5419 21.0629C20.5002 22.2379 20.7658 23.4038 21.3133 24.4486C21.5616 24.903 21.9356 25.2787 22.3918 25.5324C22.848 25.786 23.3678 25.9072 23.891 25.8818ZM22.3971 18.1869C22.5315 17.8901 22.7531 17.6399 23.0333 17.4684C23.3135 17.297 23.6395 17.2122 23.9691 17.225C24.311 17.2015 24.6512 17.2909 24.9358 17.479C25.2205 17.6671 25.4335 17.9432 25.5411 18.2638C25.8407 19.1234 25.9796 20.0294 25.9512 20.9378C26.0411 21.9919 25.8457 23.0507 25.3849 24.0062C25.2047 24.2964 24.9404 24.5267 24.6261 24.6675C24.3117 24.8083 23.9618 24.8532 23.6214 24.7963C23.2809 24.7393 22.9656 24.5832 22.7161 24.3481C22.4665 24.113 22.2942 23.8096 22.2213 23.4771C21.9814 22.7214 21.8725 21.9312 21.8991 21.1398C21.8411 20.1313 22.0111 19.1227 22.3971 18.1869Z" fill="#555555"/>
<path d="M33.9967 33.0381H6.00325V34H33.9967V33.0381Z" fill="#555555"/>
</svg>
