<svg width="40" height="40" viewBox="0 0 40 40" fill="none" xmlns="http://www.w3.org/2000/svg">
<path d="M37.0822 7L36.1058 12.5243C35.3036 12.3312 34.6045 11.8296 34.153 11.1232C33.8295 10.5851 33.377 10.1409 32.8386 9.83274C32.3003 9.52461 31.6939 9.36284 31.0773 9.36284C30.4607 9.36284 29.8543 9.52461 29.3159 9.83274C28.7776 10.1409 28.3251 10.5851 28.0016 11.1232C27.7735 11.5535 27.4363 11.9128 27.0256 12.1632C26.6149 12.4135 26.1459 12.5457 25.668 12.5457C25.1902 12.5457 24.7212 12.4135 24.3104 12.1632C23.8997 11.9128 23.5626 11.5535 23.3344 11.1232C23.0122 10.585 22.5607 10.1405 22.0231 9.83213C21.4855 9.52378 20.8797 9.36186 20.2636 9.36186C19.6476 9.36186 19.0418 9.52378 18.5042 9.83213C17.9666 10.1405 17.5151 10.585 17.1928 11.1232C16.9661 11.5538 16.63 11.9136 16.22 12.1643C15.81 12.4151 15.3415 12.5475 14.8641 12.5475C14.3867 12.5475 13.9182 12.4151 13.5082 12.1643C13.0982 11.9136 12.7621 11.5538 12.5354 11.1232C12.2144 10.5849 11.7639 10.1401 11.2271 9.83152C10.6902 9.52294 10.085 9.36088 9.46949 9.36088C8.85398 9.36088 8.24879 9.52294 7.71194 9.83152C7.17508 10.1401 6.72457 10.5849 6.40359 11.1232C6.15534 11.5354 5.81343 11.88 5.40707 12.1275C5.00071 12.375 4.54196 12.518 4.06999 12.5443V13.4349L2.9764 7L2 7.17014L6.38406 33H33.6159L38 7.17014L37.0822 7ZM32.8348 32.0192H7.2433L4.10903 13.565C4.71648 13.5391 5.30929 13.3659 5.83882 13.0597C6.36836 12.7536 6.81954 12.3231 7.15541 11.8037C7.3821 11.3731 7.71825 11.0133 8.12822 10.7625C8.53819 10.5118 9.00672 10.3794 9.48414 10.3794C9.96156 10.3794 10.4301 10.5118 10.84 10.7625C11.25 11.0133 11.5862 11.3731 11.8129 11.8037C12.1351 12.3419 12.5866 12.7864 13.1242 13.0947C13.6618 13.4031 14.2676 13.565 14.8836 13.565C15.4997 13.565 16.1055 13.4031 16.6431 13.0947C17.1807 12.7864 17.6322 12.3419 17.9544 11.8037C18.2027 11.3914 18.5446 11.0468 18.9509 10.7994C19.3573 10.5519 19.8161 10.4089 20.288 10.3826C20.76 10.4089 21.2188 10.5519 21.6251 10.7994C22.0315 11.0468 22.3734 11.3914 22.6216 11.8037C22.9439 12.3419 23.3954 12.7864 23.933 13.0947C24.4706 13.4031 25.0764 13.565 25.6924 13.565C26.3085 13.565 26.9143 13.4031 27.4519 13.0947C27.9895 12.7864 28.441 12.3419 28.7632 11.8037C29.0115 11.3914 29.3534 11.0468 29.7597 10.7994C30.1661 10.5519 30.6248 10.4089 31.0968 10.3826C31.5705 10.4073 32.0312 10.5496 32.4394 10.7971C32.8476 11.0446 33.191 11.3901 33.4402 11.8037C34.0367 12.6931 34.9469 13.3102 35.9788 13.525L32.8348 32.0192Z" fill="#555555"/>
<path d="M18.3743 17.4881H17.3979L12.9845 23.7729V24.9938H17.2124V27.4057H18.3743V24.9938H19.7998V23.903H18.3743V17.4881ZM17.144 23.903H14.0488L17.144 19.4095V23.903Z" fill="#555555"/>
<path d="M23.9398 17.5181C23.2845 17.5102 22.6456 17.7278 22.1252 18.136C21.6048 18.5442 21.2329 19.1195 21.0692 19.7698C20.7646 20.7014 20.6193 21.6798 20.6396 22.662C20.5824 23.8631 20.8279 25.059 21.3523 26.1347C21.5937 26.6191 21.966 27.0221 22.4249 27.2954C22.8837 27.5687 23.4096 27.7008 23.9398 27.6759C24.5365 27.6953 25.1243 27.5236 25.6213 27.1846C26.1183 26.8455 26.4999 26.3561 26.7128 25.7845C27.1359 24.7286 27.3356 23.5927 27.2986 22.4519C27.3535 21.2972 27.1322 20.1463 26.6542 19.0993C26.3998 18.5946 26.0079 18.1764 25.526 17.8957C25.0441 17.615 24.493 17.4838 23.9398 17.5181ZM25.4337 25.6944C25.2502 25.9929 24.9839 26.2285 24.669 26.371C24.354 26.5134 24.0047 26.5562 23.6659 26.4938C23.3271 26.4314 23.0141 26.2668 22.7672 26.0209C22.5202 25.7751 22.3506 25.4593 22.2799 25.1139C22.0487 24.3258 21.9432 23.5046 21.9674 22.6821C21.9195 21.6562 22.0894 20.6318 22.4654 19.6798C22.597 19.371 22.8167 19.1102 23.0954 18.9316C23.3742 18.753 23.6992 18.6649 24.0277 18.679C24.3709 18.654 24.7125 18.7466 24.9988 18.9422C25.2852 19.1379 25.4999 19.4255 25.6094 19.7598C25.9004 20.6561 26.0359 21.5977 26.0098 22.5419C26.0874 23.6262 25.8889 24.7124 25.4337 25.6944Z" fill="#555555"/>
</svg>
