<svg width="40" height="40" viewBox="0 0 40 40" fill="none" xmlns="http://www.w3.org/2000/svg">
<path d="M31.5974 8H10.7689V8.99174H30.8318L33.546 19.157H14.6065C13.1099 19.195 11.6472 19.6095 10.3541 20.3619C9.06103 21.1143 7.9794 22.1804 7.2096 23.4611L2 32H38L31.5974 8ZM8.06463 23.9768C8.74326 22.8383 9.70017 21.89 10.846 21.2206C11.9917 20.5511 13.289 20.1824 14.6164 20.1488H33.8045L36.6777 31.0082H3.75975L8.06463 23.9768Z" fill="#555555"/>
<path d="M18.2552 24.4033C17.9122 24.4014 17.5764 24.5011 17.2904 24.69C17.0044 24.8788 16.7811 25.1483 16.6489 25.464C16.5168 25.7797 16.4817 26.1275 16.5481 26.4631C16.6146 26.7988 16.7795 27.1072 17.022 27.3491C17.2646 27.591 17.5737 27.7556 17.9102 27.8218C18.2467 27.8881 18.5953 27.8531 18.9118 27.7212C19.2283 27.5894 19.4984 27.3667 19.6877 27.0814C19.8771 26.7961 19.9771 26.4611 19.9752 26.119C19.9752 25.664 19.7939 25.2276 19.4714 24.9058C19.1488 24.5841 18.7113 24.4033 18.2552 24.4033Z" fill="#555555"/>
<path d="M24.3397 24.4033C23.9971 24.4033 23.6623 24.5047 23.3776 24.6948C23.0929 24.8849 22.8712 25.155 22.7405 25.4709C22.6099 25.7868 22.5762 26.1342 22.6438 26.4692C22.7114 26.8042 22.8771 27.1116 23.12 27.3526C23.363 27.5935 23.6721 27.7571 24.0083 27.8225C24.3446 27.888 24.6927 27.8524 25.0086 27.7203C25.3245 27.5882 25.594 27.3655 25.7829 27.0804C25.9718 26.7953 26.0716 26.4607 26.0696 26.119C26.0709 25.8924 26.027 25.6679 25.9404 25.4585C25.8538 25.2491 25.7263 25.059 25.5653 24.8993C25.4043 24.7396 25.2129 24.6135 25.0025 24.5283C24.7921 24.4432 24.5668 24.4006 24.3397 24.4033Z" fill="#555555"/>
</svg>
