<svg width="40" height="40" viewBox="0 0 40 40" fill="none" xmlns="http://www.w3.org/2000/svg">
<path d="M35 19.9877C34.9945 16.8597 34.0033 13.8131 32.1674 11.2814L34.797 9.10481L33.4628 7.48932L30.8332 9.66589C29.4375 8.192 27.7563 7.01815 25.8922 6.21594C24.0281 5.41373 22.0202 5 19.991 5C17.9618 5 15.9538 5.41373 14.0897 6.21594C12.2256 7.01815 10.5444 8.192 9.14866 9.66589L6.51905 7.48932L5.18493 9.13386L7.80486 11.3104C5.98116 13.8467 5 16.8922 5 20.0167C5 23.1412 5.98116 26.1867 7.80486 28.723L5.18493 30.8996L6.51905 32.515L9.14866 30.3385C10.5451 31.8111 12.2265 32.9839 14.0906 33.7853C15.9546 34.5867 17.9622 35 19.991 35C22.0198 35 24.0273 34.5867 25.8913 33.7853C27.7554 32.9839 29.4368 31.8111 30.8332 30.3385L33.4628 32.515L34.797 30.8996L32.177 28.723C34.0118 26.1803 34.9995 23.1239 35 19.9877ZM34.0332 19.9877C34.0306 22.8978 33.1216 25.7347 31.4326 28.1039L21.6296 19.9877L31.423 11.8715C33.1177 14.2383 34.0304 17.0761 34.0332 19.9877ZM19.9861 5.94156C21.8739 5.94143 23.7421 6.32362 25.4784 7.0651C27.2146 7.80657 28.7829 8.89195 30.0888 10.256L19.9861 18.6334L9.89307 10.256C11.1975 8.89268 12.7642 7.80769 14.4987 7.06622C16.2333 6.32475 18.0999 5.94218 19.9861 5.94156ZM5.94867 19.9877C5.95387 17.0779 6.86264 14.2418 8.54927 11.8715L18.3523 19.9877L8.54927 28.1039C6.86033 25.7347 5.95131 22.8978 5.94867 19.9877ZM19.9861 34.0338C18.0996 34.0349 16.2326 33.6531 14.4978 32.9115C12.763 32.17 11.1965 31.084 9.89307 29.7194L19.9861 21.3517L30.0888 29.7194C28.7843 31.0852 27.2163 32.1718 25.4797 32.9134C23.7431 33.655 21.8742 34.0362 19.9861 34.0338Z" fill="#555555"/>
</svg>
