<svg width="40" height="40" viewBox="0 0 40 40" fill="none" xmlns="http://www.w3.org/2000/svg">
<path d="M20 5C17.0328 5 14.1324 5.87996 11.6654 7.52861C9.19849 9.17726 7.27592 11.5205 6.1409 14.262C5.00587 17.0034 4.70937 20.0199 5.28893 22.9299C5.86849 25.8399 7.29807 28.5126 9.39682 30.61C11.4956 32.7074 14.1692 34.1353 17.0795 34.7129C19.9899 35.2906 23.0062 34.9922 25.7469 33.8554C28.4876 32.7186 30.8296 30.7945 32.4767 28.3265C34.1238 25.8585 35.0019 22.9574 35 19.9903C34.9948 16.0145 33.4125 12.2032 30.6003 9.39281C27.7881 6.58242 23.9758 5.00256 20 5ZM20 33.9948C17.2232 33.9948 14.5088 33.171 12.2004 31.6277C9.89197 30.0844 8.09327 27.8909 7.03197 25.325C5.97067 22.759 5.69445 19.9359 6.23829 17.2128C6.78213 14.4898 8.12158 11.9894 10.0871 10.0279C12.0526 8.06644 14.5559 6.73217 17.28 6.19396C20.0041 5.65575 22.8267 5.93782 25.3905 7.00442C27.9543 8.07103 30.144 9.87427 31.6825 12.1859C33.221 14.4975 34.0392 17.2135 34.0335 19.9903C34.0309 23.7123 32.5519 27.2813 29.9209 29.9141C27.29 32.5469 23.722 34.0284 20 34.0335V33.9948Z" fill="#555555"/>
<path d="M24.5908 25.3157L21.2564 13.3505H19.1108L15.7861 25.2964L13.0122 13.3505H10.857L14.6939 28.0509H16.7912L20.2029 15.8634L23.5953 28.0509H25.683L29.5489 13.3505H27.3647L24.5908 25.3157Z" fill="#555555"/>
</svg>
