<svg width="14" height="14" viewBox="0 0 14 14" fill="none" xmlns="http://www.w3.org/2000/svg">
<g clip-path="url(#clip0_3279_44698)">
<path d="M13.3461 6.99264C13.3461 3.48775 10.5048 0.646484 6.99996 0.646484C3.49508 0.646484 0.653809 3.48775 0.653809 6.99264C0.653809 10.1601 2.97449 12.7856 6.00838 13.2617V8.82707H4.39705V6.99264H6.00838V5.5945C6.00838 4.004 6.95584 3.12545 8.40541 3.12545C9.09952 3.12545 9.82598 3.2494 9.82598 3.2494V4.81115H9.02577C8.23746 4.81115 7.99155 5.30037 7.99155 5.80273V6.99264H9.75161L9.47025 8.82707H7.99155V13.2617C11.0254 12.7856 13.3461 10.1601 13.3461 6.99264Z" fill="white"/>
<path d="M9.4703 8.82711L9.75166 6.99268H7.9916V5.80277C7.9916 5.3009 8.23751 4.81119 9.02582 4.81119H9.82603V3.24944C9.82603 3.24944 9.09982 3.12549 8.40546 3.12549C6.95588 3.12549 6.00842 4.00403 6.00842 5.59454V6.99268H4.39709V8.82711H6.00842V13.2617C6.66548 13.3645 7.33453 13.3645 7.9916 13.2617V8.82711H9.4703Z" fill="#D7D7D7"/>
</g>
<defs>
<clipPath id="clip0_3279_44698">
<rect width="12.6923" height="12.6923" fill="white" transform="translate(0.653809 0.646484)"/>
</clipPath>
</defs>
</svg>
