<svg width="20" height="18" viewBox="0 0 20 18" fill="none" xmlns="http://www.w3.org/2000/svg">
<path d="M17.0679 11.6956L17.5136 11.8044L17.5391 11.81C17.6411 11.8309 17.744 11.8403 17.845 11.8403C18.2001 11.8403 18.5457 11.7183 18.8262 11.4874C19.1869 11.1913 19.3937 10.7533 19.3937 10.285V3.55588C19.3937 3.05638 19.1633 2.60039 18.7629 2.30428C18.3616 2.00817 17.8583 1.92302 17.3833 2.07155L17.3559 2.08007L12.2499 4.20392V4.17081H7.48288V4.20392L2.40332 2.09142L2.3495 2.07155C1.87355 1.92397 1.37023 2.00911 0.969829 2.30522C0.569432 2.60133 0.338071 3.05732 0.338071 3.55588V10.2869C0.338071 10.7543 0.544879 11.1923 0.905614 11.4893C1.18608 11.7192 1.53171 11.8422 1.88677 11.8422C1.98876 11.8422 2.09169 11.8318 2.19274 11.8119L3.0077 11.6123L0 14.9348L4.30993 14.6273L5.53662 17L9.26862 10.3494H10.7314L14.4634 17L15.6901 14.6273L20 14.9348L17.0679 11.6956ZM17.7685 3.23991C17.8941 3.20869 17.9895 3.25977 18.0358 3.29478C18.0849 3.33073 18.168 3.41303 18.168 3.55588V10.2869C18.168 10.4203 18.0934 10.5017 18.049 10.5376C18.0056 10.5736 17.9159 10.6284 17.7893 10.6067L12.2499 9.25102V5.53499L17.7685 3.23991ZM8.71146 5.39971H11.0232V9.11857H8.71146V5.39971ZM1.94343 10.6067C1.81784 10.6275 1.72718 10.5726 1.68374 10.5376C1.63936 10.5017 1.56476 10.4203 1.56476 10.2869V3.55588C1.56476 3.41303 1.64691 3.33073 1.69696 3.29478C1.74324 3.26072 1.83861 3.20963 1.96421 3.23991L7.48194 5.53499V9.25102L1.94343 10.6067ZM5.02762 13.3436L2.9652 13.4912L5.09467 11.1393L5.06162 11.11L7.81057 10.4373L5.58006 14.4126L5.02762 13.3436ZM14.9714 13.3436L14.419 14.4116L12.231 10.5121L14.9374 11.1743L17.0339 13.4902L14.9714 13.3436Z" fill="#555555"/>
</svg>
