<svg width="40" height="40" viewBox="0 0 40 40" fill="none" xmlns="http://www.w3.org/2000/svg">
<path d="M36 32.002L27.3644 17.4502L35.4351 10.8665L34.0429 9.20319L26.2648 15.5677L19.9798 5L13.6444 15.5677L5.86634 9.21316L4.56494 10.8765L12.6356 17.4602L4 32.002H6.21943L4.56494 33.3367L5.95713 35L9.62925 32.012H30.401L34.0732 35L35.4654 33.3367L33.821 32.002H36ZM19.9597 6.96215L25.4578 16.2152L19.9597 20.7072L14.4716 16.2152L19.9597 6.96215ZM7.36948 31.006H5.69482L13.3518 18.0578L18.2446 22.0419L7.36948 31.006ZM10.7894 31.006L19.9597 23.506L29.1299 31.006H10.7894ZM21.715 22.1016L26.6179 18.1175L34.2749 31.0658H32.6003L21.715 22.1016Z" fill="#555555"/>
</svg>
