<svg width="40" height="40" viewBox="0 0 40 40" fill="none" xmlns="http://www.w3.org/2000/svg">
<path d="M20 33.3265C22.9663 33.3265 25.866 32.4374 28.3325 30.7717C30.7991 29.1059 32.7217 26.7383 33.8573 23.9682C34.9929 21.198 35.2905 18.1498 34.7125 15.2086C34.1345 12.2675 32.7068 9.56568 30.61 7.44467C28.5132 5.32367 25.8413 3.87873 22.9323 3.29256C20.0232 2.70638 17.0075 3.00527 14.2664 4.15144C11.5254 5.29761 9.18203 7.23957 7.53265 9.73186C5.88327 12.2242 5.00191 15.1549 5 18.1535C5 22.1759 6.58005 26.0337 9.39282 28.8789C12.2056 31.7241 16.0209 33.3239 20 33.3265ZM20 4.01613C22.7776 4.01615 25.4928 4.84939 27.8016 6.41036C30.1104 7.97133 31.9091 10.1898 32.9698 12.7848C34.0305 15.3799 34.3056 18.2347 33.7602 20.9879C33.2148 23.7411 31.8734 26.2688 29.906 28.2508C27.9385 30.2328 25.4335 31.58 22.7081 32.1218C19.9827 32.6637 17.1595 32.3758 14.596 31.2946C12.0326 30.2134 9.84424 28.3875 8.30805 26.0481C6.77185 23.7088 5.95693 20.9613 5.96649 18.1535C5.97161 14.3935 7.4521 10.7892 10.0831 8.13146C12.714 5.4737 16.2806 3.9796 20 3.97701V4.01613Z" fill="#555555"/>
<path d="M16.7912 26.3017L20.203 13.9816L23.5954 26.3017H25.683L29.549 11.4414H27.3647L24.5909 23.5368L21.2564 11.4414H19.1108L15.7861 23.5172L13.0122 11.4414H10.857L14.694 26.3017H16.7912Z" fill="#555555"/>
<path d="M34.5168 36.023H5.48326V37H34.5168V36.023Z" fill="#555555"/>
</svg>
