<svg width="40" height="40" viewBox="0 0 40 40" fill="none" xmlns="http://www.w3.org/2000/svg">
<path d="M36.9865 7.03001L36.0119 12.5521C35.2141 12.3588 34.5174 11.8618 34.0628 11.1616C33.743 10.6213 33.293 10.1746 32.7561 9.86459C32.2193 9.55461 31.6138 9.39179 30.9978 9.39179C30.3819 9.39179 29.7764 9.55461 29.2395 9.86459C28.7027 10.1746 28.2527 10.6213 27.9329 11.1616C27.7016 11.5888 27.3632 11.9448 26.9528 12.1926C26.5424 12.4405 26.0749 12.5711 25.5988 12.5711C25.1227 12.5711 24.6552 12.4405 24.2448 12.1926C23.8344 11.9448 23.496 11.5888 23.2648 11.1616C22.9462 10.6211 22.4972 10.1742 21.9611 9.86395C21.425 9.55373 20.82 9.39075 20.2047 9.39075C19.5893 9.39075 18.9843 9.55373 18.4482 9.86395C17.9121 10.1742 17.4631 10.6211 17.1446 11.1616C16.9147 11.5891 16.5773 11.9455 16.1677 12.1936C15.758 12.4418 15.2911 12.5728 14.8154 12.5728C14.3397 12.5728 13.8727 12.4418 13.4631 12.1936C13.0534 11.9455 12.7161 11.5891 12.4862 11.1616C12.1676 10.6211 11.7186 10.1742 11.1825 9.86395C10.6465 9.55373 10.0415 9.39075 9.4261 9.39075C8.81071 9.39075 8.20573 9.55373 7.66966 9.86395C7.13359 10.1742 6.68456 10.6211 6.366 11.1616C6.11564 11.5636 5.77551 11.8986 5.37383 12.1387C4.97214 12.3788 4.52048 12.5171 4.05631 12.5421V13.4325L2.97455 7L2 7.18009L6.37575 33H33.6243L38 7.18009L36.9865 7.03001ZM32.7569 32.0396H7.20411L4.0758 13.5425C4.6821 13.5166 5.27377 13.3435 5.8023 13.0374C6.33083 12.7314 6.78118 12.3011 7.11641 11.7818C7.34411 11.3516 7.68067 10.9925 8.09059 10.7422C8.50052 10.492 8.96864 10.3599 9.44559 10.3599C9.92254 10.3599 10.3907 10.492 10.8006 10.7422C11.2105 10.9925 11.5471 11.3516 11.7748 11.7818C12.0951 12.3199 12.5448 12.7645 13.0806 13.073C13.6165 13.3814 14.2205 13.5435 14.8349 13.5435C15.4492 13.5435 16.0533 13.3814 16.5891 13.073C17.1249 12.7645 17.5746 12.3199 17.895 11.7818C18.1227 11.3516 18.4592 10.9925 18.8692 10.7422C19.2791 10.492 19.7472 10.3599 20.2241 10.3599C20.7011 10.3599 21.1692 10.492 21.5791 10.7422C21.9891 10.9925 22.3256 11.3516 22.5533 11.7818C22.875 12.3198 23.3256 12.7642 23.8622 13.0724C24.3988 13.3806 25.0034 13.5425 25.6183 13.5425C26.2332 13.5425 26.8378 13.3806 27.3744 13.0724C27.911 12.7642 28.3617 12.3198 28.6833 11.7818C28.9124 11.3519 29.25 10.9932 29.6607 10.7433C30.0713 10.4935 30.5399 10.3616 31.0173 10.3616C31.4947 10.3616 31.9633 10.4935 32.374 10.7433C32.7847 10.9932 33.1223 11.3519 33.3514 11.7818C33.9468 12.6708 34.8553 13.2878 35.8852 13.5025L32.7569 32.0396Z" fill="#555555"/>
<path d="M12.7201 18.9646H18.0411C17.3043 19.8417 16.6515 20.7898 16.092 21.7956C15.0952 23.5368 14.4118 25.448 14.0747 27.4378H15.4098C15.6145 26.4374 15.7802 25.6871 15.9166 25.2269C16.1516 24.4206 16.4481 23.6345 16.8035 22.876C17.1843 22.0116 17.641 21.1845 18.1678 20.4051C18.5295 19.8316 18.9404 19.2926 19.3958 18.7945V17.7141H12.7201V18.9646Z" fill="#555555"/>
<path d="M23.6059 17.5439C22.9419 17.5224 22.2906 17.7336 21.7592 18.1427C21.2278 18.5518 20.848 19.1345 20.6822 19.7948C20.379 20.7262 20.234 21.7041 20.2534 22.6859C20.202 23.8861 20.4467 25.0801 20.9648 26.1572C21.2104 26.6514 21.591 27.0613 22.0601 27.3368C22.5292 27.6122 23.0664 27.7412 23.6059 27.7079C24.2026 27.7265 24.7901 27.5534 25.2864 27.2126C25.7826 26.8718 26.1627 26.3805 26.3736 25.8071C26.7959 24.7517 26.9953 23.6162 26.9583 22.4758C27.0123 21.3217 26.7915 20.1714 26.3151 19.1245C26.0622 18.6192 25.6712 18.2005 25.19 17.9197C24.7088 17.639 24.1583 17.5084 23.6059 17.5439ZM25.0872 25.7171C24.9073 26.0189 24.6436 26.2584 24.3298 26.4049C24.0161 26.5514 23.6668 26.598 23.327 26.5388C22.9873 26.4796 22.6725 26.3172 22.4235 26.0727C22.1744 25.8282 22.0024 25.5127 21.9296 25.1669C21.6902 24.3808 21.5815 23.559 21.608 22.7359C21.5602 21.7104 21.7297 20.6865 22.1051 19.7348C22.2392 19.4262 22.4604 19.1659 22.7401 18.9876C23.0198 18.8092 23.3451 18.7211 23.6741 18.7344C24.0169 18.7088 24.3582 18.8025 24.6428 19.0003C24.9275 19.1981 25.1389 19.4886 25.2431 19.8248C25.5391 20.7159 25.6745 21.6549 25.6427 22.5959C25.7225 23.668 25.5311 24.7432 25.0872 25.7171Z" fill="#555555"/>
</svg>
