<svg width="38" height="25" viewBox="0 0 38 25" fill="none" xmlns="http://www.w3.org/2000/svg">
<g clip-path="url(#clip0_4901_40201)">
<path opacity="0.07" d="M35 0.988281H3C1.3 0.988281 0 2.28828 0 3.98828V21.9883C0 23.6883 1.4 24.9883 3 24.9883H35C36.7 24.9883 38 23.6883 38 21.9883V3.98828C38 2.28828 36.6 0.988281 35 0.988281Z" fill="black"/>
<path d="M35 1.98828C36.1 1.98828 37 2.88828 37 3.98828V21.9883C37 23.0883 36.1 23.9883 35 23.9883H3C1.9 23.9883 1 23.0883 1 21.9883V3.98828C1 2.88828 1.9 1.98828 3 1.98828H35Z" fill="white"/>
<path d="M15 19.9883C18.866 19.9883 22 16.8543 22 12.9883C22 9.12229 18.866 5.98828 15 5.98828C11.134 5.98828 8 9.12229 8 12.9883C8 16.8543 11.134 19.9883 15 19.9883Z" fill="#EB001B"/>
<path d="M23 19.9883C26.866 19.9883 30 16.8543 30 12.9883C30 9.12229 26.866 5.98828 23 5.98828C19.134 5.98828 16 9.12229 16 12.9883C16 16.8543 19.134 19.9883 23 19.9883Z" fill="#F79E1B"/>
<path d="M22 12.9881C22 10.5881 20.8 8.48809 19 7.28809C17.2 8.58809 16 10.6881 16 12.9881C16 15.2881 17.2 17.4881 19 18.6881C20.8 17.4881 22 15.3881 22 12.9881Z" fill="#FF5F00"/>
</g>
<defs>
<clipPath id="clip0_4901_40201">
<rect width="38" height="24" fill="white" transform="translate(0 0.988281)"/>
</clipPath>
</defs>
</svg>
