<svg width="18" height="18" viewBox="0 0 18 18" fill="none" xmlns="http://www.w3.org/2000/svg">
<path d="M9 1C4.58869 1 1 4.58869 1 9C1 13.4113 4.58869 17 9 17C13.4113 17 17 13.4113 17 9C17 4.58869 13.4113 1 9 1ZM9 15.7071C5.30141 15.7071 2.29293 12.6986 2.29293 9C2.29293 5.30141 5.30141 2.29293 9 2.29293C12.6986 2.29293 15.7071 5.30141 15.7071 9C15.7071 12.6986 12.6986 15.7071 9 15.7071Z" fill="#555555" fill-opacity="0.5"/>
<path d="M9.64646 3.53253H8.35354V9L8.71071 9.57859L12.1685 11.3071L12.7463 10.1507L9.64646 8.60081V3.53253Z" fill="#555555" fill-opacity="0.5"/>
</svg>
